<svg xmlns="http://www.w3.org/2000/svg" xmlns:xlink="http://www.w3.org/1999/xlink" version="1.1" class="marks" width="354" height="359" viewBox="0 0 354 359"><rect width="354" height="359" fill="white"/><g fill="none" stroke-miterlimit="10" transform="translate(47,22)"><g class="mark-group role-frame root" role="graphics-object" aria-roledescription="group mark container"><g transform="translate(0,0)"><path class="background" aria-hidden="true" d="M0.5,0.5h300v300h-300Z" stroke="#ddd"/><g><g class="mark-group role-axis" aria-hidden="true"><g transform="translate(0.5,300.5)"><path class="background" aria-hidden="true" d="M0,0h0v0h0Z" pointer-events="none"/><g><g class="mark-rule role-axis-grid" pointer-events="none"><line transform="translate(0,-300)" x2="0" y2="300" stroke="#ddd" stroke-width="1" opacity="1"/><line transform="translate(30,-300)" x2="0" y2="300" stroke="#ddd" stroke-width="1" opacity="1"/><line transform="translate(60,-300)" x2="0" y2="300" stroke="#ddd" stroke-width="1" opacity="1"/><line transform="translate(90,-300)" x2="0" y2="300" stroke="#ddd" stroke-width="1" opacity="1"/><line transform="translate(120,-300)" x2="0" y2="300" stroke="#ddd" stroke-width="1" opacity="1"/><line transform="translate(150,-300)" x2="0" y2="300" stroke="#ddd" stroke-width="1" opacity="1"/><line transform="translate(180,-300)" x2="0" y2="300" stroke="#ddd" stroke-width="1" opacity="1"/><line transform="translate(210,-300)" x2="0" y2="300" stroke="#ddd" stroke-width="1" opacity="1"/><line transform="translate(240,-300)" x2="0" y2="300" stroke="#ddd" stroke-width="1" opacity="1"/><line transform="translate(270,-300)" x2="0" y2="300" stroke="#ddd" stroke-width="1" opacity="1"/><line transform="translate(300,-300)" x2="0" y2="300" stroke="#ddd" stroke-width="1" opacity="1"/></g></g><path class="foreground" aria-hidden="true" d="" pointer-events="none" display="none"/></g></g><g class="mark-group role-axis" aria-hidden="true"><g transform="translate(0.5,0.5)"><path class="background" aria-hidden="true" d="M0,0h0v0h0Z" pointer-events="none"/><g><g class="mark-rule role-axis-grid" pointer-events="none"><line transform="translate(0,257)" x2="300" y2="0" stroke="#ddd" stroke-width="1" opacity="1"/><line transform="translate(0,204)" x2="300" y2="0" stroke="#ddd" stroke-width="1" opacity="1"/><line transform="translate(0,150)" x2="300" y2="0" stroke="#ddd" stroke-width="1" opacity="1"/><line transform="translate(0,96)" x2="300" y2="0" stroke="#ddd" stroke-width="1" opacity="1"/><line transform="translate(0,43)" x2="300" y2="0" stroke="#ddd" stroke-width="1" opacity="1"/></g></g><path class="foreground" aria-hidden="true" d="" pointer-events="none" display="none"/></g></g><g class="mark-group role-axis" role="graphics-symbol" aria-roledescription="axis" aria-label="X-axis titled 'x' for a linear scale with values from −5 to 5"><g transform="translate(0.5,300.5)"><path class="background" aria-hidden="true" d="M0,0h0v0h0Z" pointer-events="none"/><g><g class="mark-rule role-axis-tick" pointer-events="none"><line transform="translate(0,0)" x2="0" y2="5" stroke="#888" stroke-width="1" opacity="1"/><line transform="translate(30,0)" x2="0" y2="5" stroke="#888" stroke-width="1" opacity="1"/><line transform="translate(60,0)" x2="0" y2="5" stroke="#888" stroke-width="1" opacity="1"/><line transform="translate(90,0)" x2="0" y2="5" stroke="#888" stroke-width="1" opacity="1"/><line transform="translate(120,0)" x2="0" y2="5" stroke="#888" stroke-width="1" opacity="1"/><line transform="translate(150,0)" x2="0" y2="5" stroke="#888" stroke-width="1" opacity="1"/><line transform="translate(180,0)" x2="0" y2="5" stroke="#888" stroke-width="1" opacity="1"/><line transform="translate(210,0)" x2="0" y2="5" stroke="#888" stroke-width="1" opacity="1"/><line transform="translate(240,0)" x2="0" y2="5" stroke="#888" stroke-width="1" opacity="1"/><line transform="translate(270,0)" x2="0" y2="5" stroke="#888" stroke-width="1" opacity="1"/><line transform="translate(300,0)" x2="0" y2="5" stroke="#888" stroke-width="1" opacity="1"/></g><g class="mark-text role-axis-label" pointer-events="none"><text text-anchor="start" transform="translate(0,15)" font-family="sans-serif" font-size="10px" fill="#000" opacity="1">−5</text><text text-anchor="middle" transform="translate(30,15)" font-family="sans-serif" font-size="10px" fill="#000" opacity="1">−4</text><text text-anchor="middle" transform="translate(60,15)" font-family="sans-serif" font-size="10px" fill="#000" opacity="1">−3</text><text text-anchor="middle" transform="translate(90,15)" font-family="sans-serif" font-size="10px" fill="#000" opacity="1">−2</text><text text-anchor="middle" transform="translate(120,15)" font-family="sans-serif" font-size="10px" fill="#000" opacity="1">−1</text><text text-anchor="middle" transform="translate(150,15)" font-family="sans-serif" font-size="10px" fill="#000" opacity="1">0</text><text text-anchor="middle" transform="translate(180,15)" font-family="sans-serif" font-size="10px" fill="#000" opacity="1">1</text><text text-anchor="middle" transform="translate(210,15)" font-family="sans-serif" font-size="10px" fill="#000" opacity="1">2</text><text text-anchor="middle" transform="translate(240,15)" font-family="sans-serif" font-size="10px" fill="#000" opacity="1">3</text><text text-anchor="middle" transform="translate(270,15)" font-family="sans-serif" font-size="10px" fill="#000" opacity="1">4</text><text text-anchor="end" transform="translate(300,15)" font-family="sans-serif" font-size="10px" fill="#000" opacity="1">5</text></g><g class="mark-rule role-axis-domain" pointer-events="none"><line transform="translate(0,0)" x2="300" y2="0" stroke="#888" stroke-width="1" opacity="1"/></g><g class="mark-text role-axis-title" pointer-events="none"><text text-anchor="middle" transform="translate(150,30)" font-family="sans-serif" font-size="11px" font-weight="bold" fill="#000" opacity="1">x</text></g></g><path class="foreground" aria-hidden="true" d="" pointer-events="none" display="none"/></g></g><g class="mark-group role-axis" role="graphics-symbol" aria-roledescription="axis" aria-label="Y-axis titled 'y, y_lower, y_upper, y_true, y_pred' for a linear scale with values from −1.4 to 1.4"><g transform="translate(0.5,0.5)"><path class="background" aria-hidden="true" d="M0,0h0v0h0Z" pointer-events="none"/><g><g class="mark-rule role-axis-tick" pointer-events="none"><line transform="translate(0,257)" x2="-5" y2="0" stroke="#888" stroke-width="1" opacity="1"/><line transform="translate(0,204)" x2="-5" y2="0" stroke="#888" stroke-width="1" opacity="1"/><line transform="translate(0,150)" x2="-5" y2="0" stroke="#888" stroke-width="1" opacity="1"/><line transform="translate(0,96)" x2="-5" y2="0" stroke="#888" stroke-width="1" opacity="1"/><line transform="translate(0,43)" x2="-5" y2="0" stroke="#888" stroke-width="1" opacity="1"/></g><g class="mark-text role-axis-label" pointer-events="none"><text text-anchor="end" transform="translate(-7,260.14285714285717)" font-family="sans-serif" font-size="10px" fill="#000" opacity="1">−1.0</text><text text-anchor="end" transform="translate(-7,206.57142857142858)" font-family="sans-serif" font-size="10px" fill="#000" opacity="1">−0.5</text><text text-anchor="end" transform="translate(-7,153)" font-family="sans-serif" font-size="10px" fill="#000" opacity="1">0.0</text><text text-anchor="end" transform="translate(-7,99.42857142857142)" font-family="sans-serif" font-size="10px" fill="#000" opacity="1">0.5</text><text text-anchor="end" transform="translate(-7,45.85714285714284)" font-family="sans-serif" font-size="10px" fill="#000" opacity="1">1.0</text></g><g class="mark-rule role-axis-domain" pointer-events="none"><line transform="translate(0,300)" x2="0" y2="-300" stroke="#888" stroke-width="1" opacity="1"/></g><g class="mark-text role-axis-title" pointer-events="none"><text text-anchor="middle" transform="translate(-30.7412109375,150) rotate(-90) translate(0,-2)" font-family="sans-serif" font-size="11px" font-weight="bold" fill="#000" opacity="1">y, y_lower, y_upper, y_true, y_pred</text></g></g><path class="foreground" aria-hidden="true" d="" pointer-events="none" display="none"/></g></g><g class="mark-symbol role-mark layer_0_marks" role="graphics-object" aria-roledescription="symbol mark container"><path aria-label="x: −3; y: −0.894653320313" role="graphics-symbol" aria-roledescription="point" transform="translate(60,245.855712890625)" d="M1.581,0A1.581,1.581,0,1,1,-1.581,0A1.581,1.581,0,1,1,1.581,0" stroke="black" stroke-width="2" opacity="0.3"/><path aria-label="x: −2.96984910965; y: −1.0853818655" role="graphics-symbol" aria-roledescription="point" transform="translate(60.904526710510254,266.2909141608647)" d="M1.581,0A1.581,1.581,0,1,1,-1.581,0A1.581,1.581,0,1,1,1.581,0" stroke="black" stroke-width="2" opacity="0.3"/><path aria-label="x: −2.93969869614; y: −1.06923985481" role="graphics-symbol" aria-roledescription="point" transform="translate(61.80903911590576,264.5614130156381)" d="M1.581,0A1.581,1.581,0,1,1,-1.581,0A1.581,1.581,0,1,1,1.581,0" stroke="black" stroke-width="2" opacity="0.3"/><path aria-label="x: −2.90954780579; y: −1.11121368408" role="graphics-symbol" aria-roledescription="point" transform="translate(62.713565826416016,269.05860900878906)" d="M1.581,0A1.581,1.581,0,1,1,-1.581,0A1.581,1.581,0,1,1,1.581,0" stroke="black" stroke-width="2" opacity="0.3"/><path aria-label="x: −2.87939715385; y: −1.08083343506" role="graphics-symbol" aria-roledescription="point" transform="translate(63.6180853843689,265.80358232770647)" d="M1.581,0A1.581,1.581,0,1,1,-1.581,0A1.581,1.581,0,1,1,1.581,0" stroke="black" stroke-width="2" opacity="0.3"/><path aria-label="x: −2.84924602509; y: −0.934436619282" role="graphics-symbol" aria-roledescription="point" transform="translate(64.52261924743652,250.11820920876093)" d="M1.581,0A1.581,1.581,0,1,1,-1.581,0A1.581,1.581,0,1,1,1.581,0" stroke="black" stroke-width="2" opacity="0.3"/><path aria-label="x: −2.81909561157; y: −0.920513629913" role="graphics-symbol" aria-roledescription="point" transform="translate(65.42713165283203,248.6264603478568)" d="M1.581,0A1.581,1.581,0,1,1,-1.581,0A1.581,1.581,0,1,1,1.581,0" stroke="black" stroke-width="2" opacity="0.3"/><path aria-label="x: −2.78894472122; y: −1.09502732754" role="graphics-symbol" aria-roledescription="point" transform="translate(66.33165836334229,267.32435652187894)" d="M1.581,0A1.581,1.581,0,1,1,-1.581,0A1.581,1.581,0,1,1,1.581,0" stroke="black" stroke-width="2" opacity="0.3"/><path aria-label="x: −2.75879383087; y: −0.825838327408" role="graphics-symbol" aria-roledescription="point" transform="translate(67.23618507385254,238.48267793655396)" d="M1.581,0A1.581,1.581,0,1,1,-1.581,0A1.581,1.581,0,1,1,1.581,0" stroke="black" stroke-width="2" opacity="0.3"/><path aria-label="x: −2.72864317894; y: −1.18060851097" role="graphics-symbol" aria-roledescription="point" transform="translate(68.14070463180542,276.4937690326146)" d="M1.581,0A1.581,1.581,0,1,1,-1.581,0A1.581,1.581,0,1,1,1.581,0" stroke="black" stroke-width="2" opacity="0.3"/><path aria-label="x: −2.69849252701; y: −1.11987388134" role="graphics-symbol" aria-roledescription="point" transform="translate(69.0452241897583,269.98648728643144)" d="M1.581,0A1.581,1.581,0,1,1,-1.581,0A1.581,1.581,0,1,1,1.581,0" stroke="black" stroke-width="2" opacity="0.3"/><path aria-label="x: −2.66834163666; y: −0.977061867714" role="graphics-symbol" aria-roledescription="point" transform="translate(69.94975090026855,254.6852001122066)" d="M1.581,0A1.581,1.581,0,1,1,-1.581,0A1.581,1.581,0,1,1,1.581,0" stroke="black" stroke-width="2" opacity="0.3"/><path aria-label="x: −2.63819098473; y: −1.10513412952" role="graphics-symbol" aria-roledescription="point" transform="translate(70.85427045822144,268.4072281633105)" d="M1.581,0A1.581,1.581,0,1,1,-1.581,0A1.581,1.581,0,1,1,1.581,0" stroke="black" stroke-width="2" opacity="0.3"/><path aria-label="x: −2.60804033279; y: −0.965271890163" role="graphics-symbol" aria-roledescription="point" transform="translate(71.75879001617432,253.42198823179518)" d="M1.581,0A1.581,1.581,0,1,1,-1.581,0A1.581,1.581,0,1,1,1.581,0" stroke="black" stroke-width="2" opacity="0.3"/><path aria-label="x: −2.57788944244; y: −0.814053475857" role="graphics-symbol" aria-roledescription="point" transform="translate(72.66331672668457,237.2200152703694)" d="M1.581,0A1.581,1.581,0,1,1,-1.581,0A1.581,1.581,0,1,1,1.581,0" stroke="black" stroke-width="2" opacity="0.3"/><path aria-label="x: −2.54773879051; y: −0.937323868275" role="graphics-symbol" aria-roledescription="point" transform="translate(73.56783628463745,250.4275573151452)" d="M1.581,0A1.581,1.581,0,1,1,-1.581,0A1.581,1.581,0,1,1,1.581,0" stroke="black" stroke-width="2" opacity="0.3"/><path aria-label="x: −2.51758790016; y: −0.927568733692" role="graphics-symbol" aria-roledescription="point" transform="translate(74.4723629951477,249.382364324161)" d="M1.581,0A1.581,1.581,0,1,1,-1.581,0A1.581,1.581,0,1,1,1.581,0" stroke="black" stroke-width="2" opacity="0.3"/><path aria-label="x: −2.48743724823; y: −1.0335599184" role="graphics-symbol" aria-roledescription="point" transform="translate(75.37688255310059,260.73856268610274)" d="M1.581,0A1.581,1.581,0,1,1,-1.581,0A1.581,1.581,0,1,1,1.581,0" stroke="black" stroke-width="2" opacity="0.3"/><path aria-label="x: −2.45728635788; y: −0.893865525723" role="graphics-symbol" aria-roledescription="point" transform="translate(76.28140926361084,245.7713063274111)" d="M1.581,0A1.581,1.581,0,1,1,-1.581,0A1.581,1.581,0,1,1,1.581,0" stroke="black" stroke-width="2" opacity="0.3"/><path aria-label="x: −2.42713546753; y: −0.948410212994" role="graphics-symbol" aria-roledescription="point" transform="translate(77.1859359741211,251.61537996360235)" d="M1.581,0A1.581,1.581,0,1,1,-1.581,0A1.581,1.581,0,1,1,1.581,0" stroke="black" stroke-width="2" opacity="0.3"/><path aria-label="x: −2.39698505402; y: −1.04699337482" role="graphics-symbol" aria-roledescription="point" transform="translate(78.0904483795166,262.17786158834184)" d="M1.581,0A1.581,1.581,0,1,1,-1.581,0A1.581,1.581,0,1,1,1.581,0" stroke="black" stroke-width="2" opacity="0.3"/><path aria-label="x: −2.36683416367; y: −1.06961405277" role="graphics-symbol" aria-roledescription="point" transform="translate(78.99497509002686,264.6015056541988)" d="M1.581,0A1.581,1.581,0,1,1,-1.581,0A1.581,1.581,0,1,1,1.581,0" stroke="black" stroke-width="2" opacity="0.3"/><path aria-label="x: −2.33668327332; y: −0.905652463436" role="graphics-symbol" aria-roledescription="point" transform="translate(79.89950180053711,247.0341925110136)" d="M1.581,0A1.581,1.581,0,1,1,-1.581,0A1.581,1.581,0,1,1,1.581,0" stroke="black" stroke-width="2" opacity="0.3"/><path aria-label="x: −2.3065328598; y: −0.874066889286" role="graphics-symbol" aria-roledescription="point" transform="translate(80.80401420593262,243.65002385207586)" d="M1.581,0A1.581,1.581,0,1,1,-1.581,0A1.581,1.581,0,1,1,1.581,0" stroke="black" stroke-width="2" opacity="0.3"/><path aria-label="x: −2.27638196945; y: −0.888308107853" role="graphics-symbol" aria-roledescription="point" transform="translate(81.70854091644287,245.17586869852886)" d="M1.581,0A1.581,1.581,0,1,1,-1.581,0A1.581,1.581,0,1,1,1.581,0" stroke="black" stroke-width="2" opacity="0.3"/><path aria-label="x: −2.2462310791; y: −1.02709376812" role="graphics-symbol" aria-roledescription="point" transform="translate(82.61306762695312,260.04576086997986)" d="M1.581,0A1.581,1.581,0,1,1,-1.581,0A1.581,1.581,0,1,1,1.581,0" stroke="black" stroke-width="2" opacity="0.3"/><path aria-label="x: −2.21608066559; y: −0.88765257597" role="graphics-symbol" aria-roledescription="point" transform="translate(83.51758003234863,245.1056331396103)" d="M1.581,0A1.581,1.581,0,1,1,-1.581,0A1.581,1.581,0,1,1,1.581,0" stroke="black" stroke-width="2" opacity="0.3"/><path aria-label="x: −2.18592953682; y: −0.810520350933" role="graphics-symbol" aria-roledescription="point" transform="translate(84.42211389541626,236.8414661714009)" d="M1.581,0A1.581,1.581,0,1,1,-1.581,0A1.581,1.581,0,1,1,1.581,0" stroke="black" stroke-width="2" opacity="0.3"/><path aria-label="x: −2.15577888489; y: −1.2251162529" role="graphics-symbol" aria-roledescription="point" transform="translate(85.32663345336914,281.2624556677682)" d="M1.581,0A1.581,1.581,0,1,1,-1.581,0A1.581,1.581,0,1,1,1.581,0" stroke="black" stroke-width="2" opacity="0.3"/><path aria-label="x: −2.12562799454; y: −0.927729427814" role="graphics-symbol" aria-roledescription="point" transform="translate(86.2311601638794,249.39958155155182)" d="M1.581,0A1.581,1.581,0,1,1,-1.581,0A1.581,1.581,0,1,1,1.581,0" stroke="black" stroke-width="2" opacity="0.3"/><path aria-label="x: −2.09547734261; y: −0.788456082344" role="graphics-symbol" aria-roledescription="point" transform="translate(87.13567972183228,234.4774373940059)" d="M1.581,0A1.581,1.581,0,1,1,-1.581,0A1.581,1.581,0,1,1,1.581,0" stroke="black" stroke-width="2" opacity="0.3"/><path aria-label="x: −2.06532669067; y: −1.08567762375" role="graphics-symbol" aria-roledescription="point" transform="translate(88.04019927978516,266.32260254451205)" d="M1.581,0A1.581,1.581,0,1,1,-1.581,0A1.581,1.581,0,1,1,1.581,0" stroke="black" stroke-width="2" opacity="0.3"/><path aria-label="x: −2.03517580032; y: −1.02530193329" role="graphics-symbol" aria-roledescription="point" transform="translate(88.94472599029541,259.85377856663297)" d="M1.581,0A1.581,1.581,0,1,1,-1.581,0A1.581,1.581,0,1,1,1.581,0" stroke="black" stroke-width="2" opacity="0.3"/><path aria-label="x: −2.00502538681; y: −0.749682366848" role="graphics-symbol" aria-roledescription="point" transform="translate(89.84923839569092,230.32311073371343)" d="M1.581,0A1.581,1.581,0,1,1,-1.581,0A1.581,1.581,0,1,1,1.581,0" stroke="black" stroke-width="2" opacity="0.3"/><path aria-label="x: −1.97487449646; y: −0.882020711899" role="graphics-symbol" aria-roledescription="point" transform="translate(90.75376510620117,244.5022191320147)" d="M1.581,0A1.581,1.581,0,1,1,-1.581,0A1.581,1.581,0,1,1,1.581,0" stroke="black" stroke-width="2" opacity="0.3"/><path aria-label="x: −1.94472360611; y: −0.979652225971" role="graphics-symbol" aria-roledescription="point" transform="translate(91.65829181671143,254.96273849691664)" d="M1.581,0A1.581,1.581,0,1,1,-1.581,0A1.581,1.581,0,1,1,1.581,0" stroke="black" stroke-width="2" opacity="0.3"/><path aria-label="x: −1.91457283497; y: −1.13144826889" role="graphics-symbol" aria-roledescription="point" transform="translate(92.562814950943,271.2266002382551)" d="M1.581,0A1.581,1.581,0,1,1,-1.581,0A1.581,1.581,0,1,1,1.581,0" stroke="black" stroke-width="2" opacity="0.3"/><path aria-label="x: −1.88442218304; y: −1.03702580929" role="graphics-symbol" aria-roledescription="point" transform="translate(93.46733450889587,261.10990813800265)" d="M1.581,0A1.581,1.581,0,1,1,-1.581,0A1.581,1.581,0,1,1,1.581,0" stroke="black" stroke-width="2" opacity="0.3"/><path aria-label="x: −1.8542714119; y: −1.18841433525" role="graphics-symbol" aria-roledescription="point" transform="translate(94.37185764312744,277.33010734830583)" d="M1.581,0A1.581,1.581,0,1,1,-1.581,0A1.581,1.581,0,1,1,1.581,0" stroke="black" stroke-width="2" opacity="0.3"/><path aria-label="x: −1.82412064075; y: −0.793982744217" role="graphics-symbol" aria-roledescription="point" transform="translate(95.27638077735901,235.06957973752702)" d="M1.581,0A1.581,1.581,0,1,1,-1.581,0A1.581,1.581,0,1,1,1.581,0" stroke="black" stroke-width="2" opacity="0.3"/><path aria-label="x: −1.7939697504; y: −0.805635213852" role="graphics-symbol" aria-roledescription="point" transform="translate(96.18090748786926,236.31805862699235)" d="M1.581,0A1.581,1.581,0,1,1,-1.581,0A1.581,1.581,0,1,1,1.581,0" stroke="black" stroke-width="2" opacity="0.3"/><path aria-label="x: −1.76381921768; y: −0.90789014101" role="graphics-symbol" aria-roledescription="point" transform="translate(97.08542346954346,247.27394367967332)" d="M1.581,0A1.581,1.581,0,1,1,-1.581,0A1.581,1.581,0,1,1,1.581,0" stroke="black" stroke-width="2" opacity="0.3"/><path aria-label="x: −1.73366832733; y: −0.933241486549" role="graphics-symbol" aria-roledescription="point" transform="translate(97.98995018005371,249.99015927314758)" d="M1.581,0A1.581,1.581,0,1,1,-1.581,0A1.581,1.581,0,1,1,1.581,0" stroke="black" stroke-width="2" opacity="0.3"/><path aria-label="x: −1.70351755619; y: −0.821143388748" role="graphics-symbol" aria-roledescription="point" transform="translate(98.89447331428528,237.97964879444666)" d="M1.581,0A1.581,1.581,0,1,1,-1.581,0A1.581,1.581,0,1,1,1.581,0" stroke="black" stroke-width="2" opacity="0.3"/><path aria-label="x: −1.67336690426; y: −0.953240990639" role="graphics-symbol" aria-roledescription="point" transform="translate(99.79899287223816,252.1329632827214)" d="M1.581,0A1.581,1.581,0,1,1,-1.581,0A1.581,1.581,0,1,1,1.581,0" stroke="black" stroke-width="2" opacity="0.3"/><path aria-label="x: −1.64321613312; y: −0.961888253689" role="graphics-symbol" aria-roledescription="point" transform="translate(100.70351600646973,253.05945575237274)" d="M1.581,0A1.581,1.581,0,1,1,-1.581,0A1.581,1.581,0,1,1,1.581,0" stroke="black" stroke-width="2" opacity="0.3"/><path aria-label="x: −1.6130656004; y: −0.854726433754" role="graphics-symbol" aria-roledescription="point" transform="translate(101.60803198814392,241.57783218792505)" d="M1.581,0A1.581,1.581,0,1,1,-1.581,0A1.581,1.581,0,1,1,1.581,0" stroke="black" stroke-width="2" opacity="0.3"/><path aria-label="x: −1.58291447163; y: −0.952979683876" role="graphics-symbol" aria-roledescription="point" transform="translate(102.51256585121155,252.10496612957544)" d="M1.581,0A1.581,1.581,0,1,1,-1.581,0A1.581,1.581,0,1,1,1.581,0" stroke="black" stroke-width="2" opacity="0.3"/><path aria-label="x: −1.5527639389; y: −0.865039885044" role="graphics-symbol" aria-roledescription="point" transform="translate(103.41708183288574,242.68284482615337)" d="M1.581,0A1.581,1.581,0,1,1,-1.581,0A1.581,1.581,0,1,1,1.581,0" stroke="black" stroke-width="2" opacity="0.3"/><path aria-label="x: −1.52261304855; y: −0.88799238205" role="graphics-symbol" aria-roledescription="point" transform="translate(104.321608543396,245.14204093388147)" d="M1.581,0A1.581,1.581,0,1,1,-1.581,0A1.581,1.581,0,1,1,1.581,0" stroke="black" stroke-width="2" opacity="0.3"/><path aria-label="x: −1.49246227741; y: −1.08503746986" role="graphics-symbol" aria-roledescription="point" transform="translate(105.22613167762756,266.2540146282741)" d="M1.581,0A1.581,1.581,0,1,1,-1.581,0A1.581,1.581,0,1,1,1.581,0" stroke="black" stroke-width="2" opacity="0.3"/><path aria-label="x: −1.46231162548; y: −0.709683537483" role="graphics-symbol" aria-roledescription="point" transform="translate(106.13065123558044,226.03752187320165)" d="M1.581,0A1.581,1.581,0,1,1,-1.581,0A1.581,1.581,0,1,1,1.581,0" stroke="black" stroke-width="2" opacity="0.3"/><path aria-label="x: −1.43216085434; y: −0.807590842247" role="graphics-symbol" aria-roledescription="point" transform="translate(107.03517436981201,236.52759024075098)" d="M1.581,0A1.581,1.581,0,1,1,-1.581,0A1.581,1.581,0,1,1,1.581,0" stroke="black" stroke-width="2" opacity="0.3"/><path aria-label="x: −1.4020100832; y: −0.717007160187" role="graphics-symbol" aria-roledescription="point" transform="translate(107.93969750404358,226.8221957342965)" d="M1.581,0A1.581,1.581,0,1,1,-1.581,0A1.581,1.581,0,1,1,1.581,0" stroke="black" stroke-width="2" opacity="0.3"/><path aria-label="x: −1.37185943127; y: −0.714496254921" role="graphics-symbol" aria-roledescription="point" transform="translate(108.84421706199646,226.5531701701028)" d="M1.581,0A1.581,1.581,0,1,1,-1.581,0A1.581,1.581,0,1,1,1.581,0" stroke="black" stroke-width="2" opacity="0.3"/><path aria-label="x: −1.34170866013; y: −0.949242413044" role="graphics-symbol" aria-roledescription="point" transform="translate(109.74874019622803,251.70454425471172)" d="M1.581,0A1.581,1.581,0,1,1,-1.581,0A1.581,1.581,0,1,1,1.581,0" stroke="black" stroke-width="2" opacity="0.3"/><path aria-label="x: −1.31155776978; y: −0.743804454803" role="graphics-symbol" aria-roledescription="point" transform="translate(110.65326690673828,229.6933344432286)" d="M1.581,0A1.581,1.581,0,1,1,-1.581,0A1.581,1.581,0,1,1,1.581,0" stroke="black" stroke-width="2" opacity="0.3"/><path aria-label="x: −1.28140723705; y: −0.953978776932" role="graphics-symbol" aria-roledescription="point" transform="translate(111.55778288841248,252.21201181411743)" d="M1.581,0A1.581,1.581,0,1,1,-1.581,0A1.581,1.581,0,1,1,1.581,0" stroke="black" stroke-width="2" opacity="0.3"/><path aria-label="x: −1.25125622749; y: −0.741539895535" role="graphics-symbol" aria-roledescription="point" transform="translate(112.46231317520142,229.45070309298382)" d="M1.581,0A1.581,1.581,0,1,1,-1.581,0A1.581,1.581,0,1,1,1.581,0" stroke="black" stroke-width="2" opacity="0.3"/><path aria-label="x: −1.22110557556; y: −0.857699275017" role="graphics-symbol" aria-roledescription="point" transform="translate(113.3668327331543,241.8963508946555)" d="M1.581,0A1.581,1.581,0,1,1,-1.581,0A1.581,1.581,0,1,1,1.581,0" stroke="black" stroke-width="2" opacity="0.3"/><path aria-label="x: −1.19095480442; y: −0.744502067566" role="graphics-symbol" aria-roledescription="point" transform="translate(114.27135586738586,229.76807866777693)" d="M1.581,0A1.581,1.581,0,1,1,-1.581,0A1.581,1.581,0,1,1,1.581,0" stroke="black" stroke-width="2" opacity="0.3"/><path aria-label="x: −1.16080391407; y: −0.780781567097" role="graphics-symbol" aria-roledescription="point" transform="translate(115.17588257789612,233.65516790321894)" d="M1.581,0A1.581,1.581,0,1,1,-1.581,0A1.581,1.581,0,1,1,1.581,0" stroke="black" stroke-width="2" opacity="0.3"/><path aria-label="x: −1.13065338135; y: −0.87333124876" role="graphics-symbol" aria-roledescription="point" transform="translate(116.08039855957031,243.57120522430964)" d="M1.581,0A1.581,1.581,0,1,1,-1.581,0A1.581,1.581,0,1,1,1.581,0" stroke="black" stroke-width="2" opacity="0.3"/><path aria-label="x: −1.100502491; y: −0.777640104294" role="graphics-symbol" aria-roledescription="point" transform="translate(116.98492527008057,233.31858260290966)" d="M1.581,0A1.581,1.581,0,1,1,-1.581,0A1.581,1.581,0,1,1,1.581,0" stroke="black" stroke-width="2" opacity="0.3"/><path aria-label="x: −1.07035171986; y: −1.03792476654" role="graphics-symbol" aria-roledescription="point" transform="translate(117.88944840431213,261.2062249864851)" d="M1.581,0A1.581,1.581,0,1,1,-1.581,0A1.581,1.581,0,1,1,1.581,0" stroke="black" stroke-width="2" opacity="0.3"/><path aria-label="x: −1.04020118713; y: −0.849463880062" role="graphics-symbol" aria-roledescription="point" transform="translate(118.79396438598633,241.01398714951105)" d="M1.581,0A1.581,1.581,0,1,1,-1.581,0A1.581,1.581,0,1,1,1.581,0" stroke="black" stroke-width="2" opacity="0.3"/><path aria-label="x: −1.01005029678; y: −0.784525930882" role="graphics-symbol" aria-roledescription="point" transform="translate(119.69849109649658,234.0563497373036)" d="M1.581,0A1.581,1.581,0,1,1,-1.581,0A1.581,1.581,0,1,1,1.581,0" stroke="black" stroke-width="2" opacity="0.3"/><path aria-label="x: −0.979899585247; y: −0.51453769207" role="graphics-symbol" aria-roledescription="point" transform="translate(120.6030124425888,205.12903843607222)" d="M1.581,0A1.581,1.581,0,1,1,-1.581,0A1.581,1.581,0,1,1,1.581,0" stroke="black" stroke-width="2" opacity="0.3"/><path aria-label="x: −0.949748814106; y: −0.91927331686" role="graphics-symbol" aria-roledescription="point" transform="translate(121.50753557682037,248.49356966359275)" d="M1.581,0A1.581,1.581,0,1,1,-1.581,0A1.581,1.581,0,1,1,1.581,0" stroke="black" stroke-width="2" opacity="0.3"/><path aria-label="x: −0.91959798336; y: −0.829338431358" role="graphics-symbol" aria-roledescription="point" transform="translate(122.41206049919128,238.85768907410758)" d="M1.581,0A1.581,1.581,0,1,1,-1.581,0A1.581,1.581,0,1,1,1.581,0" stroke="black" stroke-width="2" opacity="0.3"/><path aria-label="x: −0.889447271824; y: −0.837922096252" role="graphics-symbol" aria-roledescription="point" transform="translate(123.31658184528351,239.77736745561873)" d="M1.581,0A1.581,1.581,0,1,1,-1.581,0A1.581,1.581,0,1,1,1.581,0" stroke="black" stroke-width="2" opacity="0.3"/><path aria-label="x: −0.859296441078; y: −0.845971345901" role="graphics-symbol" aria-roledescription="point" transform="translate(124.22110676765442,240.63978706087386)" d="M1.581,0A1.581,1.581,0,1,1,-1.581,0A1.581,1.581,0,1,1,1.581,0" stroke="black" stroke-width="2" opacity="0.3"/><path aria-label="x: −0.829145848751; y: −0.671495378017" role="graphics-symbol" aria-roledescription="point" transform="translate(125.12562453746796,221.94593335900987)" d="M1.581,0A1.581,1.581,0,1,1,-1.581,0A1.581,1.581,0,1,1,1.581,0" stroke="black" stroke-width="2" opacity="0.3"/><path aria-label="x: −0.798995018005; y: −0.48332464695" role="graphics-symbol" aria-roledescription="point" transform="translate(126.03014945983887,201.78478360176086)" d="M1.581,0A1.581,1.581,0,1,1,-1.581,0A1.581,1.581,0,1,1,1.581,0" stroke="black" stroke-width="2" opacity="0.3"/><path aria-label="x: −0.768844246864; y: −0.518487095833" role="graphics-symbol" aria-roledescription="point" transform="translate(126.93467259407043,205.5521888392312)" d="M1.581,0A1.581,1.581,0,1,1,-1.581,0A1.581,1.581,0,1,1,1.581,0" stroke="black" stroke-width="2" opacity="0.3"/><path aria-label="x: −0.738693654537; y: −0.579135894775" role="graphics-symbol" aria-roledescription="point" transform="translate(127.83919036388397,212.05027444022045)" d="M1.581,0A1.581,1.581,0,1,1,-1.581,0A1.581,1.581,0,1,1,1.581,0" stroke="black" stroke-width="2" opacity="0.3"/><path aria-label="x: −0.708542823792; y: −0.556814074516" role="graphics-symbol" aria-roledescription="point" transform="translate(128.74371528625488,209.65865084103174)" d="M1.581,0A1.581,1.581,0,1,1,-1.581,0A1.581,1.581,0,1,1,1.581,0" stroke="black" stroke-width="2" opacity="0.3"/><path aria-label="x: −0.678391993046; y: −0.521378755569" role="graphics-symbol" aria-roledescription="point" transform="translate(129.6482402086258,205.86200952529907)" d="M1.581,0A1.581,1.581,0,1,1,-1.581,0A1.581,1.581,0,1,1,1.581,0" stroke="black" stroke-width="2" opacity="0.3"/><path aria-label="x: −0.648241281509; y: −0.485676974058" role="graphics-symbol" aria-roledescription="point" transform="translate(130.55276155471802,202.03681864908762)" d="M1.581,0A1.581,1.581,0,1,1,-1.581,0A1.581,1.581,0,1,1,1.581,0" stroke="black" stroke-width="2" opacity="0.3"/><path aria-label="x: −0.618090450764; y: −0.562626123428" role="graphics-symbol" aria-roledescription="point" transform="translate(131.45728647708893,210.28137036732264)" d="M1.581,0A1.581,1.581,0,1,1,-1.581,0A1.581,1.581,0,1,1,1.581,0" stroke="black" stroke-width="2" opacity="0.3"/><path aria-label="x: −0.587939739227; y: −0.595287501812" role="graphics-symbol" aria-roledescription="point" transform="translate(132.36180782318115,213.7808037655694)" d="M1.581,0A1.581,1.581,0,1,1,-1.581,0A1.581,1.581,0,1,1,1.581,0" stroke="black" stroke-width="2" opacity="0.3"/><path aria-label="x: −0.557788968086; y: −0.357349097729" role="graphics-symbol" aria-roledescription="point" transform="translate(133.26633095741272,188.28740332807814)" d="M1.581,0A1.581,1.581,0,1,1,-1.581,0A1.581,1.581,0,1,1,1.581,0" stroke="black" stroke-width="2" opacity="0.3"/><path aria-label="x: −0.527638137341; y: −0.500023305416" role="graphics-symbol" aria-roledescription="point" transform="translate(134.17085587978363,203.57392558029719)" d="M1.581,0A1.581,1.581,0,1,1,-1.581,0A1.581,1.581,0,1,1,1.581,0" stroke="black" stroke-width="2" opacity="0.3"/><path aria-label="x: −0.497487545013; y: −0.638768911362" role="graphics-symbol" aria-roledescription="point" transform="translate(135.07537364959717,218.43952621732439)" d="M1.581,0A1.581,1.581,0,1,1,-1.581,0A1.581,1.581,0,1,1,1.581,0" stroke="black" stroke-width="2" opacity="0.3"/><path aria-label="x: −0.467336714268; y: −0.497028231621" role="graphics-symbol" aria-roledescription="point" transform="translate(135.97989857196808,203.25302481651306)" d="M1.581,0A1.581,1.581,0,1,1,-1.581,0A1.581,1.581,0,1,1,1.581,0" stroke="black" stroke-width="2" opacity="0.3"/><path aria-label="x: −0.437186151743; y: −0.2224021703" role="graphics-symbol" aria-roledescription="point" transform="translate(136.88441544771194,173.82880396076612)" d="M1.581,0A1.581,1.581,0,1,1,-1.581,0A1.581,1.581,0,1,1,1.581,0" stroke="black" stroke-width="2" opacity="0.3"/><path aria-label="x: −0.407035320997; y: −0.423238039017" role="graphics-symbol" aria-roledescription="point" transform="translate(137.78894037008286,195.34693275179183)" d="M1.581,0A1.581,1.581,0,1,1,-1.581,0A1.581,1.581,0,1,1,1.581,0" stroke="black" stroke-width="2" opacity="0.3"/><path aria-label="x: −0.376884490252; y: −0.0911483466625" role="graphics-symbol" aria-roledescription="point" transform="translate(138.69346529245377,159.76589428527012)" d="M1.581,0A1.581,1.581,0,1,1,-1.581,0A1.581,1.581,0,1,1,1.581,0" stroke="black" stroke-width="2" opacity="0.3"/><path aria-label="x: −0.346733808517; y: −0.385901838541" role="graphics-symbol" aria-roledescription="point" transform="translate(139.59798574447632,191.34662555796757)" d="M1.581,0A1.581,1.581,0,1,1,-1.581,0A1.581,1.581,0,1,1,1.581,0" stroke="black" stroke-width="2" opacity="0.3"/><path aria-label="x: −0.316582977772; y: −0.16913677752" role="graphics-symbol" aria-roledescription="point" transform="translate(140.50251066684723,168.12179759144783)" d="M1.581,0A1.581,1.581,0,1,1,-1.581,0A1.581,1.581,0,1,1,1.581,0" stroke="black" stroke-width="2" opacity="0.3"/><path aria-label="x: −0.286432147026; y: −0.360665559769" role="graphics-symbol" aria-roledescription="point" transform="translate(141.40703558921814,188.64273854664393)" d="M1.581,0A1.581,1.581,0,1,1,-1.581,0A1.581,1.581,0,1,1,1.581,0" stroke="black" stroke-width="2" opacity="0.3"/><path aria-label="x: −0.25628143549; y: −0.133280992508" role="graphics-symbol" aria-roledescription="point" transform="translate(142.31155693531036,164.28010634013586)" d="M1.581,0A1.581,1.581,0,1,1,-1.581,0A1.581,1.581,0,1,1,1.581,0" stroke="black" stroke-width="2" opacity="0.3"/><path aria-label="x: −0.226130634546; y: −0.189114749432" role="graphics-symbol" aria-roledescription="point" transform="translate(143.2160809636116,170.2622945819582)" d="M1.581,0A1.581,1.581,0,1,1,-1.581,0A1.581,1.581,0,1,1,1.581,0" stroke="black" stroke-width="2" opacity="0.3"/><path aria-label="x: −0.195980042219; y: −0.179086431861" role="graphics-symbol" aria-roledescription="point" transform="translate(144.12059873342514,169.18783198509897)" d="M1.581,0A1.581,1.581,0,1,1,-1.581,0A1.581,1.581,0,1,1,1.581,0" stroke="black" stroke-width="2" opacity="0.3"/><path aria-label="x: −0.165829226375; y: 0.0210555940866" role="graphics-symbol" aria-roledescription="point" transform="translate(145.02512320876122,147.7440434907164)" d="M1.581,0A1.581,1.581,0,1,1,-1.581,0A1.581,1.581,0,1,1,1.581,0" stroke="black" stroke-width="2" opacity="0.3"/><path aria-label="x: −0.135678395629; y: −0.174912646413" role="graphics-symbol" aria-roledescription="point" transform="translate(145.92964813113213,168.740640687091)" d="M1.581,0A1.581,1.581,0,1,1,-1.581,0A1.581,1.581,0,1,1,1.581,0" stroke="black" stroke-width="2" opacity="0.3"/><path aria-label="x: −0.105527818203; y: −0.248017132282" role="graphics-symbol" aria-roledescription="point" transform="translate(146.83416545391083,176.57326417309895)" d="M1.581,0A1.581,1.581,0,1,1,-1.581,0A1.581,1.581,0,1,1,1.581,0" stroke="black" stroke-width="2" opacity="0.3"/><path aria-label="x: −0.0753769949079; y: −0.00756651163101" role="graphics-symbol" aria-roledescription="point" transform="translate(147.73869015276432,150.81069767475128)" d="M1.581,0A1.581,1.581,0,1,1,-1.581,0A1.581,1.581,0,1,1,1.581,0" stroke="black" stroke-width="2" opacity="0.3"/><path aria-label="x: −0.0452262945473; y: −0.0768021643162" role="graphics-symbol" aria-roledescription="point" transform="translate(148.64321116358042,158.22880331959044)" d="M1.581,0A1.581,1.581,0,1,1,-1.581,0A1.581,1.581,0,1,1,1.581,0" stroke="black" stroke-width="2" opacity="0.3"/><path aria-label="x: −0.0150754731148; y: −0.14023207128" role="graphics-symbol" aria-roledescription="point" transform="translate(149.54773580655456,165.02486478005136)" d="M1.581,0A1.581,1.581,0,1,1,-1.581,0A1.581,1.581,0,1,1,1.581,0" stroke="black" stroke-width="2" opacity="0.3"/><path aria-label="x: 0.0150752291083; y: −0.257933557034" role="graphics-symbol" aria-roledescription="point" transform="translate(150.45225687325,177.63573825359344)" d="M1.581,0A1.581,1.581,0,1,1,-1.581,0A1.581,1.581,0,1,1,1.581,0" stroke="black" stroke-width="2" opacity="0.3"/><path aria-label="x: 0.0452260524035; y: 0.0796823948622" role="graphics-symbol" aria-roledescription="point" transform="translate(151.3567815721035,141.46260055048126)" d="M1.581,0A1.581,1.581,0,1,1,-1.581,0A1.581,1.581,0,1,1,1.581,0" stroke="black" stroke-width="2" opacity="0.3"/><path aria-label="x: 0.075376868248; y: 0.0239791609347" role="graphics-symbol" aria-roledescription="point" transform="translate(152.26130604743958,147.4308041855693)" d="M1.581,0A1.581,1.581,0,1,1,-1.581,0A1.581,1.581,0,1,1,1.581,0" stroke="black" stroke-width="2" opacity="0.3"/><path aria-label="x: 0.105527572334; y: 0.32250508666" role="graphics-symbol" aria-roledescription="point" transform="translate(153.16582717001438,115.4458835721016)" d="M1.581,0A1.581,1.581,0,1,1,-1.581,0A1.581,1.581,0,1,1,1.581,0" stroke="black" stroke-width="2" opacity="0.3"/><path aria-label="x: 0.13567827642; y: 0.0324996039271" role="graphics-symbol" aria-roledescription="point" transform="translate(154.0703482925892,146.5178995792355)" d="M1.581,0A1.581,1.581,0,1,1,-1.581,0A1.581,1.581,0,1,1,1.581,0" stroke="black" stroke-width="2" opacity="0.3"/><path aria-label="x: 0.165829092264; y: 0.286345213652" role="graphics-symbol" aria-roledescription="point" transform="translate(154.97487276792526,119.3201556801796)" d="M1.581,0A1.581,1.581,0,1,1,-1.581,0A1.581,1.581,0,1,1,1.581,0" stroke="black" stroke-width="2" opacity="0.3"/><path aria-label="x: 0.195979803801; y: 0.120707504451" role="graphics-symbol" aria-roledescription="point" transform="translate(155.8793941140175,137.06705309450626)" d="M1.581,0A1.581,1.581,0,1,1,-1.581,0A1.581,1.581,0,1,1,1.581,0" stroke="black" stroke-width="2" opacity="0.3"/><path aria-label="x: 0.226130500436; y: 0.096229031682" role="graphics-symbol" aria-roledescription="point" transform="translate(156.78391501307487,139.68974660549844)" d="M1.581,0A1.581,1.581,0,1,1,-1.581,0A1.581,1.581,0,1,1,1.581,0" stroke="black" stroke-width="2" opacity="0.3"/><path aria-label="x: 0.25628131628; y: 0.268478989601" role="graphics-symbol" aria-roledescription="point" transform="translate(157.68843948841095,121.23439397130694)" d="M1.581,0A1.581,1.581,0,1,1,-1.581,0A1.581,1.581,0,1,1,1.581,0" stroke="black" stroke-width="2" opacity="0.3"/><path aria-label="x: 0.286432147026; y: 0.214595615864" role="graphics-symbol" aria-roledescription="point" transform="translate(158.59296441078186,127.00761258602142)" d="M1.581,0A1.581,1.581,0,1,1,-1.581,0A1.581,1.581,0,1,1,1.581,0" stroke="black" stroke-width="2" opacity="0.3"/><path aria-label="x: 0.316582858562; y: 0.39204955101" role="graphics-symbol" aria-roledescription="point" transform="translate(159.49748575687408,107.99469096320014)" d="M1.581,0A1.581,1.581,0,1,1,-1.581,0A1.581,1.581,0,1,1,1.581,0" stroke="black" stroke-width="2" opacity="0.3"/><path aria-label="x: 0.346733540297; y: 0.410941511393" role="graphics-symbol" aria-roledescription="point" transform="translate(160.40200620889664,105.97055235079355)" d="M1.581,0A1.581,1.581,0,1,1,-1.581,0A1.581,1.581,0,1,1,1.581,0" stroke="black" stroke-width="2" opacity="0.3"/><path aria-label="x: 0.376884371042; y: 0.339648216963" role="graphics-symbol" aria-roledescription="point" transform="translate(161.30653113126755,113.60911961112704)" d="M1.581,0A1.581,1.581,0,1,1,-1.581,0A1.581,1.581,0,1,1,1.581,0" stroke="black" stroke-width="2" opacity="0.3"/><path aria-label="x: 0.407035082579; y: 0.551530301571" role="graphics-symbol" aria-roledescription="point" transform="translate(162.21105247735977,90.90746768883295)" d="M1.581,0A1.581,1.581,0,1,1,-1.581,0A1.581,1.581,0,1,1,1.581,0" stroke="black" stroke-width="2" opacity="0.3"/><path aria-label="x: 0.437185883522; y: 0.243089273572" role="graphics-symbol" aria-roledescription="point" transform="translate(163.115576505661,123.9547206887177)" d="M1.581,0A1.581,1.581,0,1,1,-1.581,0A1.581,1.581,0,1,1,1.581,0" stroke="black" stroke-width="2" opacity="0.3"/><path aria-label="x: 0.467336595058; y: 0.49875587225" role="graphics-symbol" aria-roledescription="point" transform="translate(164.02009785175323,96.56187083039966)" d="M1.581,0A1.581,1.581,0,1,1,-1.581,0A1.581,1.581,0,1,1,1.581,0" stroke="black" stroke-width="2" opacity="0.3"/><path aria-label="x: 0.497487306595; y: 0.571292161942" role="graphics-symbol" aria-roledescription="point" transform="translate(164.92461919784546,88.79012550626483)" d="M1.581,0A1.581,1.581,0,1,1,-1.581,0A1.581,1.581,0,1,1,1.581,0" stroke="black" stroke-width="2" opacity="0.3"/><path aria-label="x: 0.527638018131; y: 0.52882963419" role="graphics-symbol" aria-roledescription="point" transform="translate(165.82914054393768,93.33968205111366)" d="M1.581,0A1.581,1.581,0,1,1,-1.581,0A1.581,1.581,0,1,1,1.581,0" stroke="black" stroke-width="2" opacity="0.3"/><path aria-label="x: 0.557788848877; y: 0.626009225845" role="graphics-symbol" aria-roledescription="point" transform="translate(166.7336654663086,82.92758294514246)" d="M1.581,0A1.581,1.581,0,1,1,-1.581,0A1.581,1.581,0,1,1,1.581,0" stroke="black" stroke-width="2" opacity="0.3"/><path aria-label="x: 0.587939620018; y: 0.500097990036" role="graphics-symbol" aria-roledescription="point" transform="translate(167.63818860054016,96.41807249614172)" d="M1.581,0A1.581,1.581,0,1,1,-1.581,0A1.581,1.581,0,1,1,1.581,0" stroke="black" stroke-width="2" opacity="0.3"/><path aria-label="x: 0.618090331554; y: 0.383230626583" role="graphics-symbol" aria-roledescription="point" transform="translate(168.54270994663239,108.93957572323933)" d="M1.581,0A1.581,1.581,0,1,1,-1.581,0A1.581,1.581,0,1,1,1.581,0" stroke="black" stroke-width="2" opacity="0.3"/><path aria-label="x: 0.648241043091; y: 0.573636293411" role="graphics-symbol" aria-roledescription="point" transform="translate(169.4472312927246,88.53896856307983)" d="M1.581,0A1.581,1.581,0,1,1,-1.581,0A1.581,1.581,0,1,1,1.581,0" stroke="black" stroke-width="2" opacity="0.3"/><path aria-label="x: 0.678391873837; y: 0.516038477421" role="graphics-symbol" aria-roledescription="point" transform="translate(170.35175621509552,94.71016313348498)" d="M1.581,0A1.581,1.581,0,1,1,-1.581,0A1.581,1.581,0,1,1,1.581,0" stroke="black" stroke-width="2" opacity="0.3"/><path aria-label="x: 0.708542704582; y: 0.739360570908" role="graphics-symbol" aria-roledescription="point" transform="translate(171.25628113746643,70.78279597418647)" d="M1.581,0A1.581,1.581,0,1,1,-1.581,0A1.581,1.581,0,1,1,1.581,0" stroke="black" stroke-width="2" opacity="0.3"/><path aria-label="x: 0.738693416119; y: 0.72654402256" role="graphics-symbol" aria-roledescription="point" transform="translate(172.16080248355865,72.15599758284431)" d="M1.581,0A1.581,1.581,0,1,1,-1.581,0A1.581,1.581,0,1,1,1.581,0" stroke="black" stroke-width="2" opacity="0.3"/><path aria-label="x: 0.76884406805; y: 0.619955062866" role="graphics-symbol" aria-roledescription="point" transform="translate(173.06532204151154,83.57624326433454)" d="M1.581,0A1.581,1.581,0,1,1,-1.581,0A1.581,1.581,0,1,1,1.581,0" stroke="black" stroke-width="2" opacity="0.3"/><path aria-label="x: 0.798994898796; y: 0.758117139339" role="graphics-symbol" aria-roledescription="point" transform="translate(173.96984696388245,68.77316364220209)" d="M1.581,0A1.581,1.581,0,1,1,-1.581,0A1.581,1.581,0,1,1,1.581,0" stroke="black" stroke-width="2" opacity="0.3"/><path aria-label="x: 0.829145610332; y: 0.647667765617" role="graphics-symbol" aria-roledescription="point" transform="translate(174.87436830997467,80.60702511242457)" d="M1.581,0A1.581,1.581,0,1,1,-1.581,0A1.581,1.581,0,1,1,1.581,0" stroke="black" stroke-width="2" opacity="0.3"/><path aria-label="x: 0.859296321869; y: 0.561817407608" role="graphics-symbol" aria-roledescription="point" transform="translate(175.7788896560669,89.80527775628224)" d="M1.581,0A1.581,1.581,0,1,1,-1.581,0A1.581,1.581,0,1,1,1.581,0" stroke="black" stroke-width="2" opacity="0.3"/><path aria-label="x: 0.889447152615; y: 0.633892059326" role="graphics-symbol" aria-roledescription="point" transform="translate(176.6834145784378,82.08299364362445)" d="M1.581,0A1.581,1.581,0,1,1,-1.581,0A1.581,1.581,0,1,1,1.581,0" stroke="black" stroke-width="2" opacity="0.3"/><path aria-label="x: 0.919597864151; y: 0.809197425842" role="graphics-symbol" aria-roledescription="point" transform="translate(177.58793592453003,63.300275802612305)" d="M1.581,0A1.581,1.581,0,1,1,-1.581,0A1.581,1.581,0,1,1,1.581,0" stroke="black" stroke-width="2" opacity="0.3"/><path aria-label="x: 0.949748694897; y: 0.845760285854" role="graphics-symbol" aria-roledescription="point" transform="translate(178.49246084690094,59.38282651560646)" d="M1.581,0A1.581,1.581,0,1,1,-1.581,0A1.581,1.581,0,1,1,1.581,0" stroke="black" stroke-width="2" opacity="0.3"/><path aria-label="x: 0.979899346828; y: 0.797263205051" role="graphics-symbol" aria-roledescription="point" transform="translate(179.39698040485382,64.57894231591906)" d="M1.581,0A1.581,1.581,0,1,1,-1.581,0A1.581,1.581,0,1,1,1.581,0" stroke="black" stroke-width="2" opacity="0.3"/><path aria-label="x: 1.01005017757; y: 0.779570043087" role="graphics-symbol" aria-roledescription="point" transform="translate(180.30150532722473,66.47463824067798)" d="M1.581,0A1.581,1.581,0,1,1,-1.581,0A1.581,1.581,0,1,1,1.581,0" stroke="black" stroke-width="2" opacity="0.3"/><path aria-label="x: 1.04020094872; y: 0.63926833868" role="graphics-symbol" aria-roledescription="point" transform="translate(181.2060284614563,81.5069637128285)" d="M1.581,0A1.581,1.581,0,1,1,-1.581,0A1.581,1.581,0,1,1,1.581,0" stroke="black" stroke-width="2" opacity="0.3"/><path aria-label="x: 1.07035171986; y: 0.858616948128" role="graphics-symbol" aria-roledescription="point" transform="translate(182.11055159568787,58.005326986312866)" d="M1.581,0A1.581,1.581,0,1,1,-1.581,0A1.581,1.581,0,1,1,1.581,0" stroke="black" stroke-width="2" opacity="0.3"/><path aria-label="x: 1.10050237179; y: 0.754433274269" role="graphics-symbol" aria-roledescription="point" transform="translate(183.01507115364075,69.16786347116742)" d="M1.581,0A1.581,1.581,0,1,1,-1.581,0A1.581,1.581,0,1,1,1.581,0" stroke="black" stroke-width="2" opacity="0.3"/><path aria-label="x: 1.13065314293; y: 1.02681171894" role="graphics-symbol" aria-roledescription="point" transform="translate(183.91959428787231,39.984458684921265)" d="M1.581,0A1.581,1.581,0,1,1,-1.581,0A1.581,1.581,0,1,1,1.581,0" stroke="black" stroke-width="2" opacity="0.3"/><path aria-label="x: 1.16080391407; y: 0.789532542229" role="graphics-symbol" aria-roledescription="point" transform="translate(184.82411742210388,65.4072276183537)" d="M1.581,0A1.581,1.581,0,1,1,-1.581,0A1.581,1.581,0,1,1,1.581,0" stroke="black" stroke-width="2" opacity="0.3"/><path aria-label="x: 1.19095468521; y: 0.869101464748" role="graphics-symbol" aria-roledescription="point" transform="translate(185.72864055633545,56.88198591981616)" d="M1.581,0A1.581,1.581,0,1,1,-1.581,0A1.581,1.581,0,1,1,1.581,0" stroke="black" stroke-width="2" opacity="0.3"/><path aria-label="x: 1.22110545635; y: 1.02140462399" role="graphics-symbol" aria-roledescription="point" transform="translate(186.63316369056702,40.56379028729029)" d="M1.581,0A1.581,1.581,0,1,1,-1.581,0A1.581,1.581,0,1,1,1.581,0" stroke="black" stroke-width="2" opacity="0.3"/><path aria-label="x: 1.25125610828; y: 0.870441675186" role="graphics-symbol" aria-roledescription="point" transform="translate(187.5376832485199,56.738391944340286)" d="M1.581,0A1.581,1.581,0,1,1,-1.581,0A1.581,1.581,0,1,1,1.581,0" stroke="black" stroke-width="2" opacity="0.3"/><path aria-label="x: 1.28140687943; y: 0.759826660156" role="graphics-symbol" aria-roledescription="point" transform="translate(188.44220638275146,68.59000069754462)" d="M1.581,0A1.581,1.581,0,1,1,-1.581,0A1.581,1.581,0,1,1,1.581,0" stroke="black" stroke-width="2" opacity="0.3"/><path aria-label="x: 1.31155765057; y: 0.875707507133" role="graphics-symbol" aria-roledescription="point" transform="translate(189.34672951698303,56.17419566426959)" d="M1.581,0A1.581,1.581,0,1,1,-1.581,0A1.581,1.581,0,1,1,1.581,0" stroke="black" stroke-width="2" opacity="0.3"/><path aria-label="x: 1.34170842171; y: 0.80471521616" role="graphics-symbol" aria-roledescription="point" transform="translate(190.2512526512146,63.780512554304934)" d="M1.581,0A1.581,1.581,0,1,1,-1.581,0A1.581,1.581,0,1,1,1.581,0" stroke="black" stroke-width="2" opacity="0.3"/><path aria-label="x: 1.37185919285; y: 0.858152747154" role="graphics-symbol" aria-roledescription="point" transform="translate(191.15577578544617,58.055062804903315)" d="M1.581,0A1.581,1.581,0,1,1,-1.581,0A1.581,1.581,0,1,1,1.581,0" stroke="black" stroke-width="2" opacity="0.3"/><path aria-label="x: 1.40200996399; y: 0.767150819302" role="graphics-symbol" aria-roledescription="point" transform="translate(192.06029891967773,67.8052693605423)" d="M1.581,0A1.581,1.581,0,1,1,-1.581,0A1.581,1.581,0,1,1,1.581,0" stroke="black" stroke-width="2" opacity="0.3"/><path aria-label="x: 1.43216061592; y: 0.882635712624" role="graphics-symbol" aria-roledescription="point" transform="translate(192.96481847763062,55.43188793318611)" d="M1.581,0A1.581,1.581,0,1,1,-1.581,0A1.581,1.581,0,1,1,1.581,0" stroke="black" stroke-width="2" opacity="0.3"/><path aria-label="x: 1.46231138706; y: 0.951476097107" role="graphics-symbol" aria-roledescription="point" transform="translate(193.86934161186218,48.05613245282855)" d="M1.581,0A1.581,1.581,0,1,1,-1.581,0A1.581,1.581,0,1,1,1.581,0" stroke="black" stroke-width="2" opacity="0.3"/><path aria-label="x: 1.4924621582; y: 0.787781178951" role="graphics-symbol" aria-roledescription="point" transform="translate(194.77386474609375,65.59487368379321)" d="M1.581,0A1.581,1.581,0,1,1,-1.581,0A1.581,1.581,0,1,1,1.581,0" stroke="black" stroke-width="2" opacity="0.3"/><path aria-label="x: 1.52261292934; y: 0.871405899525" role="graphics-symbol" aria-roledescription="point" transform="translate(195.67838788032532,56.63508219378334)" d="M1.581,0A1.581,1.581,0,1,1,-1.581,0A1.581,1.581,0,1,1,1.581,0" stroke="black" stroke-width="2" opacity="0.3"/><path aria-label="x: 1.55276370049; y: 0.738579928875" role="graphics-symbol" aria-roledescription="point" transform="translate(196.58291101455688,70.86643619196754)" d="M1.581,0A1.581,1.581,0,1,1,-1.581,0A1.581,1.581,0,1,1,1.581,0" stroke="black" stroke-width="2" opacity="0.3"/><path aria-label="x: 1.58291447163; y: 0.954787313938" role="graphics-symbol" aria-roledescription="point" transform="translate(197.48743414878845,47.70135922091347)" d="M1.581,0A1.581,1.581,0,1,1,-1.581,0A1.581,1.581,0,1,1,1.581,0" stroke="black" stroke-width="2" opacity="0.3"/><path aria-label="x: 1.61306524277; y: 0.83828163147" role="graphics-symbol" aria-roledescription="point" transform="translate(198.39195728302002,60.18411091395788)" d="M1.581,0A1.581,1.581,0,1,1,-1.581,0A1.581,1.581,0,1,1,1.581,0" stroke="black" stroke-width="2" opacity="0.3"/><path aria-label="x: 1.6432158947; y: 0.862855613232" role="graphics-symbol" aria-roledescription="point" transform="translate(199.2964768409729,57.55118429660797)" d="M1.581,0A1.581,1.581,0,1,1,-1.581,0A1.581,1.581,0,1,1,1.581,0" stroke="black" stroke-width="2" opacity="0.3"/><path aria-label="x: 1.67336666584; y: 0.898336946964" role="graphics-symbol" aria-roledescription="point" transform="translate(200.20099997520447,53.749612825257444)" d="M1.581,0A1.581,1.581,0,1,1,-1.581,0A1.581,1.581,0,1,1,1.581,0" stroke="black" stroke-width="2" opacity="0.3"/><path aria-label="x: 1.70351743698; y: 0.898353636265" role="graphics-symbol" aria-roledescription="point" transform="translate(201.10552310943604,53.74782468591418)" d="M1.581,0A1.581,1.581,0,1,1,-1.581,0A1.581,1.581,0,1,1,1.581,0" stroke="black" stroke-width="2" opacity="0.3"/><path aria-label="x: 1.73366820812; y: 1.08929610252" role="graphics-symbol" aria-roledescription="point" transform="translate(202.0100462436676,33.289703301021014)" d="M1.581,0A1.581,1.581,0,1,1,-1.581,0A1.581,1.581,0,1,1,1.581,0" stroke="black" stroke-width="2" opacity="0.3"/><path aria-label="x: 1.76381897926; y: 1.02075254917" role="graphics-symbol" aria-roledescription="point" transform="translate(202.91456937789917,40.63365544591632)" d="M1.581,0A1.581,1.581,0,1,1,-1.581,0A1.581,1.581,0,1,1,1.581,0" stroke="black" stroke-width="2" opacity="0.3"/><path aria-label="x: 1.7939697504; y: 0.784635841846" role="graphics-symbol" aria-roledescription="point" transform="translate(203.81909251213074,65.93187408787861)" d="M1.581,0A1.581,1.581,0,1,1,-1.581,0A1.581,1.581,0,1,1,1.581,0" stroke="black" stroke-width="2" opacity="0.3"/><path aria-label="x: 1.82412052155; y: 1.00301587582" role="graphics-symbol" aria-roledescription="point" transform="translate(204.7236156463623,42.534013305391596)" d="M1.581,0A1.581,1.581,0,1,1,-1.581,0A1.581,1.581,0,1,1,1.581,0" stroke="black" stroke-width="2" opacity="0.3"/><path aria-label="x: 1.85427117348; y: 0.754685759544" role="graphics-symbol" aria-roledescription="point" transform="translate(205.62813520431519,69.14081147738867)" d="M1.581,0A1.581,1.581,0,1,1,-1.581,0A1.581,1.581,0,1,1,1.581,0" stroke="black" stroke-width="2" opacity="0.3"/><path aria-label="x: 1.88442194462; y: 0.985260903835" role="graphics-symbol" aria-roledescription="point" transform="translate(206.53265833854675,44.4363317319325)" d="M1.581,0A1.581,1.581,0,1,1,-1.581,0A1.581,1.581,0,1,1,1.581,0" stroke="black" stroke-width="2" opacity="0.3"/><path aria-label="x: 1.91457271576; y: 0.888310611248" role="graphics-symbol" aria-roledescription="point" transform="translate(207.43718147277832,54.82386308056966)" d="M1.581,0A1.581,1.581,0,1,1,-1.581,0A1.581,1.581,0,1,1,1.581,0" stroke="black" stroke-width="2" opacity="0.3"/><path aria-label="x: 1.9447234869; y: 0.824554204941" role="graphics-symbol" aria-roledescription="point" transform="translate(208.3417046070099,61.65490661348615)" d="M1.581,0A1.581,1.581,0,1,1,-1.581,0A1.581,1.581,0,1,1,1.581,0" stroke="black" stroke-width="2" opacity="0.3"/><path aria-label="x: 1.97487425804; y: 0.947563827038" role="graphics-symbol" aria-roledescription="point" transform="translate(209.24622774124146,48.47530424594879)" d="M1.581,0A1.581,1.581,0,1,1,-1.581,0A1.581,1.581,0,1,1,1.581,0" stroke="black" stroke-width="2" opacity="0.3"/><path aria-label="x: 2.00502490997; y: 1.02292013168" role="graphics-symbol" aria-roledescription="point" transform="translate(210.15074729919434,40.401414462498245)" d="M1.581,0A1.581,1.581,0,1,1,-1.581,0A1.581,1.581,0,1,1,1.581,0" stroke="black" stroke-width="2" opacity="0.3"/><path aria-label="x: 2.03517580032; y: 0.991546750069" role="graphics-symbol" aria-roledescription="point" transform="translate(211.0552740097046,43.76284820692879)" d="M1.581,0A1.581,1.581,0,1,1,-1.581,0A1.581,1.581,0,1,1,1.581,0" stroke="black" stroke-width="2" opacity="0.3"/><path aria-label="x: 2.06532645226; y: 0.790968358517" role="graphics-symbol" aria-roledescription="point" transform="translate(211.95979356765747,65.25339015892573)" d="M1.581,0A1.581,1.581,0,1,1,-1.581,0A1.581,1.581,0,1,1,1.581,0" stroke="black" stroke-width="2" opacity="0.3"/><path aria-label="x: 2.09547734261; y: 1.06887352467" role="graphics-symbol" aria-roledescription="point" transform="translate(212.86432027816772,35.47783664294649)" d="M1.581,0A1.581,1.581,0,1,1,-1.581,0A1.581,1.581,0,1,1,1.581,0" stroke="black" stroke-width="2" opacity="0.3"/><path aria-label="x: 2.12562799454; y: 0.916114509106" role="graphics-symbol" aria-roledescription="point" transform="translate(213.7688398361206,51.844874024391174)" d="M1.581,0A1.581,1.581,0,1,1,-1.581,0A1.581,1.581,0,1,1,1.581,0" stroke="black" stroke-width="2" opacity="0.3"/><path aria-label="x: 2.15577864647; y: 0.888988912106" role="graphics-symbol" aria-roledescription="point" transform="translate(214.6733593940735,54.751187988689956)" d="M1.581,0A1.581,1.581,0,1,1,-1.581,0A1.581,1.581,0,1,1,1.581,0" stroke="black" stroke-width="2" opacity="0.3"/><path aria-label="x: 2.18592953682; y: 0.844776570797" role="graphics-symbol" aria-roledescription="point" transform="translate(215.57788610458374,59.48822455746785)" d="M1.581,0A1.581,1.581,0,1,1,-1.581,0A1.581,1.581,0,1,1,1.581,0" stroke="black" stroke-width="2" opacity="0.3"/><path aria-label="x: 2.21608018875; y: 1.05327832699" role="graphics-symbol" aria-roledescription="point" transform="translate(216.48240566253662,37.148750679833554)" d="M1.581,0A1.581,1.581,0,1,1,-1.581,0A1.581,1.581,0,1,1,1.581,0" stroke="black" stroke-width="2" opacity="0.3"/><path aria-label="x: 2.2462310791; y: 0.970354855061" role="graphics-symbol" aria-roledescription="point" transform="translate(217.38693237304688,46.0334083863667)" d="M1.581,0A1.581,1.581,0,1,1,-1.581,0A1.581,1.581,0,1,1,1.581,0" stroke="black" stroke-width="2" opacity="0.3"/><path aria-label="x: 2.27638173103; y: 1.06809568405" role="graphics-symbol" aria-roledescription="point" transform="translate(218.29145193099976,35.561176708766375)" d="M1.581,0A1.581,1.581,0,1,1,-1.581,0A1.581,1.581,0,1,1,1.581,0" stroke="black" stroke-width="2" opacity="0.3"/><path aria-label="x: 2.30653262138; y: 0.86952984333" role="graphics-symbol" aria-roledescription="point" transform="translate(219.19597864151,56.8360882146018)" d="M1.581,0A1.581,1.581,0,1,1,-1.581,0A1.581,1.581,0,1,1,1.581,0" stroke="black" stroke-width="2" opacity="0.3"/><path aria-label="x: 2.33668327332; y: 1.09169983864" role="graphics-symbol" aria-roledescription="point" transform="translate(220.1004981994629,33.032160145895816)" d="M1.581,0A1.581,1.581,0,1,1,-1.581,0A1.581,1.581,0,1,1,1.581,0" stroke="black" stroke-width="2" opacity="0.3"/><path aria-label="x: 2.36683392525; y: 1.07132196426" role="graphics-symbol" aria-roledescription="point" transform="translate(221.00501775741577,35.21550382886615)" d="M1.581,0A1.581,1.581,0,1,1,-1.581,0A1.581,1.581,0,1,1,1.581,0" stroke="black" stroke-width="2" opacity="0.3"/><path aria-label="x: 2.3969848156; y: 0.937705039978" role="graphics-symbol" aria-roledescription="point" transform="translate(221.90954446792603,49.53160285949707)" d="M1.581,0A1.581,1.581,0,1,1,-1.581,0A1.581,1.581,0,1,1,1.581,0" stroke="black" stroke-width="2" opacity="0.3"/><path aria-label="x: 2.42713546753; y: 0.731567263603" role="graphics-symbol" aria-roledescription="point" transform="translate(222.8140640258789,71.6177931853703)" d="M1.581,0A1.581,1.581,0,1,1,-1.581,0A1.581,1.581,0,1,1,1.581,0" stroke="black" stroke-width="2" opacity="0.3"/><path aria-label="x: 2.45728635788; y: 0.954239845276" role="graphics-symbol" aria-roledescription="point" transform="translate(223.71859073638916,47.76001657758441)" d="M1.581,0A1.581,1.581,0,1,1,-1.581,0A1.581,1.581,0,1,1,1.581,0" stroke="black" stroke-width="2" opacity="0.3"/><path aria-label="x: 2.48743700981; y: 0.869072556496" role="graphics-symbol" aria-roledescription="point" transform="translate(224.62311029434204,56.88508323260717)" d="M1.581,0A1.581,1.581,0,1,1,-1.581,0A1.581,1.581,0,1,1,1.581,0" stroke="black" stroke-width="2" opacity="0.3"/><path aria-label="x: 2.51758790016; y: 1.23072957993" role="graphics-symbol" aria-roledescription="point" transform="translate(225.5276370048523,18.136116436549578)" d="M1.581,0A1.581,1.581,0,1,1,-1.581,0A1.581,1.581,0,1,1,1.581,0" stroke="black" stroke-width="2" opacity="0.3"/><path aria-label="x: 2.54773855209; y: 1.16666924953" role="graphics-symbol" aria-roledescription="point" transform="translate(226.43215656280518,24.999723264149242)" d="M1.581,0A1.581,1.581,0,1,1,-1.581,0A1.581,1.581,0,1,1,1.581,0" stroke="black" stroke-width="2" opacity="0.3"/><path aria-label="x: 2.57788920403; y: 0.889270365238" role="graphics-symbol" aria-roledescription="point" transform="translate(227.33667612075806,54.72103229590826)" d="M1.581,0A1.581,1.581,0,1,1,-1.581,0A1.581,1.581,0,1,1,1.581,0" stroke="black" stroke-width="2" opacity="0.3"/><path aria-label="x: 2.60804009438; y: 1.04775249958" role="graphics-symbol" aria-roledescription="point" transform="translate(228.2412028312683,37.74080361638751)" d="M1.581,0A1.581,1.581,0,1,1,-1.581,0A1.581,1.581,0,1,1,1.581,0" stroke="black" stroke-width="2" opacity="0.3"/><path aria-label="x: 2.63819074631; y: 1.07742404938" role="graphics-symbol" aria-roledescription="point" transform="translate(229.1457223892212,34.561708995274124)" d="M1.581,0A1.581,1.581,0,1,1,-1.581,0A1.581,1.581,0,1,1,1.581,0" stroke="black" stroke-width="2" opacity="0.3"/><path aria-label="x: 2.66834163666; y: 0.967730343342" role="graphics-symbol" aria-roledescription="point" transform="translate(230.05024909973145,46.314606070518494)" d="M1.581,0A1.581,1.581,0,1,1,-1.581,0A1.581,1.581,0,1,1,1.581,0" stroke="black" stroke-width="2" opacity="0.3"/><path aria-label="x: 2.69849228859; y: 1.12334775925" role="graphics-symbol" aria-roledescription="point" transform="translate(230.95476865768433,29.64131150926862)" d="M1.581,0A1.581,1.581,0,1,1,-1.581,0A1.581,1.581,0,1,1,1.581,0" stroke="black" stroke-width="2" opacity="0.3"/><path aria-label="x: 2.72864317894; y: 1.01153719425" role="graphics-symbol" aria-roledescription="point" transform="translate(231.85929536819458,41.6210149015699)" d="M1.581,0A1.581,1.581,0,1,1,-1.581,0A1.581,1.581,0,1,1,1.581,0" stroke="black" stroke-width="2" opacity="0.3"/><path aria-label="x: 2.75879383087; y: 1.11513543129" role="graphics-symbol" aria-roledescription="point" transform="translate(232.76381492614746,30.52120379039217)" d="M1.581,0A1.581,1.581,0,1,1,-1.581,0A1.581,1.581,0,1,1,1.581,0" stroke="black" stroke-width="2" opacity="0.3"/><path aria-label="x: 2.7889444828; y: 1.03231561184" role="graphics-symbol" aria-roledescription="point" transform="translate(233.66833448410034,39.39475587436132)" d="M1.581,0A1.581,1.581,0,1,1,-1.581,0A1.581,1.581,0,1,1,1.581,0" stroke="black" stroke-width="2" opacity="0.3"/><path aria-label="x: 2.81909537315; y: 1.09415006638" role="graphics-symbol" aria-roledescription="point" transform="translate(234.5728611946106,32.76963574545723)" d="M1.581,0A1.581,1.581,0,1,1,-1.581,0A1.581,1.581,0,1,1,1.581,0" stroke="black" stroke-width="2" opacity="0.3"/><path aria-label="x: 2.84924602509; y: 1.19634342194" role="graphics-symbol" aria-roledescription="point" transform="translate(235.47738075256348,21.820347649710513)" d="M1.581,0A1.581,1.581,0,1,1,-1.581,0A1.581,1.581,0,1,1,1.581,0" stroke="black" stroke-width="2" opacity="0.3"/><path aria-label="x: 2.87939691544; y: 0.868111431599" role="graphics-symbol" aria-roledescription="point" transform="translate(236.38190746307373,56.9880609001432)" d="M1.581,0A1.581,1.581,0,1,1,-1.581,0A1.581,1.581,0,1,1,1.581,0" stroke="black" stroke-width="2" opacity="0.3"/><path aria-label="x: 2.90954756737; y: 1.04234075546" role="graphics-symbol" aria-roledescription="point" transform="translate(237.2864270210266,38.32063334328786)" d="M1.581,0A1.581,1.581,0,1,1,-1.581,0A1.581,1.581,0,1,1,1.581,0" stroke="black" stroke-width="2" opacity="0.3"/><path aria-label="x: 2.93969845772; y: 0.871581494808" role="graphics-symbol" aria-roledescription="point" transform="translate(238.19095373153687,56.61626841340747)" d="M1.581,0A1.581,1.581,0,1,1,-1.581,0A1.581,1.581,0,1,1,1.581,0" stroke="black" stroke-width="2" opacity="0.3"/><path aria-label="x: 2.96984910965; y: 0.890496373177" role="graphics-symbol" aria-roledescription="point" transform="translate(239.09547328948975,54.58967430250984)" d="M1.581,0A1.581,1.581,0,1,1,-1.581,0A1.581,1.581,0,1,1,1.581,0" stroke="black" stroke-width="2" opacity="0.3"/><path aria-label="x: 3; y: 0.837471604347" role="graphics-symbol" aria-roledescription="point" transform="translate(240,60.270899534225464)" d="M1.581,0A1.581,1.581,0,1,1,-1.581,0A1.581,1.581,0,1,1,1.581,0" stroke="black" stroke-width="2" opacity="0.3"/></g><g class="mark-area role-mark layer_1_marks" role="graphics-object" aria-roledescription="area mark container"><path aria-label="x: −5; y_lower: −1.12353372574; y_upper: 0.830006718636" role="graphics-symbol" aria-roledescription="area mark" d="M0,270.379L3.03,272.688L6.061,275.13L9.091,277.64L12.121,280.142L15.152,282.547L18.182,284.76L21.212,286.681L24.242,288.217L27.273,289.282L30.303,289.807L33.333,289.748L36.364,289.083L39.394,287.822L42.424,286.008L45.455,283.711L48.485,281.031L51.515,278.094L54.545,275.048L57.576,272.066L60.606,269.336L63.636,267.056L66.667,265.361L69.697,264.18L72.727,263.255L75.758,262.323L78.788,261.279L81.818,260.146L84.848,258.99L87.879,257.872L90.909,256.824L93.939,255.838L96.97,254.83L100,253.727L103.03,252.421L106.061,250.815L109.091,248.802L112.121,246.272L115.152,243.159L118.182,239.378L121.212,234.864L124.242,229.564L127.273,223.451L130.303,216.528L133.333,208.809L136.364,200.349L139.394,191.215L142.424,181.515L145.455,171.365L148.485,160.899L151.515,150.295L154.545,139.711L157.576,129.336L160.606,119.355L163.636,109.944L166.667,101.249L169.697,93.403L172.727,86.495L175.758,80.569L178.788,75.631L181.818,71.635L184.848,68.5L187.879,66.095L190.909,64.26L193.939,62.845L196.97,61.647L200,60.529L203.03,59.374L206.061,58.098L209.091,56.686L212.121,55.17L215.152,53.585L218.182,52.028L221.212,50.587L224.242,49.403L227.273,48.721L230.303,48.877L233.333,50.393L236.364,53.731L239.394,59.113L242.424,66.504L245.455,75.743L248.485,86.593L251.515,98.771L254.545,111.955L257.576,125.798L260.606,139.939L263.636,154.027L266.667,167.738L269.697,180.787L272.727,192.942L275.758,204.027L278.788,213.932L281.818,222.602L284.848,230.037L287.879,236.284L290.909,241.425L293.939,245.567L296.97,248.832L300,251.347L300,42.04L296.97,41.613L293.939,41.109L290.909,40.533L287.879,39.894L284.848,39.205L281.818,38.479L278.788,37.736L275.758,36.992L272.727,36.269L269.697,35.585L266.667,34.96L263.636,34.415L260.606,33.969L257.576,33.639L254.545,33.439L251.515,33.379L248.485,33.46L245.455,33.667L242.424,33.962L239.394,34.273L236.364,34.508L233.333,34.606L230.303,34.666L227.273,34.941L224.242,35.675L221.212,36.882L218.182,38.469L215.152,40.255L212.121,42.047L209.091,43.731L206.061,45.217L203.03,46.512L200,47.678L196.97,48.8L193.939,50.011L190.909,51.48L187.879,53.339L184.848,55.773L181.818,58.928L178.788,62.928L175.758,67.869L172.727,73.797L169.697,80.713L166.667,88.566L163.636,97.264L160.606,106.685L157.576,116.666L154.545,127.037L151.515,137.617L148.485,148.233L145.455,158.69L142.424,168.845L139.394,178.547L136.364,187.668L133.333,196.122L130.303,203.831L127.273,210.755L124.242,216.865L121.212,222.165L118.182,226.678L115.152,230.442L112.121,233.523L109.091,235.997L106.061,237.985L103.03,239.578L100,240.873L96.97,241.972L93.939,242.946L90.909,243.864L87.879,244.749L84.848,245.647L81.818,246.59L78.788,247.583L75.758,248.588L72.727,249.476L69.697,249.959L66.667,249.569L63.636,247.838L60.606,244.502L57.576,239.524L54.545,232.973L51.515,224.962L48.485,215.641L45.455,205.195L42.424,193.849L39.394,181.852L36.364,169.471L33.333,156.969L30.303,144.605L27.273,132.609L24.242,121.182L21.212,110.486L18.182,100.638L15.152,91.715L12.121,83.752L9.091,76.747L6.061,70.671L3.03,65.469L0,61.071Z" fill="red" opacity="0.2"/></g><g class="mark-line role-mark layer_2_marks" role="graphics-object" aria-roledescription="line mark container"><path aria-label="x: −5; y_true: −0.999909162521" role="graphics-symbol" aria-roledescription="line mark" d="M0,257.133L3.03,257.131L6.061,257.128L9.091,257.125L12.121,257.121L15.152,257.116L18.182,257.11L21.212,257.103L24.242,257.094L27.273,257.083L30.303,257.07L33.333,257.053L36.364,257.033L39.394,257.008L42.424,256.978L45.455,256.942L48.485,256.897L51.515,256.842L54.545,256.774L57.576,256.692L60.606,256.591L63.636,256.468L66.667,256.318L69.697,256.134L72.727,255.909L75.758,255.635L78.788,255.3L81.818,254.892L84.848,254.395L87.879,253.789L90.909,253.052L93.939,252.158L96.97,251.074L100,249.762L103.03,248.178L106.061,246.273L109.091,243.989L112.121,241.263L115.152,238.025L118.182,234.203L121.212,229.725L124.242,224.521L127.273,218.534L130.303,211.722L133.333,204.072L136.364,195.603L139.394,186.376L142.424,176.495L145.455,166.111L148.485,155.407L151.515,144.593L154.545,133.889L157.576,123.505L160.606,113.624L163.636,104.397L166.667,95.928L169.697,88.278L172.727,81.466L175.758,75.479L178.788,70.275L181.818,65.797L184.848,61.975L187.879,58.737L190.909,56.011L193.939,53.727L196.97,51.822L200,50.238L203.03,48.926L206.061,47.842L209.091,46.948L212.121,46.211L215.152,45.605L218.182,45.108L221.212,44.7L224.242,44.365L227.273,44.091L230.303,43.866L233.333,43.682L236.364,43.532L239.394,43.409L242.424,43.308L245.455,43.226L248.485,43.158L251.515,43.103L254.545,43.058L257.576,43.022L260.606,42.992L263.636,42.967L266.667,42.947L269.697,42.93L272.727,42.917L275.758,42.906L278.788,42.897L281.818,42.89L284.848,42.884L287.879,42.879L290.909,42.875L293.939,42.872L296.97,42.869L300,42.867" stroke="blue" stroke-width="2" stroke-dasharray="5,5"/></g><g class="mark-line role-mark layer_3_marks" role="graphics-object" aria-roledescription="line mark container"><path aria-label="x: −5; y_pred: −0.146763473749" role="graphics-symbol" aria-roledescription="line mark" d="M0,165.725L3.03,169.079L6.061,172.9L9.091,177.193L12.121,181.947L15.152,187.131L18.182,192.699L21.212,198.583L24.242,204.699L27.273,210.945L30.303,217.206L33.333,223.358L36.364,229.277L39.394,234.837L42.424,239.929L45.455,244.453L48.485,248.336L51.515,251.528L54.545,254.011L57.576,255.795L60.606,256.919L63.636,257.447L66.667,257.465L69.697,257.07L72.727,256.366L75.758,255.456L78.788,254.431L81.818,253.368L84.848,252.318L87.879,251.31L90.909,250.344L93.939,249.392L96.97,248.401L100,247.3L103.03,246L106.061,244.4L109.091,242.4L112.121,239.897L115.152,236.8L118.182,233.028L121.212,228.515L124.242,223.215L127.273,217.103L130.303,210.179L133.333,202.466L136.364,194.008L139.394,184.881L142.424,175.18L145.455,165.028L148.485,154.566L151.515,143.956L154.545,133.374L157.576,123.001L160.606,113.02L163.636,103.604L166.667,94.908L169.697,87.058L172.727,80.146L175.758,74.219L178.788,69.279L181.818,65.282L184.848,62.136L187.879,59.717L190.909,57.87L193.939,56.428L196.97,55.223L200,54.103L203.03,52.943L206.061,51.657L209.091,50.209L212.121,48.609L215.152,46.92L218.182,45.248L221.212,43.734L224.242,42.539L227.273,41.831L230.303,41.772L233.333,42.5L236.364,44.119L239.394,46.693L242.424,50.233L245.455,54.705L248.485,60.027L251.515,66.075L254.545,72.697L257.576,79.718L260.606,86.954L263.636,94.221L266.667,101.349L269.697,108.186L272.727,114.605L275.758,120.51L278.788,125.834L281.818,130.541L284.848,134.621L287.879,138.089L290.909,140.979L293.939,143.338L296.97,145.222L300,146.693" stroke="red" stroke-width="2"/></g><g class="mark-group role-title"><g transform="translate(150,-17)"><path class="background" aria-hidden="true" d="M0,0h0v0h0Z" pointer-events="none"/><g><g class="mark-text role-title-text" role="graphics-symbol" aria-roledescription="title" aria-label="Title text 'GP Posterior Predictions'" pointer-events="none"><text text-anchor="middle" transform="translate(0,10)" font-family="sans-serif" font-size="13px" font-weight="bold" fill="#000" opacity="1">GP Posterior Predictions</text></g></g><path class="foreground" aria-hidden="true" d="" pointer-events="none" display="none"/></g></g></g><path class="foreground" aria-hidden="true" d="" display="none"/></g></g></g></svg>