<svg xmlns="http://www.w3.org/2000/svg" xmlns:xlink="http://www.w3.org/1999/xlink" version="1.1" class="marks" width="354" height="364" viewBox="0 0 354 364"><rect width="354" height="364" fill="white"/><g fill="none" stroke-miterlimit="10" transform="translate(47,27)"><g class="mark-group role-frame root" role="graphics-object" aria-roledescription="group mark container"><g transform="translate(0,0)"><path class="background" aria-hidden="true" d="M0.5,0.5h300v300h-300Z" stroke="#ddd"/><g><g class="mark-group role-axis" aria-hidden="true"><g transform="translate(0.5,300.5)"><path class="background" aria-hidden="true" d="M0,0h0v0h0Z" pointer-events="none"/><g><g class="mark-rule role-axis-grid" pointer-events="none"><line transform="translate(0,-300)" x2="0" y2="300" stroke="#ddd" stroke-width="1" opacity="1"/><line transform="translate(30,-300)" x2="0" y2="300" stroke="#ddd" stroke-width="1" opacity="1"/><line transform="translate(60,-300)" x2="0" y2="300" stroke="#ddd" stroke-width="1" opacity="1"/><line transform="translate(90,-300)" x2="0" y2="300" stroke="#ddd" stroke-width="1" opacity="1"/><line transform="translate(120,-300)" x2="0" y2="300" stroke="#ddd" stroke-width="1" opacity="1"/><line transform="translate(150,-300)" x2="0" y2="300" stroke="#ddd" stroke-width="1" opacity="1"/><line transform="translate(180,-300)" x2="0" y2="300" stroke="#ddd" stroke-width="1" opacity="1"/><line transform="translate(210,-300)" x2="0" y2="300" stroke="#ddd" stroke-width="1" opacity="1"/><line transform="translate(240,-300)" x2="0" y2="300" stroke="#ddd" stroke-width="1" opacity="1"/><line transform="translate(270,-300)" x2="0" y2="300" stroke="#ddd" stroke-width="1" opacity="1"/><line transform="translate(300,-300)" x2="0" y2="300" stroke="#ddd" stroke-width="1" opacity="1"/></g></g><path class="foreground" aria-hidden="true" d="" pointer-events="none" display="none"/></g></g><g class="mark-group role-axis" aria-hidden="true"><g transform="translate(0.5,0.5)"><path class="background" aria-hidden="true" d="M0,0h0v0h0Z" pointer-events="none"/><g><g class="mark-rule role-axis-grid" pointer-events="none"><line transform="translate(0,300)" x2="300" y2="0" stroke="#ddd" stroke-width="1" opacity="1"/><line transform="translate(0,273)" x2="300" y2="0" stroke="#ddd" stroke-width="1" opacity="1"/><line transform="translate(0,245)" x2="300" y2="0" stroke="#ddd" stroke-width="1" opacity="1"/><line transform="translate(0,218)" x2="300" y2="0" stroke="#ddd" stroke-width="1" opacity="1"/><line transform="translate(0,191)" x2="300" y2="0" stroke="#ddd" stroke-width="1" opacity="1"/><line transform="translate(0,164)" x2="300" y2="0" stroke="#ddd" stroke-width="1" opacity="1"/><line transform="translate(0,136)" x2="300" y2="0" stroke="#ddd" stroke-width="1" opacity="1"/><line transform="translate(0,109)" x2="300" y2="0" stroke="#ddd" stroke-width="1" opacity="1"/><line transform="translate(0,82)" x2="300" y2="0" stroke="#ddd" stroke-width="1" opacity="1"/><line transform="translate(0,55)" x2="300" y2="0" stroke="#ddd" stroke-width="1" opacity="1"/><line transform="translate(0,27)" x2="300" y2="0" stroke="#ddd" stroke-width="1" opacity="1"/><line transform="translate(0,0)" x2="300" y2="0" stroke="#ddd" stroke-width="1" opacity="1"/></g></g><path class="foreground" aria-hidden="true" d="" pointer-events="none" display="none"/></g></g><g class="mark-group role-axis" role="graphics-symbol" aria-roledescription="axis" aria-label="X-axis titled 'x' for a linear scale with values from −5 to 5"><g transform="translate(0.5,300.5)"><path class="background" aria-hidden="true" d="M0,0h0v0h0Z" pointer-events="none"/><g><g class="mark-rule role-axis-tick" pointer-events="none"><line transform="translate(0,0)" x2="0" y2="5" stroke="#888" stroke-width="1" opacity="1"/><line transform="translate(30,0)" x2="0" y2="5" stroke="#888" stroke-width="1" opacity="1"/><line transform="translate(60,0)" x2="0" y2="5" stroke="#888" stroke-width="1" opacity="1"/><line transform="translate(90,0)" x2="0" y2="5" stroke="#888" stroke-width="1" opacity="1"/><line transform="translate(120,0)" x2="0" y2="5" stroke="#888" stroke-width="1" opacity="1"/><line transform="translate(150,0)" x2="0" y2="5" stroke="#888" stroke-width="1" opacity="1"/><line transform="translate(180,0)" x2="0" y2="5" stroke="#888" stroke-width="1" opacity="1"/><line transform="translate(210,0)" x2="0" y2="5" stroke="#888" stroke-width="1" opacity="1"/><line transform="translate(240,0)" x2="0" y2="5" stroke="#888" stroke-width="1" opacity="1"/><line transform="translate(270,0)" x2="0" y2="5" stroke="#888" stroke-width="1" opacity="1"/><line transform="translate(300,0)" x2="0" y2="5" stroke="#888" stroke-width="1" opacity="1"/></g><g class="mark-text role-axis-label" pointer-events="none"><text text-anchor="start" transform="translate(0,15)" font-family="sans-serif" font-size="10px" fill="#000" opacity="1">−5</text><text text-anchor="middle" transform="translate(30,15)" font-family="sans-serif" font-size="10px" fill="#000" opacity="1">−4</text><text text-anchor="middle" transform="translate(60,15)" font-family="sans-serif" font-size="10px" fill="#000" opacity="1">−3</text><text text-anchor="middle" transform="translate(90,15)" font-family="sans-serif" font-size="10px" fill="#000" opacity="1">−2</text><text text-anchor="middle" transform="translate(120,15)" font-family="sans-serif" font-size="10px" fill="#000" opacity="1">−1</text><text text-anchor="middle" transform="translate(150,15)" font-family="sans-serif" font-size="10px" fill="#000" opacity="1">0</text><text text-anchor="middle" transform="translate(180,15)" font-family="sans-serif" font-size="10px" fill="#000" opacity="1">1</text><text text-anchor="middle" transform="translate(210,15)" font-family="sans-serif" font-size="10px" fill="#000" opacity="1">2</text><text text-anchor="middle" transform="translate(240,15)" font-family="sans-serif" font-size="10px" fill="#000" opacity="1">3</text><text text-anchor="middle" transform="translate(270,15)" font-family="sans-serif" font-size="10px" fill="#000" opacity="1">4</text><text text-anchor="end" transform="translate(300,15)" font-family="sans-serif" font-size="10px" fill="#000" opacity="1">5</text></g><g class="mark-rule role-axis-domain" pointer-events="none"><line transform="translate(0,0)" x2="300" y2="0" stroke="#888" stroke-width="1" opacity="1"/></g><g class="mark-text role-axis-title" pointer-events="none"><text text-anchor="middle" transform="translate(150,30)" font-family="sans-serif" font-size="11px" font-weight="bold" fill="#000" opacity="1">x</text></g></g><path class="foreground" aria-hidden="true" d="" pointer-events="none" display="none"/></g></g><g class="mark-group role-axis" role="graphics-symbol" aria-roledescription="axis" aria-label="Y-axis titled 'y, y_lower, y_upper, y_true, y_pred' for a linear scale with values from −3 to 3"><g transform="translate(0.5,0.5)"><path class="background" aria-hidden="true" d="M0,0h0v0h0Z" pointer-events="none"/><g><g class="mark-rule role-axis-tick" pointer-events="none"><line transform="translate(0,300)" x2="-5" y2="0" stroke="#888" stroke-width="1" opacity="1"/><line transform="translate(0,273)" x2="-5" y2="0" stroke="#888" stroke-width="1" opacity="1"/><line transform="translate(0,245)" x2="-5" y2="0" stroke="#888" stroke-width="1" opacity="1"/><line transform="translate(0,218)" x2="-5" y2="0" stroke="#888" stroke-width="1" opacity="1"/><line transform="translate(0,191)" x2="-5" y2="0" stroke="#888" stroke-width="1" opacity="1"/><line transform="translate(0,164)" x2="-5" y2="0" stroke="#888" stroke-width="1" opacity="1"/><line transform="translate(0,136)" x2="-5" y2="0" stroke="#888" stroke-width="1" opacity="1"/><line transform="translate(0,109)" x2="-5" y2="0" stroke="#888" stroke-width="1" opacity="1"/><line transform="translate(0,82)" x2="-5" y2="0" stroke="#888" stroke-width="1" opacity="1"/><line transform="translate(0,55)" x2="-5" y2="0" stroke="#888" stroke-width="1" opacity="1"/><line transform="translate(0,27)" x2="-5" y2="0" stroke="#888" stroke-width="1" opacity="1"/><line transform="translate(0,0)" x2="-5" y2="0" stroke="#888" stroke-width="1" opacity="1"/></g><g class="mark-text role-axis-label" pointer-events="none"><text text-anchor="end" transform="translate(-7,303)" font-family="sans-serif" font-size="10px" fill="#000" opacity="1">−2.5</text><text text-anchor="end" transform="translate(-7,275.7272727272727)" font-family="sans-serif" font-size="10px" fill="#000" opacity="1">−2.0</text><text text-anchor="end" transform="translate(-7,248.45454545454544)" font-family="sans-serif" font-size="10px" fill="#000" opacity="1">−1.5</text><text text-anchor="end" transform="translate(-7,221.1818181818182)" font-family="sans-serif" font-size="10px" fill="#000" opacity="1">−1.0</text><text text-anchor="end" transform="translate(-7,193.9090909090909)" font-family="sans-serif" font-size="10px" fill="#000" opacity="1">−0.5</text><text text-anchor="end" transform="translate(-7,166.63636363636363)" font-family="sans-serif" font-size="10px" fill="#000" opacity="1">0.0</text><text text-anchor="end" transform="translate(-7,139.36363636363637)" font-family="sans-serif" font-size="10px" fill="#000" opacity="1">0.5</text><text text-anchor="end" transform="translate(-7,112.0909090909091)" font-family="sans-serif" font-size="10px" fill="#000" opacity="1">1.0</text><text text-anchor="end" transform="translate(-7,84.81818181818181)" font-family="sans-serif" font-size="10px" fill="#000" opacity="1">1.5</text><text text-anchor="end" transform="translate(-7,57.54545454545453)" font-family="sans-serif" font-size="10px" fill="#000" opacity="1">2.0</text><text text-anchor="end" transform="translate(-7,30.27272727272728)" font-family="sans-serif" font-size="10px" fill="#000" opacity="1">2.5</text><text text-anchor="end" transform="translate(-7,3)" font-family="sans-serif" font-size="10px" fill="#000" opacity="1">3.0</text></g><g class="mark-rule role-axis-domain" pointer-events="none"><line transform="translate(0,300)" x2="0" y2="-300" stroke="#888" stroke-width="1" opacity="1"/></g><g class="mark-text role-axis-title" pointer-events="none"><text text-anchor="middle" transform="translate(-30.7412109375,150) rotate(-90) translate(0,-2)" font-family="sans-serif" font-size="11px" font-weight="bold" fill="#000" opacity="1">y, y_lower, y_upper, y_true, y_pred</text></g></g><path class="foreground" aria-hidden="true" d="" pointer-events="none" display="none"/></g></g><g class="mark-symbol role-mark layer_0_marks" role="graphics-object" aria-roledescription="symbol mark container"><path aria-label="x: −3; y: −0.894653320313" role="graphics-symbol" aria-roledescription="point" transform="translate(60,212.4356356534091)" d="M1.581,0A1.581,1.581,0,1,1,-1.581,0A1.581,1.581,0,1,1,1.581,0" stroke="black" stroke-width="2" opacity="0.3"/><path aria-label="x: −2.96984910965; y: −1.0853818655" role="graphics-symbol" aria-roledescription="point" transform="translate(60.904526710510254,222.8390108455311)" d="M1.581,0A1.581,1.581,0,1,1,-1.581,0A1.581,1.581,0,1,1,1.581,0" stroke="black" stroke-width="2" opacity="0.3"/><path aria-label="x: −2.93969869614; y: −1.06923985481" role="graphics-symbol" aria-roledescription="point" transform="translate(61.80903911590576,221.95853753523392)" d="M1.581,0A1.581,1.581,0,1,1,-1.581,0A1.581,1.581,0,1,1,1.581,0" stroke="black" stroke-width="2" opacity="0.3"/><path aria-label="x: −2.90954780579; y: −1.11121368408" role="graphics-symbol" aria-roledescription="point" transform="translate(62.713565826416016,224.24801913174716)" d="M1.581,0A1.581,1.581,0,1,1,-1.581,0A1.581,1.581,0,1,1,1.581,0" stroke="black" stroke-width="2" opacity="0.3"/><path aria-label="x: −2.87939715385; y: −1.08083343506" role="graphics-symbol" aria-roledescription="point" transform="translate(63.6180853843689,222.59091463955966)" d="M1.581,0A1.581,1.581,0,1,1,-1.581,0A1.581,1.581,0,1,1,1.581,0" stroke="black" stroke-width="2" opacity="0.3"/><path aria-label="x: −2.84924602509; y: −0.934436619282" role="graphics-symbol" aria-roledescription="point" transform="translate(64.52261924743652,214.6056337790056)" d="M1.581,0A1.581,1.581,0,1,1,-1.581,0A1.581,1.581,0,1,1,1.581,0" stroke="black" stroke-width="2" opacity="0.3"/><path aria-label="x: −2.81909561157; y: −0.920513629913" role="graphics-symbol" aria-roledescription="point" transform="translate(65.42713165283203,213.84619799527255)" d="M1.581,0A1.581,1.581,0,1,1,-1.581,0A1.581,1.581,0,1,1,1.581,0" stroke="black" stroke-width="2" opacity="0.3"/><path aria-label="x: −2.78894472122; y: −1.09502732754" role="graphics-symbol" aria-roledescription="point" transform="translate(66.33165836334229,223.36512695659292)" d="M1.581,0A1.581,1.581,0,1,1,-1.581,0A1.581,1.581,0,1,1,1.581,0" stroke="black" stroke-width="2" opacity="0.3"/><path aria-label="x: −2.75879383087; y: −0.825838327408" role="graphics-symbol" aria-roledescription="point" transform="translate(67.23618507385254,208.682090585882)" d="M1.581,0A1.581,1.581,0,1,1,-1.581,0A1.581,1.581,0,1,1,1.581,0" stroke="black" stroke-width="2" opacity="0.3"/><path aria-label="x: −2.72864317894; y: −1.18060851097" role="graphics-symbol" aria-roledescription="point" transform="translate(68.14070463180542,228.03319150751287)" d="M1.581,0A1.581,1.581,0,1,1,-1.581,0A1.581,1.581,0,1,1,1.581,0" stroke="black" stroke-width="2" opacity="0.3"/><path aria-label="x: −2.69849252701; y: −1.11987388134" role="graphics-symbol" aria-roledescription="point" transform="translate(69.0452241897583,224.72039352763784)" d="M1.581,0A1.581,1.581,0,1,1,-1.581,0A1.581,1.581,0,1,1,1.581,0" stroke="black" stroke-width="2" opacity="0.3"/><path aria-label="x: −2.66834163666; y: −0.977061867714" role="graphics-symbol" aria-roledescription="point" transform="translate(69.94975090026855,216.93064732985061)" d="M1.581,0A1.581,1.581,0,1,1,-1.581,0A1.581,1.581,0,1,1,1.581,0" stroke="black" stroke-width="2" opacity="0.3"/><path aria-label="x: −2.63819098473; y: −1.10513412952" role="graphics-symbol" aria-roledescription="point" transform="translate(70.85427045822144,223.91640706495804)" d="M1.581,0A1.581,1.581,0,1,1,-1.581,0A1.581,1.581,0,1,1,1.581,0" stroke="black" stroke-width="2" opacity="0.3"/><path aria-label="x: −2.60804033279; y: −0.965271890163" role="graphics-symbol" aria-roledescription="point" transform="translate(71.75879001617432,216.28755764527756)" d="M1.581,0A1.581,1.581,0,1,1,-1.581,0A1.581,1.581,0,1,1,1.581,0" stroke="black" stroke-width="2" opacity="0.3"/><path aria-label="x: −2.57788944244; y: −0.814053475857" role="graphics-symbol" aria-roledescription="point" transform="translate(72.66331672668457,208.03928050127897)" d="M1.581,0A1.581,1.581,0,1,1,-1.581,0A1.581,1.581,0,1,1,1.581,0" stroke="black" stroke-width="2" opacity="0.3"/><path aria-label="x: −2.54773879051; y: −0.937323868275" role="graphics-symbol" aria-roledescription="point" transform="translate(73.56783628463745,214.7631200877103)" d="M1.581,0A1.581,1.581,0,1,1,-1.581,0A1.581,1.581,0,1,1,1.581,0" stroke="black" stroke-width="2" opacity="0.3"/><path aria-label="x: −2.51758790016; y: −0.927568733692" role="graphics-symbol" aria-roledescription="point" transform="translate(74.4723629951477,214.23102183775467)" d="M1.581,0A1.581,1.581,0,1,1,-1.581,0A1.581,1.581,0,1,1,1.581,0" stroke="black" stroke-width="2" opacity="0.3"/><path aria-label="x: −2.48743724823; y: −1.0335599184" role="graphics-symbol" aria-roledescription="point" transform="translate(75.37688255310059,220.01235918565231)" d="M1.581,0A1.581,1.581,0,1,1,-1.581,0A1.581,1.581,0,1,1,1.581,0" stroke="black" stroke-width="2" opacity="0.3"/><path aria-label="x: −2.45728635788; y: −0.893865525723" role="graphics-symbol" aria-roledescription="point" transform="translate(76.28140926361084,212.39266503940928)" d="M1.581,0A1.581,1.581,0,1,1,-1.581,0A1.581,1.581,0,1,1,1.581,0" stroke="black" stroke-width="2" opacity="0.3"/><path aria-label="x: −2.42713546753; y: −0.948410212994" role="graphics-symbol" aria-roledescription="point" transform="translate(77.1859359741211,215.3678297996521)" d="M1.581,0A1.581,1.581,0,1,1,-1.581,0A1.581,1.581,0,1,1,1.581,0" stroke="black" stroke-width="2" opacity="0.3"/><path aria-label="x: −2.39698505402; y: −1.04699337482" role="graphics-symbol" aria-roledescription="point" transform="translate(78.0904483795166,220.74509317224675)" d="M1.581,0A1.581,1.581,0,1,1,-1.581,0A1.581,1.581,0,1,1,1.581,0" stroke="black" stroke-width="2" opacity="0.3"/><path aria-label="x: −2.36683416367; y: −1.06961405277" role="graphics-symbol" aria-roledescription="point" transform="translate(78.99497509002686,221.97894833304667)" d="M1.581,0A1.581,1.581,0,1,1,-1.581,0A1.581,1.581,0,1,1,1.581,0" stroke="black" stroke-width="2" opacity="0.3"/><path aria-label="x: −2.33668327332; y: −0.905652463436" role="graphics-symbol" aria-roledescription="point" transform="translate(79.89950180053711,213.03558891469783)" d="M1.581,0A1.581,1.581,0,1,1,-1.581,0A1.581,1.581,0,1,1,1.581,0" stroke="black" stroke-width="2" opacity="0.3"/><path aria-label="x: −2.3065328598; y: −0.874066889286" role="graphics-symbol" aria-roledescription="point" transform="translate(80.80401420593262,211.31273941560227)" d="M1.581,0A1.581,1.581,0,1,1,-1.581,0A1.581,1.581,0,1,1,1.581,0" stroke="black" stroke-width="2" opacity="0.3"/><path aria-label="x: −2.27638196945; y: −0.888308107853" role="graphics-symbol" aria-roledescription="point" transform="translate(81.70854091644287,212.08953315561467)" d="M1.581,0A1.581,1.581,0,1,1,-1.581,0A1.581,1.581,0,1,1,1.581,0" stroke="black" stroke-width="2" opacity="0.3"/><path aria-label="x: −2.2462310791; y: −1.02709376812" role="graphics-symbol" aria-roledescription="point" transform="translate(82.61306762695312,219.6596600792625)" d="M1.581,0A1.581,1.581,0,1,1,-1.581,0A1.581,1.581,0,1,1,1.581,0" stroke="black" stroke-width="2" opacity="0.3"/><path aria-label="x: −2.21608066559; y: −0.88765257597" role="graphics-symbol" aria-roledescription="point" transform="translate(83.51758003234863,212.05377687107432)" d="M1.581,0A1.581,1.581,0,1,1,-1.581,0A1.581,1.581,0,1,1,1.581,0" stroke="black" stroke-width="2" opacity="0.3"/><path aria-label="x: −2.18592953682; y: −0.810520350933" role="graphics-symbol" aria-roledescription="point" transform="translate(84.42211389541626,207.84656459634954)" d="M1.581,0A1.581,1.581,0,1,1,-1.581,0A1.581,1.581,0,1,1,1.581,0" stroke="black" stroke-width="2" opacity="0.3"/><path aria-label="x: −2.15577888489; y: −1.2251162529" role="graphics-symbol" aria-roledescription="point" transform="translate(85.32663345336914,230.46088652177292)" d="M1.581,0A1.581,1.581,0,1,1,-1.581,0A1.581,1.581,0,1,1,1.581,0" stroke="black" stroke-width="2" opacity="0.3"/><path aria-label="x: −2.12562799454; y: −0.927729427814" role="graphics-symbol" aria-roledescription="point" transform="translate(86.2311601638794,214.23978697169912)" d="M1.581,0A1.581,1.581,0,1,1,-1.581,0A1.581,1.581,0,1,1,1.581,0" stroke="black" stroke-width="2" opacity="0.3"/><path aria-label="x: −2.09547734261; y: −0.788456082344" role="graphics-symbol" aria-roledescription="point" transform="translate(87.13567972183228,206.64305903694844)" d="M1.581,0A1.581,1.581,0,1,1,-1.581,0A1.581,1.581,0,1,1,1.581,0" stroke="black" stroke-width="2" opacity="0.3"/><path aria-label="x: −2.06532669067; y: −1.08567762375" role="graphics-symbol" aria-roledescription="point" transform="translate(88.04019927978516,222.8551431135698)" d="M1.581,0A1.581,1.581,0,1,1,-1.581,0A1.581,1.581,0,1,1,1.581,0" stroke="black" stroke-width="2" opacity="0.3"/><path aria-label="x: −2.03517580032; y: −1.02530193329" role="graphics-symbol" aria-roledescription="point" transform="translate(88.94472599029541,219.56192363392222)" d="M1.581,0A1.581,1.581,0,1,1,-1.581,0A1.581,1.581,0,1,1,1.581,0" stroke="black" stroke-width="2" opacity="0.3"/><path aria-label="x: −2.00502538681; y: −0.749682366848" role="graphics-symbol" aria-roledescription="point" transform="translate(89.84923839569092,204.52812910079956)" d="M1.581,0A1.581,1.581,0,1,1,-1.581,0A1.581,1.581,0,1,1,1.581,0" stroke="black" stroke-width="2" opacity="0.3"/><path aria-label="x: −1.97487449646; y: −0.882020711899" role="graphics-symbol" aria-roledescription="point" transform="translate(90.75376510620117,211.7465842853893)" d="M1.581,0A1.581,1.581,0,1,1,-1.581,0A1.581,1.581,0,1,1,1.581,0" stroke="black" stroke-width="2" opacity="0.3"/><path aria-label="x: −1.94472360611; y: −0.979652225971" role="graphics-symbol" aria-roledescription="point" transform="translate(91.65829181671143,217.07193959843028)" d="M1.581,0A1.581,1.581,0,1,1,-1.581,0A1.581,1.581,0,1,1,1.581,0" stroke="black" stroke-width="2" opacity="0.3"/><path aria-label="x: −1.91457283497; y: −1.13144826889" role="graphics-symbol" aria-roledescription="point" transform="translate(92.562814950943,225.35172375765714)" d="M1.581,0A1.581,1.581,0,1,1,-1.581,0A1.581,1.581,0,1,1,1.581,0" stroke="black" stroke-width="2" opacity="0.3"/><path aria-label="x: −1.88442218304; y: −1.03702580929" role="graphics-symbol" aria-roledescription="point" transform="translate(93.46733450889587,220.20140777934682)" d="M1.581,0A1.581,1.581,0,1,1,-1.581,0A1.581,1.581,0,1,1,1.581,0" stroke="black" stroke-width="2" opacity="0.3"/><path aria-label="x: −1.8542714119; y: −1.18841433525" role="graphics-symbol" aria-roledescription="point" transform="translate(94.37185764312744,228.4589637409557)" d="M1.581,0A1.581,1.581,0,1,1,-1.581,0A1.581,1.581,0,1,1,1.581,0" stroke="black" stroke-width="2" opacity="0.3"/><path aria-label="x: −1.82412064075; y: −0.793982744217" role="graphics-symbol" aria-roledescription="point" transform="translate(95.27638077735901,206.94451332092285)" d="M1.581,0A1.581,1.581,0,1,1,-1.581,0A1.581,1.581,0,1,1,1.581,0" stroke="black" stroke-width="2" opacity="0.3"/><path aria-label="x: −1.7939697504; y: −0.805635213852" role="graphics-symbol" aria-roledescription="point" transform="translate(96.18090748786926,207.58010257374156)" d="M1.581,0A1.581,1.581,0,1,1,-1.581,0A1.581,1.581,0,1,1,1.581,0" stroke="black" stroke-width="2" opacity="0.3"/><path aria-label="x: −1.76381921768; y: −0.90789014101" role="graphics-symbol" aria-roledescription="point" transform="translate(97.08542346954346,213.1576440551064)" d="M1.581,0A1.581,1.581,0,1,1,-1.581,0A1.581,1.581,0,1,1,1.581,0" stroke="black" stroke-width="2" opacity="0.3"/><path aria-label="x: −1.73366832733; y: −0.933241486549" role="graphics-symbol" aria-roledescription="point" transform="translate(97.98995018005371,214.54044472087514)" d="M1.581,0A1.581,1.581,0,1,1,-1.581,0A1.581,1.581,0,1,1,1.581,0" stroke="black" stroke-width="2" opacity="0.3"/><path aria-label="x: −1.70351755619; y: −0.821143388748" role="graphics-symbol" aria-roledescription="point" transform="translate(98.89447331428528,208.4260030226274)" d="M1.581,0A1.581,1.581,0,1,1,-1.581,0A1.581,1.581,0,1,1,1.581,0" stroke="black" stroke-width="2" opacity="0.3"/><path aria-label="x: −1.67336690426; y: −0.953240990639" role="graphics-symbol" aria-roledescription="point" transform="translate(99.79899287223816,215.6313267621127)" d="M1.581,0A1.581,1.581,0,1,1,-1.581,0A1.581,1.581,0,1,1,1.581,0" stroke="black" stroke-width="2" opacity="0.3"/><path aria-label="x: −1.64321613312; y: −0.961888253689" role="graphics-symbol" aria-roledescription="point" transform="translate(100.70351600646973,216.10299565575338)" d="M1.581,0A1.581,1.581,0,1,1,-1.581,0A1.581,1.581,0,1,1,1.581,0" stroke="black" stroke-width="2" opacity="0.3"/><path aria-label="x: −1.6130656004; y: −0.854726433754" role="graphics-symbol" aria-roledescription="point" transform="translate(101.60803198814392,210.25780547748911)" d="M1.581,0A1.581,1.581,0,1,1,-1.581,0A1.581,1.581,0,1,1,1.581,0" stroke="black" stroke-width="2" opacity="0.3"/><path aria-label="x: −1.58291447163; y: −0.952979683876" role="graphics-symbol" aria-roledescription="point" transform="translate(102.51256585121155,215.61707366596568)" d="M1.581,0A1.581,1.581,0,1,1,-1.581,0A1.581,1.581,0,1,1,1.581,0" stroke="black" stroke-width="2" opacity="0.3"/><path aria-label="x: −1.5527639389; y: −0.865039885044" role="graphics-symbol" aria-roledescription="point" transform="translate(103.41708183288574,210.82035736604172)" d="M1.581,0A1.581,1.581,0,1,1,-1.581,0A1.581,1.581,0,1,1,1.581,0" stroke="black" stroke-width="2" opacity="0.3"/><path aria-label="x: −1.52261304855; y: −0.88799238205" role="graphics-symbol" aria-roledescription="point" transform="translate(104.321608543396,212.07231174815786)" d="M1.581,0A1.581,1.581,0,1,1,-1.581,0A1.581,1.581,0,1,1,1.581,0" stroke="black" stroke-width="2" opacity="0.3"/><path aria-label="x: −1.49246227741; y: −1.08503746986" role="graphics-symbol" aria-roledescription="point" transform="translate(105.22613167762756,222.82022562893954)" d="M1.581,0A1.581,1.581,0,1,1,-1.581,0A1.581,1.581,0,1,1,1.581,0" stroke="black" stroke-width="2" opacity="0.3"/><path aria-label="x: −1.46231162548; y: −0.709683537483" role="graphics-symbol" aria-roledescription="point" transform="translate(106.13065123558044,202.34637477181172)" d="M1.581,0A1.581,1.581,0,1,1,-1.581,0A1.581,1.581,0,1,1,1.581,0" stroke="black" stroke-width="2" opacity="0.3"/><path aria-label="x: −1.43216085434; y: −0.807590842247" role="graphics-symbol" aria-roledescription="point" transform="translate(107.03517436981201,207.68677321347323)" d="M1.581,0A1.581,1.581,0,1,1,-1.581,0A1.581,1.581,0,1,1,1.581,0" stroke="black" stroke-width="2" opacity="0.3"/><path aria-label="x: −1.4020100832; y: −0.717007160187" role="graphics-symbol" aria-roledescription="point" transform="translate(107.93969750404358,202.7458451010964)" d="M1.581,0A1.581,1.581,0,1,1,-1.581,0A1.581,1.581,0,1,1,1.581,0" stroke="black" stroke-width="2" opacity="0.3"/><path aria-label="x: −1.37185943127; y: −0.714496254921" role="graphics-symbol" aria-roledescription="point" transform="translate(108.84421706199646,202.60888663205233)" d="M1.581,0A1.581,1.581,0,1,1,-1.581,0A1.581,1.581,0,1,1,1.581,0" stroke="black" stroke-width="2" opacity="0.3"/><path aria-label="x: −1.34170866013; y: −0.949242413044" role="graphics-symbol" aria-roledescription="point" transform="translate(109.74874019622803,215.41322252967143)" d="M1.581,0A1.581,1.581,0,1,1,-1.581,0A1.581,1.581,0,1,1,1.581,0" stroke="black" stroke-width="2" opacity="0.3"/><path aria-label="x: −1.31155776978; y: −0.743804454803" role="graphics-symbol" aria-roledescription="point" transform="translate(110.65326690673828,204.20751571655273)" d="M1.581,0A1.581,1.581,0,1,1,-1.581,0A1.581,1.581,0,1,1,1.581,0" stroke="black" stroke-width="2" opacity="0.3"/><path aria-label="x: −1.28140723705; y: −0.953978776932" role="graphics-symbol" aria-roledescription="point" transform="translate(111.55778288841248,215.67156965082341)" d="M1.581,0A1.581,1.581,0,1,1,-1.581,0A1.581,1.581,0,1,1,1.581,0" stroke="black" stroke-width="2" opacity="0.3"/><path aria-label="x: −1.25125622749; y: −0.741539895535" role="graphics-symbol" aria-roledescription="point" transform="translate(112.46231317520142,204.08399430188265)" d="M1.581,0A1.581,1.581,0,1,1,-1.581,0A1.581,1.581,0,1,1,1.581,0" stroke="black" stroke-width="2" opacity="0.3"/><path aria-label="x: −1.22110557556; y: −0.857699275017" role="graphics-symbol" aria-roledescription="point" transform="translate(113.3668327331543,210.41996045546097)" d="M1.581,0A1.581,1.581,0,1,1,-1.581,0A1.581,1.581,0,1,1,1.581,0" stroke="black" stroke-width="2" opacity="0.3"/><path aria-label="x: −1.19095480442; y: −0.744502067566" role="graphics-symbol" aria-roledescription="point" transform="translate(114.27135586738586,204.24556732177734)" d="M1.581,0A1.581,1.581,0,1,1,-1.581,0A1.581,1.581,0,1,1,1.581,0" stroke="black" stroke-width="2" opacity="0.3"/><path aria-label="x: −1.16080391407; y: −0.780781567097" role="graphics-symbol" aria-roledescription="point" transform="translate(115.17588257789612,206.224449114366)" d="M1.581,0A1.581,1.581,0,1,1,-1.581,0A1.581,1.581,0,1,1,1.581,0" stroke="black" stroke-width="2" opacity="0.3"/><path aria-label="x: −1.13065338135; y: −0.87333124876" role="graphics-symbol" aria-roledescription="point" transform="translate(116.08039855957031,211.27261356873947)" d="M1.581,0A1.581,1.581,0,1,1,-1.581,0A1.581,1.581,0,1,1,1.581,0" stroke="black" stroke-width="2" opacity="0.3"/><path aria-label="x: −1.100502491; y: −0.777640104294" role="graphics-symbol" aria-roledescription="point" transform="translate(116.98492527008057,206.0530965978449)" d="M1.581,0A1.581,1.581,0,1,1,-1.581,0A1.581,1.581,0,1,1,1.581,0" stroke="black" stroke-width="2" opacity="0.3"/><path aria-label="x: −1.07035171986; y: −1.03792476654" role="graphics-symbol" aria-roledescription="point" transform="translate(117.88944840431213,220.25044181130147)" d="M1.581,0A1.581,1.581,0,1,1,-1.581,0A1.581,1.581,0,1,1,1.581,0" stroke="black" stroke-width="2" opacity="0.3"/><path aria-label="x: −1.04020118713; y: −0.849463880062" role="graphics-symbol" aria-roledescription="point" transform="translate(118.79396438598633,209.97075709429654)" d="M1.581,0A1.581,1.581,0,1,1,-1.581,0A1.581,1.581,0,1,1,1.581,0" stroke="black" stroke-width="2" opacity="0.3"/><path aria-label="x: −1.01005029678; y: −0.784525930882" role="graphics-symbol" aria-roledescription="point" transform="translate(119.69849109649658,206.42868713899094)" d="M1.581,0A1.581,1.581,0,1,1,-1.581,0A1.581,1.581,0,1,1,1.581,0" stroke="black" stroke-width="2" opacity="0.3"/><path aria-label="x: −0.979899585247; y: −0.51453769207" role="graphics-symbol" aria-roledescription="point" transform="translate(120.6030124425888,191.7020559310913)" d="M1.581,0A1.581,1.581,0,1,1,-1.581,0A1.581,1.581,0,1,1,1.581,0" stroke="black" stroke-width="2" opacity="0.3"/><path aria-label="x: −0.949748814106; y: −0.91927331686" role="graphics-symbol" aria-roledescription="point" transform="translate(121.50753557682037,213.77854455601084)" d="M1.581,0A1.581,1.581,0,1,1,-1.581,0A1.581,1.581,0,1,1,1.581,0" stroke="black" stroke-width="2" opacity="0.3"/><path aria-label="x: −0.91959798336; y: −0.829338431358" role="graphics-symbol" aria-roledescription="point" transform="translate(122.41206049919128,208.8730053468184)" d="M1.581,0A1.581,1.581,0,1,1,-1.581,0A1.581,1.581,0,1,1,1.581,0" stroke="black" stroke-width="2" opacity="0.3"/><path aria-label="x: −0.889447271824; y: −0.837922096252" role="graphics-symbol" aria-roledescription="point" transform="translate(123.31658184528351,209.34120525013316)" d="M1.581,0A1.581,1.581,0,1,1,-1.581,0A1.581,1.581,0,1,1,1.581,0" stroke="black" stroke-width="2" opacity="0.3"/><path aria-label="x: −0.859296441078; y: −0.845971345901" role="graphics-symbol" aria-roledescription="point" transform="translate(124.22110676765442,209.78025523099032)" d="M1.581,0A1.581,1.581,0,1,1,-1.581,0A1.581,1.581,0,1,1,1.581,0" stroke="black" stroke-width="2" opacity="0.3"/><path aria-label="x: −0.829145848751; y: −0.671495378017" role="graphics-symbol" aria-roledescription="point" transform="translate(125.12562453746796,200.26338425549594)" d="M1.581,0A1.581,1.581,0,1,1,-1.581,0A1.581,1.581,0,1,1,1.581,0" stroke="black" stroke-width="2" opacity="0.3"/><path aria-label="x: −0.798995018005; y: −0.48332464695" role="graphics-symbol" aria-roledescription="point" transform="translate(126.03014945983887,189.99952619726008)" d="M1.581,0A1.581,1.581,0,1,1,-1.581,0A1.581,1.581,0,1,1,1.581,0" stroke="black" stroke-width="2" opacity="0.3"/><path aria-label="x: −0.768844246864; y: −0.518487095833" role="graphics-symbol" aria-roledescription="point" transform="translate(126.93467259407043,191.91747795451772)" d="M1.581,0A1.581,1.581,0,1,1,-1.581,0A1.581,1.581,0,1,1,1.581,0" stroke="black" stroke-width="2" opacity="0.3"/><path aria-label="x: −0.738693654537; y: −0.579135894775" role="graphics-symbol" aria-roledescription="point" transform="translate(127.83919036388397,195.22559426047587)" d="M1.581,0A1.581,1.581,0,1,1,-1.581,0A1.581,1.581,0,1,1,1.581,0" stroke="black" stroke-width="2" opacity="0.3"/><path aria-label="x: −0.708542823792; y: −0.556814074516" role="graphics-symbol" aria-roledescription="point" transform="translate(128.74371528625488,194.00804042816162)" d="M1.581,0A1.581,1.581,0,1,1,-1.581,0A1.581,1.581,0,1,1,1.581,0" stroke="black" stroke-width="2" opacity="0.3"/><path aria-label="x: −0.678391993046; y: −0.521378755569" role="graphics-symbol" aria-roledescription="point" transform="translate(129.6482402086258,192.07520484924316)" d="M1.581,0A1.581,1.581,0,1,1,-1.581,0A1.581,1.581,0,1,1,1.581,0" stroke="black" stroke-width="2" opacity="0.3"/><path aria-label="x: −0.648241281509; y: −0.485676974058" role="graphics-symbol" aria-roledescription="point" transform="translate(130.55276155471802,190.12783494862643)" d="M1.581,0A1.581,1.581,0,1,1,-1.581,0A1.581,1.581,0,1,1,1.581,0" stroke="black" stroke-width="2" opacity="0.3"/><path aria-label="x: −0.618090450764; y: −0.562626123428" role="graphics-symbol" aria-roledescription="point" transform="translate(131.45728647708893,194.3250612779097)" d="M1.581,0A1.581,1.581,0,1,1,-1.581,0A1.581,1.581,0,1,1,1.581,0" stroke="black" stroke-width="2" opacity="0.3"/><path aria-label="x: −0.587939739227; y: −0.595287501812" role="graphics-symbol" aria-roledescription="point" transform="translate(132.36180782318115,196.10659100792623)" d="M1.581,0A1.581,1.581,0,1,1,-1.581,0A1.581,1.581,0,1,1,1.581,0" stroke="black" stroke-width="2" opacity="0.3"/><path aria-label="x: −0.557788968086; y: −0.357349097729" role="graphics-symbol" aria-roledescription="point" transform="translate(133.26633095741272,183.1281326033852)" d="M1.581,0A1.581,1.581,0,1,1,-1.581,0A1.581,1.581,0,1,1,1.581,0" stroke="black" stroke-width="2" opacity="0.3"/><path aria-label="x: −0.527638137341; y: −0.500023305416" role="graphics-symbol" aria-roledescription="point" transform="translate(134.17085587978363,190.91036211360586)" d="M1.581,0A1.581,1.581,0,1,1,-1.581,0A1.581,1.581,0,1,1,1.581,0" stroke="black" stroke-width="2" opacity="0.3"/><path aria-label="x: −0.497487545013; y: −0.638768911362" role="graphics-symbol" aria-roledescription="point" transform="translate(135.07537364959717,198.47830425609243)" d="M1.581,0A1.581,1.581,0,1,1,-1.581,0A1.581,1.581,0,1,1,1.581,0" stroke="black" stroke-width="2" opacity="0.3"/><path aria-label="x: −0.467336714268; y: −0.497028231621" role="graphics-symbol" aria-roledescription="point" transform="translate(135.97989857196808,190.746994452043)" d="M1.581,0A1.581,1.581,0,1,1,-1.581,0A1.581,1.581,0,1,1,1.581,0" stroke="black" stroke-width="2" opacity="0.3"/><path aria-label="x: −0.437186151743; y: −0.2224021703" role="graphics-symbol" aria-roledescription="point" transform="translate(136.88441544771194,175.7673911072991)" d="M1.581,0A1.581,1.581,0,1,1,-1.581,0A1.581,1.581,0,1,1,1.581,0" stroke="black" stroke-width="2" opacity="0.3"/><path aria-label="x: −0.407035320997; y: −0.423238039017" role="graphics-symbol" aria-roledescription="point" transform="translate(137.78894037008286,186.72207485545766)" d="M1.581,0A1.581,1.581,0,1,1,-1.581,0A1.581,1.581,0,1,1,1.581,0" stroke="black" stroke-width="2" opacity="0.3"/><path aria-label="x: −0.376884490252; y: −0.0911483466625" role="graphics-symbol" aria-roledescription="point" transform="translate(138.69346529245377,168.60809163613754)" d="M1.581,0A1.581,1.581,0,1,1,-1.581,0A1.581,1.581,0,1,1,1.581,0" stroke="black" stroke-width="2" opacity="0.3"/><path aria-label="x: −0.346733808517; y: −0.385901838541" role="graphics-symbol" aria-roledescription="point" transform="translate(139.59798574447632,184.68555482951078)" d="M1.581,0A1.581,1.581,0,1,1,-1.581,0A1.581,1.581,0,1,1,1.581,0" stroke="black" stroke-width="2" opacity="0.3"/><path aria-label="x: −0.316582977772; y: −0.16913677752" role="graphics-symbol" aria-roledescription="point" transform="translate(140.50251066684723,172.86200604655528)" d="M1.581,0A1.581,1.581,0,1,1,-1.581,0A1.581,1.581,0,1,1,1.581,0" stroke="black" stroke-width="2" opacity="0.3"/><path aria-label="x: −0.286432147026; y: −0.360665559769" role="graphics-symbol" aria-roledescription="point" transform="translate(141.40703558921814,183.3090305328369)" d="M1.581,0A1.581,1.581,0,1,1,-1.581,0A1.581,1.581,0,1,1,1.581,0" stroke="black" stroke-width="2" opacity="0.3"/><path aria-label="x: −0.25628143549; y: −0.133280992508" role="graphics-symbol" aria-roledescription="point" transform="translate(142.31155693531036,170.90623595497823)" d="M1.581,0A1.581,1.581,0,1,1,-1.581,0A1.581,1.581,0,1,1,1.581,0" stroke="black" stroke-width="2" opacity="0.3"/><path aria-label="x: −0.226130634546; y: −0.189114749432" role="graphics-symbol" aria-roledescription="point" transform="translate(143.2160809636116,173.95171360536057)" d="M1.581,0A1.581,1.581,0,1,1,-1.581,0A1.581,1.581,0,1,1,1.581,0" stroke="black" stroke-width="2" opacity="0.3"/><path aria-label="x: −0.195980042219; y: −0.179086431861" role="graphics-symbol" aria-roledescription="point" transform="translate(144.12059873342514,173.4047144651413)" d="M1.581,0A1.581,1.581,0,1,1,-1.581,0A1.581,1.581,0,1,1,1.581,0" stroke="black" stroke-width="2" opacity="0.3"/><path aria-label="x: −0.165829226375; y: 0.0210555940866" role="graphics-symbol" aria-roledescription="point" transform="translate(145.02512320876122,162.4878766861829)" d="M1.581,0A1.581,1.581,0,1,1,-1.581,0A1.581,1.581,0,1,1,1.581,0" stroke="black" stroke-width="2" opacity="0.3"/><path aria-label="x: −0.135678395629; y: −0.174912646413" role="graphics-symbol" aria-roledescription="point" transform="translate(145.92964813113213,173.1770534407009)" d="M1.581,0A1.581,1.581,0,1,1,-1.581,0A1.581,1.581,0,1,1,1.581,0" stroke="black" stroke-width="2" opacity="0.3"/><path aria-label="x: −0.105527818203; y: −0.248017132282" role="graphics-symbol" aria-roledescription="point" transform="translate(146.83416545391083,177.1645708517595)" d="M1.581,0A1.581,1.581,0,1,1,-1.581,0A1.581,1.581,0,1,1,1.581,0" stroke="black" stroke-width="2" opacity="0.3"/><path aria-label="x: −0.0753769949079; y: −0.00756651163101" role="graphics-symbol" aria-roledescription="point" transform="translate(147.73869015276432,164.04908245260066)" d="M1.581,0A1.581,1.581,0,1,1,-1.581,0A1.581,1.581,0,1,1,1.581,0" stroke="black" stroke-width="2" opacity="0.3"/><path aria-label="x: −0.0452262945473; y: −0.0768021643162" role="graphics-symbol" aria-roledescription="point" transform="translate(148.64321116358042,167.82557259906423)" d="M1.581,0A1.581,1.581,0,1,1,-1.581,0A1.581,1.581,0,1,1,1.581,0" stroke="black" stroke-width="2" opacity="0.3"/><path aria-label="x: −0.0150754731148; y: −0.14023207128" role="graphics-symbol" aria-roledescription="point" transform="translate(149.54773580655456,171.285385706208)" d="M1.581,0A1.581,1.581,0,1,1,-1.581,0A1.581,1.581,0,1,1,1.581,0" stroke="black" stroke-width="2" opacity="0.3"/><path aria-label="x: 0.0150752291083; y: −0.257933557034" role="graphics-symbol" aria-roledescription="point" transform="translate(150.45225687325,177.70546674728394)" d="M1.581,0A1.581,1.581,0,1,1,-1.581,0A1.581,1.581,0,1,1,1.581,0" stroke="black" stroke-width="2" opacity="0.3"/><path aria-label="x: 0.0452260524035; y: 0.0796823948622" role="graphics-symbol" aria-roledescription="point" transform="translate(151.3567815721035,159.2900511893359)" d="M1.581,0A1.581,1.581,0,1,1,-1.581,0A1.581,1.581,0,1,1,1.581,0" stroke="black" stroke-width="2" opacity="0.3"/><path aria-label="x: 0.075376868248; y: 0.0239791609347" role="graphics-symbol" aria-roledescription="point" transform="translate(152.26130604743958,162.32840940356255)" d="M1.581,0A1.581,1.581,0,1,1,-1.581,0A1.581,1.581,0,1,1,1.581,0" stroke="black" stroke-width="2" opacity="0.3"/><path aria-label="x: 0.105527572334; y: 0.32250508666" role="graphics-symbol" aria-roledescription="point" transform="translate(153.16582717001438,146.04517709125173)" d="M1.581,0A1.581,1.581,0,1,1,-1.581,0A1.581,1.581,0,1,1,1.581,0" stroke="black" stroke-width="2" opacity="0.3"/><path aria-label="x: 0.13567827642; y: 0.0324996039271" role="graphics-symbol" aria-roledescription="point" transform="translate(154.0703482925892,161.86365796761078)" d="M1.581,0A1.581,1.581,0,1,1,-1.581,0A1.581,1.581,0,1,1,1.581,0" stroke="black" stroke-width="2" opacity="0.3"/><path aria-label="x: 0.165829092264; y: 0.286345213652" role="graphics-symbol" aria-roledescription="point" transform="translate(154.97487276792526,148.0175338008187)" d="M1.581,0A1.581,1.581,0,1,1,-1.581,0A1.581,1.581,0,1,1,1.581,0" stroke="black" stroke-width="2" opacity="0.3"/><path aria-label="x: 0.195979803801; y: 0.120707504451" role="graphics-symbol" aria-roledescription="point" transform="translate(155.8793941140175,157.05231793902135)" d="M1.581,0A1.581,1.581,0,1,1,-1.581,0A1.581,1.581,0,1,1,1.581,0" stroke="black" stroke-width="2" opacity="0.3"/><path aria-label="x: 0.226130500436; y: 0.096229031682" role="graphics-symbol" aria-roledescription="point" transform="translate(156.78391501307487,158.38750736279923)" d="M1.581,0A1.581,1.581,0,1,1,-1.581,0A1.581,1.581,0,1,1,1.581,0" stroke="black" stroke-width="2" opacity="0.3"/><path aria-label="x: 0.25628131628; y: 0.268478989601" role="graphics-symbol" aria-roledescription="point" transform="translate(157.68843948841095,148.99205511266535)" d="M1.581,0A1.581,1.581,0,1,1,-1.581,0A1.581,1.581,0,1,1,1.581,0" stroke="black" stroke-width="2" opacity="0.3"/><path aria-label="x: 0.286432147026; y: 0.214595615864" role="graphics-symbol" aria-roledescription="point" transform="translate(158.59296441078186,151.9311482256109)" d="M1.581,0A1.581,1.581,0,1,1,-1.581,0A1.581,1.581,0,1,1,1.581,0" stroke="black" stroke-width="2" opacity="0.3"/><path aria-label="x: 0.316582858562; y: 0.39204955101" role="graphics-symbol" aria-roledescription="point" transform="translate(159.49748575687408,142.25184267217463)" d="M1.581,0A1.581,1.581,0,1,1,-1.581,0A1.581,1.581,0,1,1,1.581,0" stroke="black" stroke-width="2" opacity="0.3"/><path aria-label="x: 0.346733540297; y: 0.410941511393" role="graphics-symbol" aria-roledescription="point" transform="translate(160.40200620889664,141.22137210585853)" d="M1.581,0A1.581,1.581,0,1,1,-1.581,0A1.581,1.581,0,1,1,1.581,0" stroke="black" stroke-width="2" opacity="0.3"/><path aria-label="x: 0.376884371042; y: 0.339648216963" role="graphics-symbol" aria-roledescription="point" transform="translate(161.30653113126755,145.11009725657377)" d="M1.581,0A1.581,1.581,0,1,1,-1.581,0A1.581,1.581,0,1,1,1.581,0" stroke="black" stroke-width="2" opacity="0.3"/><path aria-label="x: 0.407035082579; y: 0.551530301571" role="graphics-symbol" aria-roledescription="point" transform="translate(162.21105247735977,133.5528926415877)" d="M1.581,0A1.581,1.581,0,1,1,-1.581,0A1.581,1.581,0,1,1,1.581,0" stroke="black" stroke-width="2" opacity="0.3"/><path aria-label="x: 0.437185883522; y: 0.243089273572" role="graphics-symbol" aria-roledescription="point" transform="translate(163.115576505661,150.3769487142563)" d="M1.581,0A1.581,1.581,0,1,1,-1.581,0A1.581,1.581,0,1,1,1.581,0" stroke="black" stroke-width="2" opacity="0.3"/><path aria-label="x: 0.467336595058; y: 0.49875587225" role="graphics-symbol" aria-roledescription="point" transform="translate(164.02009785175323,136.43149787729436)" d="M1.581,0A1.581,1.581,0,1,1,-1.581,0A1.581,1.581,0,1,1,1.581,0" stroke="black" stroke-width="2" opacity="0.3"/><path aria-label="x: 0.497487306595; y: 0.571292161942" role="graphics-symbol" aria-roledescription="point" transform="translate(164.92461919784546,132.47497298500755)" d="M1.581,0A1.581,1.581,0,1,1,-1.581,0A1.581,1.581,0,1,1,1.581,0" stroke="black" stroke-width="2" opacity="0.3"/><path aria-label="x: 0.527638018131; y: 0.52882963419" role="graphics-symbol" aria-roledescription="point" transform="translate(165.82914054393768,134.79111086238515)" d="M1.581,0A1.581,1.581,0,1,1,-1.581,0A1.581,1.581,0,1,1,1.581,0" stroke="black" stroke-width="2" opacity="0.3"/><path aria-label="x: 0.557788848877; y: 0.626009225845" role="graphics-symbol" aria-roledescription="point" transform="translate(166.7336654663086,129.49040586298162)" d="M1.581,0A1.581,1.581,0,1,1,-1.581,0A1.581,1.581,0,1,1,1.581,0" stroke="black" stroke-width="2" opacity="0.3"/><path aria-label="x: 0.587939620018; y: 0.500097990036" role="graphics-symbol" aria-roledescription="point" transform="translate(167.63818860054016,136.35829145258123)" d="M1.581,0A1.581,1.581,0,1,1,-1.581,0A1.581,1.581,0,1,1,1.581,0" stroke="black" stroke-width="2" opacity="0.3"/><path aria-label="x: 0.618090331554; y: 0.383230626583" role="graphics-symbol" aria-roledescription="point" transform="translate(168.54270994663239,142.7328749136491)" d="M1.581,0A1.581,1.581,0,1,1,-1.581,0A1.581,1.581,0,1,1,1.581,0" stroke="black" stroke-width="2" opacity="0.3"/><path aria-label="x: 0.648241043091; y: 0.573636293411" role="graphics-symbol" aria-roledescription="point" transform="translate(169.4472312927246,132.347111268477)" d="M1.581,0A1.581,1.581,0,1,1,-1.581,0A1.581,1.581,0,1,1,1.581,0" stroke="black" stroke-width="2" opacity="0.3"/><path aria-label="x: 0.678391873837; y: 0.516038477421" role="graphics-symbol" aria-roledescription="point" transform="translate(170.35175621509552,135.48881032250145)" d="M1.581,0A1.581,1.581,0,1,1,-1.581,0A1.581,1.581,0,1,1,1.581,0" stroke="black" stroke-width="2" opacity="0.3"/><path aria-label="x: 0.708542704582; y: 0.739360570908" role="graphics-symbol" aria-roledescription="point" transform="translate(171.25628113746643,123.30760522322223)" d="M1.581,0A1.581,1.581,0,1,1,-1.581,0A1.581,1.581,0,1,1,1.581,0" stroke="black" stroke-width="2" opacity="0.3"/><path aria-label="x: 0.738693416119; y: 0.72654402256" role="graphics-symbol" aria-roledescription="point" transform="translate(172.16080248355865,124.00668967853892)" d="M1.581,0A1.581,1.581,0,1,1,-1.581,0A1.581,1.581,0,1,1,1.581,0" stroke="black" stroke-width="2" opacity="0.3"/><path aria-label="x: 0.76884406805; y: 0.619955062866" role="graphics-symbol" aria-roledescription="point" transform="translate(173.06532204151154,129.8206329345703)" d="M1.581,0A1.581,1.581,0,1,1,-1.581,0A1.581,1.581,0,1,1,1.581,0" stroke="black" stroke-width="2" opacity="0.3"/><path aria-label="x: 0.798994898796; y: 0.758117139339" role="graphics-symbol" aria-roledescription="point" transform="translate(173.96984696388245,122.2845196723938)" d="M1.581,0A1.581,1.581,0,1,1,-1.581,0A1.581,1.581,0,1,1,1.581,0" stroke="black" stroke-width="2" opacity="0.3"/><path aria-label="x: 0.829145610332; y: 0.647667765617" role="graphics-symbol" aria-roledescription="point" transform="translate(174.87436830997467,128.30903096632525)" d="M1.581,0A1.581,1.581,0,1,1,-1.581,0A1.581,1.581,0,1,1,1.581,0" stroke="black" stroke-width="2" opacity="0.3"/><path aria-label="x: 0.859296321869; y: 0.561817407608" role="graphics-symbol" aria-roledescription="point" transform="translate(175.7788896560669,132.99177776683462)" d="M1.581,0A1.581,1.581,0,1,1,-1.581,0A1.581,1.581,0,1,1,1.581,0" stroke="black" stroke-width="2" opacity="0.3"/><path aria-label="x: 0.889447152615; y: 0.633892059326" role="graphics-symbol" aria-roledescription="point" transform="translate(176.6834145784378,129.06043312766334)" d="M1.581,0A1.581,1.581,0,1,1,-1.581,0A1.581,1.581,0,1,1,1.581,0" stroke="black" stroke-width="2" opacity="0.3"/><path aria-label="x: 0.919597864151; y: 0.809197425842" role="graphics-symbol" aria-roledescription="point" transform="translate(177.58793592453003,119.49832222678444)" d="M1.581,0A1.581,1.581,0,1,1,-1.581,0A1.581,1.581,0,1,1,1.581,0" stroke="black" stroke-width="2" opacity="0.3"/><path aria-label="x: 0.949748694897; y: 0.845760285854" role="graphics-symbol" aria-roledescription="point" transform="translate(178.49246084690094,117.50398440794513)" d="M1.581,0A1.581,1.581,0,1,1,-1.581,0A1.581,1.581,0,1,1,1.581,0" stroke="black" stroke-width="2" opacity="0.3"/><path aria-label="x: 0.979899346828; y: 0.797263205051" role="graphics-symbol" aria-roledescription="point" transform="translate(179.39698040485382,120.14927972446787)" d="M1.581,0A1.581,1.581,0,1,1,-1.581,0A1.581,1.581,0,1,1,1.581,0" stroke="black" stroke-width="2" opacity="0.3"/><path aria-label="x: 1.01005017757; y: 0.779570043087" role="graphics-symbol" aria-roledescription="point" transform="translate(180.30150532722473,121.11436128616333)" d="M1.581,0A1.581,1.581,0,1,1,-1.581,0A1.581,1.581,0,1,1,1.581,0" stroke="black" stroke-width="2" opacity="0.3"/><path aria-label="x: 1.04020094872; y: 0.63926833868" role="graphics-symbol" aria-roledescription="point" transform="translate(181.2060284614563,128.76718152653086)" d="M1.581,0A1.581,1.581,0,1,1,-1.581,0A1.581,1.581,0,1,1,1.581,0" stroke="black" stroke-width="2" opacity="0.3"/><path aria-label="x: 1.07035171986; y: 0.858616948128" role="graphics-symbol" aria-roledescription="point" transform="translate(182.11055159568787,116.80271192030474)" d="M1.581,0A1.581,1.581,0,1,1,-1.581,0A1.581,1.581,0,1,1,1.581,0" stroke="black" stroke-width="2" opacity="0.3"/><path aria-label="x: 1.10050237179; y: 0.754433274269" role="graphics-symbol" aria-roledescription="point" transform="translate(183.01507115364075,122.48545776713979)" d="M1.581,0A1.581,1.581,0,1,1,-1.581,0A1.581,1.581,0,1,1,1.581,0" stroke="black" stroke-width="2" opacity="0.3"/><path aria-label="x: 1.13065314293; y: 1.02681171894" role="graphics-symbol" aria-roledescription="point" transform="translate(183.91959428787231,107.62845169414175)" d="M1.581,0A1.581,1.581,0,1,1,-1.581,0A1.581,1.581,0,1,1,1.581,0" stroke="black" stroke-width="2" opacity="0.3"/><path aria-label="x: 1.16080391407; y: 0.789532542229" role="graphics-symbol" aria-roledescription="point" transform="translate(184.82411742210388,120.57095224207097)" d="M1.581,0A1.581,1.581,0,1,1,-1.581,0A1.581,1.581,0,1,1,1.581,0" stroke="black" stroke-width="2" opacity="0.3"/><path aria-label="x: 1.19095468521; y: 0.869101464748" role="graphics-symbol" aria-roledescription="point" transform="translate(185.72864055633545,116.23082919554278)" d="M1.581,0A1.581,1.581,0,1,1,-1.581,0A1.581,1.581,0,1,1,1.581,0" stroke="black" stroke-width="2" opacity="0.3"/><path aria-label="x: 1.22110545635; y: 1.02140462399" role="graphics-symbol" aria-roledescription="point" transform="translate(186.63316369056702,107.9233841462569)" d="M1.581,0A1.581,1.581,0,1,1,-1.581,0A1.581,1.581,0,1,1,1.581,0" stroke="black" stroke-width="2" opacity="0.3"/><path aria-label="x: 1.25125610828; y: 0.870441675186" role="graphics-symbol" aria-roledescription="point" transform="translate(187.5376832485199,116.15772680802777)" d="M1.581,0A1.581,1.581,0,1,1,-1.581,0A1.581,1.581,0,1,1,1.581,0" stroke="black" stroke-width="2" opacity="0.3"/><path aria-label="x: 1.28140687943; y: 0.759826660156" role="graphics-symbol" aria-roledescription="point" transform="translate(188.44220638275146,122.19127308238637)" d="M1.581,0A1.581,1.581,0,1,1,-1.581,0A1.581,1.581,0,1,1,1.581,0" stroke="black" stroke-width="2" opacity="0.3"/><path aria-label="x: 1.31155765057; y: 0.875707507133" role="graphics-symbol" aria-roledescription="point" transform="translate(189.34672951698303,115.87049961090088)" d="M1.581,0A1.581,1.581,0,1,1,-1.581,0A1.581,1.581,0,1,1,1.581,0" stroke="black" stroke-width="2" opacity="0.3"/><path aria-label="x: 1.34170842171; y: 0.80471521616" role="graphics-symbol" aria-roledescription="point" transform="translate(190.2512526512146,119.74280639128253)" d="M1.581,0A1.581,1.581,0,1,1,-1.581,0A1.581,1.581,0,1,1,1.581,0" stroke="black" stroke-width="2" opacity="0.3"/><path aria-label="x: 1.37185919285; y: 0.858152747154" role="graphics-symbol" aria-roledescription="point" transform="translate(191.15577578544617,116.82803197340533)" d="M1.581,0A1.581,1.581,0,1,1,-1.581,0A1.581,1.581,0,1,1,1.581,0" stroke="black" stroke-width="2" opacity="0.3"/><path aria-label="x: 1.40200996399; y: 0.767150819302" role="graphics-symbol" aria-roledescription="point" transform="translate(192.06029891967773,121.79177349263972)" d="M1.581,0A1.581,1.581,0,1,1,-1.581,0A1.581,1.581,0,1,1,1.581,0" stroke="black" stroke-width="2" opacity="0.3"/><path aria-label="x: 1.43216061592; y: 0.882635712624" role="graphics-symbol" aria-roledescription="point" transform="translate(192.96481847763062,115.49259749325839)" d="M1.581,0A1.581,1.581,0,1,1,-1.581,0A1.581,1.581,0,1,1,1.581,0" stroke="black" stroke-width="2" opacity="0.3"/><path aria-label="x: 1.46231138706; y: 0.951476097107" role="graphics-symbol" aria-roledescription="point" transform="translate(193.86934161186218,111.7376674305309)" d="M1.581,0A1.581,1.581,0,1,1,-1.581,0A1.581,1.581,0,1,1,1.581,0" stroke="black" stroke-width="2" opacity="0.3"/><path aria-label="x: 1.4924621582; y: 0.787781178951" role="graphics-symbol" aria-roledescription="point" transform="translate(194.77386474609375,120.6664811481129)" d="M1.581,0A1.581,1.581,0,1,1,-1.581,0A1.581,1.581,0,1,1,1.581,0" stroke="black" stroke-width="2" opacity="0.3"/><path aria-label="x: 1.52261292934; y: 0.871405899525" role="graphics-symbol" aria-roledescription="point" transform="translate(195.67838788032532,116.1051327531988)" d="M1.581,0A1.581,1.581,0,1,1,-1.581,0A1.581,1.581,0,1,1,1.581,0" stroke="black" stroke-width="2" opacity="0.3"/><path aria-label="x: 1.55276370049; y: 0.738579928875" role="graphics-symbol" aria-roledescription="point" transform="translate(196.58291101455688,123.35018569772893)" d="M1.581,0A1.581,1.581,0,1,1,-1.581,0A1.581,1.581,0,1,1,1.581,0" stroke="black" stroke-width="2" opacity="0.3"/><path aria-label="x: 1.58291447163; y: 0.954787313938" role="graphics-symbol" aria-roledescription="point" transform="translate(197.48743414878845,111.55705560337412)" d="M1.581,0A1.581,1.581,0,1,1,-1.581,0A1.581,1.581,0,1,1,1.581,0" stroke="black" stroke-width="2" opacity="0.3"/><path aria-label="x: 1.61306524277; y: 0.83828163147" role="graphics-symbol" aria-roledescription="point" transform="translate(198.39195728302002,117.91191101074219)" d="M1.581,0A1.581,1.581,0,1,1,-1.581,0A1.581,1.581,0,1,1,1.581,0" stroke="black" stroke-width="2" opacity="0.3"/><path aria-label="x: 1.6432158947; y: 0.862855613232" role="graphics-symbol" aria-roledescription="point" transform="translate(199.2964768409729,116.57151200554588)" d="M1.581,0A1.581,1.581,0,1,1,-1.581,0A1.581,1.581,0,1,1,1.581,0" stroke="black" stroke-width="2" opacity="0.3"/><path aria-label="x: 1.67336666584; y: 0.898336946964" role="graphics-symbol" aria-roledescription="point" transform="translate(200.20099997520447,114.63616652922198)" d="M1.581,0A1.581,1.581,0,1,1,-1.581,0A1.581,1.581,0,1,1,1.581,0" stroke="black" stroke-width="2" opacity="0.3"/><path aria-label="x: 1.70351743698; y: 0.898353636265" role="graphics-symbol" aria-roledescription="point" transform="translate(201.10552310943604,114.63525620373812)" d="M1.581,0A1.581,1.581,0,1,1,-1.581,0A1.581,1.581,0,1,1,1.581,0" stroke="black" stroke-width="2" opacity="0.3"/><path aria-label="x: 1.73366820812; y: 1.08929610252" role="graphics-symbol" aria-roledescription="point" transform="translate(202.0100462436676,104.2202125896107)" d="M1.581,0A1.581,1.581,0,1,1,-1.581,0A1.581,1.581,0,1,1,1.581,0" stroke="black" stroke-width="2" opacity="0.3"/><path aria-label="x: 1.76381897926; y: 1.02075254917" role="graphics-symbol" aria-roledescription="point" transform="translate(202.91456937789917,107.95895186337557)" d="M1.581,0A1.581,1.581,0,1,1,-1.581,0A1.581,1.581,0,1,1,1.581,0" stroke="black" stroke-width="2" opacity="0.3"/><path aria-label="x: 1.7939697504; y: 0.784635841846" role="graphics-symbol" aria-roledescription="point" transform="translate(203.81909251213074,120.83804499019277)" d="M1.581,0A1.581,1.581,0,1,1,-1.581,0A1.581,1.581,0,1,1,1.581,0" stroke="black" stroke-width="2" opacity="0.3"/><path aria-label="x: 1.82412052155; y: 1.00301587582" role="graphics-symbol" aria-roledescription="point" transform="translate(204.7236156463623,108.9264067736539)" d="M1.581,0A1.581,1.581,0,1,1,-1.581,0A1.581,1.581,0,1,1,1.581,0" stroke="black" stroke-width="2" opacity="0.3"/><path aria-label="x: 1.85427117348; y: 0.754685759544" role="graphics-symbol" aria-roledescription="point" transform="translate(205.62813520431519,122.47168584303424)" d="M1.581,0A1.581,1.581,0,1,1,-1.581,0A1.581,1.581,0,1,1,1.581,0" stroke="black" stroke-width="2" opacity="0.3"/><path aria-label="x: 1.88442194462; y: 0.985260903835" role="graphics-symbol" aria-roledescription="point" transform="translate(206.53265833854675,109.894859790802)" d="M1.581,0A1.581,1.581,0,1,1,-1.581,0A1.581,1.581,0,1,1,1.581,0" stroke="black" stroke-width="2" opacity="0.3"/><path aria-label="x: 1.91457271576; y: 0.888310611248" role="graphics-symbol" aria-roledescription="point" transform="translate(207.43718147277832,115.18305756829002)" d="M1.581,0A1.581,1.581,0,1,1,-1.581,0A1.581,1.581,0,1,1,1.581,0" stroke="black" stroke-width="2" opacity="0.3"/><path aria-label="x: 1.9447234869; y: 0.824554204941" role="graphics-symbol" aria-roledescription="point" transform="translate(208.3417046070099,118.66067973050204)" d="M1.581,0A1.581,1.581,0,1,1,-1.581,0A1.581,1.581,0,1,1,1.581,0" stroke="black" stroke-width="2" opacity="0.3"/><path aria-label="x: 1.97487425804; y: 0.947563827038" role="graphics-symbol" aria-roledescription="point" transform="translate(209.24622774124146,111.95106397975576)" d="M1.581,0A1.581,1.581,0,1,1,-1.581,0A1.581,1.581,0,1,1,1.581,0" stroke="black" stroke-width="2" opacity="0.3"/><path aria-label="x: 2.00502490997; y: 1.02292013168" role="graphics-symbol" aria-roledescription="point" transform="translate(210.15074729919434,107.84072008999911)" d="M1.581,0A1.581,1.581,0,1,1,-1.581,0A1.581,1.581,0,1,1,1.581,0" stroke="black" stroke-width="2" opacity="0.3"/><path aria-label="x: 2.03517580032; y: 0.991546750069" role="graphics-symbol" aria-roledescription="point" transform="translate(211.0552740097046,109.55199545080012)" d="M1.581,0A1.581,1.581,0,1,1,-1.581,0A1.581,1.581,0,1,1,1.581,0" stroke="black" stroke-width="2" opacity="0.3"/><path aria-label="x: 2.06532645226; y: 0.790968358517" role="graphics-symbol" aria-roledescription="point" transform="translate(211.95979356765747,120.49263498999855)" d="M1.581,0A1.581,1.581,0,1,1,-1.581,0A1.581,1.581,0,1,1,1.581,0" stroke="black" stroke-width="2" opacity="0.3"/><path aria-label="x: 2.09547734261; y: 1.06887352467" role="graphics-symbol" aria-roledescription="point" transform="translate(212.86432027816772,105.33417138186368)" d="M1.581,0A1.581,1.581,0,1,1,-1.581,0A1.581,1.581,0,1,1,1.581,0" stroke="black" stroke-width="2" opacity="0.3"/><path aria-label="x: 2.12562799454; y: 0.916114509106" role="graphics-symbol" aria-roledescription="point" transform="translate(213.7688398361206,113.66648132150823)" d="M1.581,0A1.581,1.581,0,1,1,-1.581,0A1.581,1.581,0,1,1,1.581,0" stroke="black" stroke-width="2" opacity="0.3"/><path aria-label="x: 2.15577864647; y: 0.888988912106" role="graphics-symbol" aria-roledescription="point" transform="translate(214.6733593940735,115.1460593396967)" d="M1.581,0A1.581,1.581,0,1,1,-1.581,0A1.581,1.581,0,1,1,1.581,0" stroke="black" stroke-width="2" opacity="0.3"/><path aria-label="x: 2.18592953682; y: 0.844776570797" role="graphics-symbol" aria-roledescription="point" transform="translate(215.57788610458374,117.55764159289274)" d="M1.581,0A1.581,1.581,0,1,1,-1.581,0A1.581,1.581,0,1,1,1.581,0" stroke="black" stroke-width="2" opacity="0.3"/><path aria-label="x: 2.21608018875; y: 1.05327832699" role="graphics-symbol" aria-roledescription="point" transform="translate(216.48240566253662,106.18481852791527)" d="M1.581,0A1.581,1.581,0,1,1,-1.581,0A1.581,1.581,0,1,1,1.581,0" stroke="black" stroke-width="2" opacity="0.3"/><path aria-label="x: 2.2462310791; y: 0.970354855061" role="graphics-symbol" aria-roledescription="point" transform="translate(217.38693237304688,110.70791699669579)" d="M1.581,0A1.581,1.581,0,1,1,-1.581,0A1.581,1.581,0,1,1,1.581,0" stroke="black" stroke-width="2" opacity="0.3"/><path aria-label="x: 2.27638173103; y: 1.06809568405" role="graphics-symbol" aria-roledescription="point" transform="translate(218.29145193099976,105.37659905173561)" d="M1.581,0A1.581,1.581,0,1,1,-1.581,0A1.581,1.581,0,1,1,1.581,0" stroke="black" stroke-width="2" opacity="0.3"/><path aria-label="x: 2.30653262138; y: 0.86952984333" role="graphics-symbol" aria-roledescription="point" transform="translate(219.19597864151,116.20746309107)" d="M1.581,0A1.581,1.581,0,1,1,-1.581,0A1.581,1.581,0,1,1,1.581,0" stroke="black" stroke-width="2" opacity="0.3"/><path aria-label="x: 2.33668327332; y: 1.09169983864" role="graphics-symbol" aria-roledescription="point" transform="translate(220.1004981994629,104.08909971063787)" d="M1.581,0A1.581,1.581,0,1,1,-1.581,0A1.581,1.581,0,1,1,1.581,0" stroke="black" stroke-width="2" opacity="0.3"/><path aria-label="x: 2.36683392525; y: 1.07132196426" role="graphics-symbol" aria-roledescription="point" transform="translate(221.00501775741577,105.20062013105914)" d="M1.581,0A1.581,1.581,0,1,1,-1.581,0A1.581,1.581,0,1,1,1.581,0" stroke="black" stroke-width="2" opacity="0.3"/><path aria-label="x: 2.3969848156; y: 0.937705039978" role="graphics-symbol" aria-roledescription="point" transform="translate(221.90954446792603,112.4888160011985)" d="M1.581,0A1.581,1.581,0,1,1,-1.581,0A1.581,1.581,0,1,1,1.581,0" stroke="black" stroke-width="2" opacity="0.3"/><path aria-label="x: 2.42713546753; y: 0.731567263603" role="graphics-symbol" aria-roledescription="point" transform="translate(222.8140640258789,123.73269471255216)" d="M1.581,0A1.581,1.581,0,1,1,-1.581,0A1.581,1.581,0,1,1,1.581,0" stroke="black" stroke-width="2" opacity="0.3"/><path aria-label="x: 2.45728635788; y: 0.954239845276" role="graphics-symbol" aria-roledescription="point" transform="translate(223.71859073638916,111.5869175304066)" d="M1.581,0A1.581,1.581,0,1,1,-1.581,0A1.581,1.581,0,1,1,1.581,0" stroke="black" stroke-width="2" opacity="0.3"/><path aria-label="x: 2.48743700981; y: 0.869072556496" role="graphics-symbol" aria-roledescription="point" transform="translate(224.62311029434204,116.23240600932729)" d="M1.581,0A1.581,1.581,0,1,1,-1.581,0A1.581,1.581,0,1,1,1.581,0" stroke="black" stroke-width="2" opacity="0.3"/><path aria-label="x: 2.51758790016; y: 1.23072957993" role="graphics-symbol" aria-roledescription="point" transform="translate(225.5276370048523,96.50565927678889)" d="M1.581,0A1.581,1.581,0,1,1,-1.581,0A1.581,1.581,0,1,1,1.581,0" stroke="black" stroke-width="2" opacity="0.3"/><path aria-label="x: 2.54773855209; y: 1.16666924953" role="graphics-symbol" aria-roledescription="point" transform="translate(226.43215656280518,99.99985911629418)" d="M1.581,0A1.581,1.581,0,1,1,-1.581,0A1.581,1.581,0,1,1,1.581,0" stroke="black" stroke-width="2" opacity="0.3"/><path aria-label="x: 2.57788920403; y: 0.889270365238" role="graphics-symbol" aria-roledescription="point" transform="translate(227.33667612075806,115.1307073506442)" d="M1.581,0A1.581,1.581,0,1,1,-1.581,0A1.581,1.581,0,1,1,1.581,0" stroke="black" stroke-width="2" opacity="0.3"/><path aria-label="x: 2.60804009438; y: 1.04775249958" role="graphics-symbol" aria-roledescription="point" transform="translate(228.2412028312683,106.48622729561546)" d="M1.581,0A1.581,1.581,0,1,1,-1.581,0A1.581,1.581,0,1,1,1.581,0" stroke="black" stroke-width="2" opacity="0.3"/><path aria-label="x: 2.63819074631; y: 1.07742404938" role="graphics-symbol" aria-roledescription="point" transform="translate(229.1457223892212,104.86777912486684)" d="M1.581,0A1.581,1.581,0,1,1,-1.581,0A1.581,1.581,0,1,1,1.581,0" stroke="black" stroke-width="2" opacity="0.3"/><path aria-label="x: 2.66834163666; y: 0.967730343342" role="graphics-symbol" aria-roledescription="point" transform="translate(230.05024909973145,110.85107218135488)" d="M1.581,0A1.581,1.581,0,1,1,-1.581,0A1.581,1.581,0,1,1,1.581,0" stroke="black" stroke-width="2" opacity="0.3"/><path aria-label="x: 2.69849228859; y: 1.12334775925" role="graphics-symbol" aria-roledescription="point" transform="translate(230.95476865768433,102.36284949562767)" d="M1.581,0A1.581,1.581,0,1,1,-1.581,0A1.581,1.581,0,1,1,1.581,0" stroke="black" stroke-width="2" opacity="0.3"/><path aria-label="x: 2.72864317894; y: 1.01153719425" role="graphics-symbol" aria-roledescription="point" transform="translate(231.85929536819458,108.46160758625376)" d="M1.581,0A1.581,1.581,0,1,1,-1.581,0A1.581,1.581,0,1,1,1.581,0" stroke="black" stroke-width="2" opacity="0.3"/><path aria-label="x: 2.75879383087; y: 1.11513543129" role="graphics-symbol" aria-roledescription="point" transform="translate(232.76381492614746,102.81079465692693)" d="M1.581,0A1.581,1.581,0,1,1,-1.581,0A1.581,1.581,0,1,1,1.581,0" stroke="black" stroke-width="2" opacity="0.3"/><path aria-label="x: 2.7889444828; y: 1.03231561184" role="graphics-symbol" aria-roledescription="point" transform="translate(233.66833448410034,107.3282393542203)" d="M1.581,0A1.581,1.581,0,1,1,-1.581,0A1.581,1.581,0,1,1,1.581,0" stroke="black" stroke-width="2" opacity="0.3"/><path aria-label="x: 2.81909537315; y: 1.09415006638" role="graphics-symbol" aria-roledescription="point" transform="translate(234.5728611946106,103.95545092496005)" d="M1.581,0A1.581,1.581,0,1,1,-1.581,0A1.581,1.581,0,1,1,1.581,0" stroke="black" stroke-width="2" opacity="0.3"/><path aria-label="x: 2.84924602509; y: 1.19634342194" role="graphics-symbol" aria-roledescription="point" transform="translate(235.47738075256348,98.38126789439809)" d="M1.581,0A1.581,1.581,0,1,1,-1.581,0A1.581,1.581,0,1,1,1.581,0" stroke="black" stroke-width="2" opacity="0.3"/><path aria-label="x: 2.87939691544; y: 0.868111431599" role="graphics-symbol" aria-roledescription="point" transform="translate(236.38190746307373,116.28483100370929)" d="M1.581,0A1.581,1.581,0,1,1,-1.581,0A1.581,1.581,0,1,1,1.581,0" stroke="black" stroke-width="2" opacity="0.3"/><path aria-label="x: 2.90954756737; y: 1.04234075546" role="graphics-symbol" aria-roledescription="point" transform="translate(237.2864270210266,106.78141333840111)" d="M1.581,0A1.581,1.581,0,1,1,-1.581,0A1.581,1.581,0,1,1,1.581,0" stroke="black" stroke-width="2" opacity="0.3"/><path aria-label="x: 2.93969845772; y: 0.871581494808" role="graphics-symbol" aria-roledescription="point" transform="translate(238.19095373153687,116.0955548286438)" d="M1.581,0A1.581,1.581,0,1,1,-1.581,0A1.581,1.581,0,1,1,1.581,0" stroke="black" stroke-width="2" opacity="0.3"/><path aria-label="x: 2.96984910965; y: 0.890496373177" role="graphics-symbol" aria-roledescription="point" transform="translate(239.09547328948975,115.06383419036865)" d="M1.581,0A1.581,1.581,0,1,1,-1.581,0A1.581,1.581,0,1,1,1.581,0" stroke="black" stroke-width="2" opacity="0.3"/><path aria-label="x: 3; y: 0.837471604347" role="graphics-symbol" aria-roledescription="point" transform="translate(240,117.95609430833295)" d="M1.581,0A1.581,1.581,0,1,1,-1.581,0A1.581,1.581,0,1,1,1.581,0" stroke="black" stroke-width="2" opacity="0.3"/></g><g class="mark-area role-mark layer_1_marks" role="graphics-object" aria-roledescription="area mark container"><path aria-label="x: −5; y_lower: −2.14016675949; y_upper: −0.551833033562" role="graphics-symbol" aria-roledescription="area mark" d="M0,280.373L1.508,281.347L3.015,276.136L4.523,276.614L6.03,279.753L7.538,277.421L9.045,276.871L10.553,274.024L12.06,271.869L13.568,269.844L15.075,269.763L16.583,270.801L18.09,268.7L19.598,267.314L21.106,266.45L22.613,267.472L24.121,266.379L25.628,265.931L27.136,262.105L28.643,262.555L30.151,263.919L31.658,263.688L33.166,262.308L34.673,261.44L36.181,258.738L37.688,256.907L39.196,255.011L40.704,256.726L42.211,256.17L43.719,255.663L45.226,254.288L46.734,254.235L48.241,250.951L49.749,253.751L51.256,251.757L52.764,250.047L54.271,250.172L55.779,248.033L57.286,247.683L58.794,246.988L60.302,245.801L61.809,247.135L63.317,243.282L64.824,243.551L66.332,243.05L67.839,241.315L69.347,242.943L70.854,239.551L72.362,239.903L73.869,238.736L75.377,239.626L76.884,237.384L78.392,236.469L79.9,235.746L81.407,235.582L82.915,236.183L84.422,234.09L85.93,231.805L87.437,231.831L88.945,230.344L90.452,231.348L91.96,229.652L93.467,229.911L94.975,228.456L96.482,227.057L97.99,227.787L99.497,224.896L101.005,224.4L102.513,224.877L104.02,224.455L105.528,223.068L107.035,223.912L108.543,223.889L110.05,222.532L111.558,223.056L113.065,221.688L114.573,221.174L116.08,221.375L117.588,222.403L119.095,221.031L120.603,220.913L122.111,220.831L123.618,217.721L125.126,215.649L126.633,213.234L128.141,211.421L129.648,209.286L131.156,207.338L132.663,204.611L134.171,202.088L135.678,199.61L137.186,196.828L138.693,193.17L140.201,187.811L141.709,183.82L143.216,181.707L144.724,180.798L146.231,180.048L147.739,179.785L149.246,178.489L150.754,175.962L152.261,173.593L153.769,170.351L155.276,166.859L156.784,163.335L158.291,162.226L159.799,159.982L161.307,156.41L162.814,154.551L164.322,152.548L165.829,147.891L167.337,146.372L168.844,146.363L170.352,140.68L171.859,140.714L173.367,139.993L174.874,138.576L176.382,139.291L177.889,140.27L179.397,137.474L180.905,138.202L182.412,139.706L183.92,137.619L185.427,138.199L186.935,136.7L188.442,137.32L189.95,136.78L191.457,136.938L192.965,135.303L194.472,138.058L195.98,135.181L197.487,133.741L198.995,135.512L200.503,134.976L202.01,134.835L203.518,135.803L205.025,136.588L206.533,133.382L208.04,133.385L209.548,131.966L211.055,134.187L212.563,132.718L214.07,132.058L215.578,131.561L217.085,131.218L218.593,131.567L220.1,129.923L221.608,133.928L223.116,132.78L224.623,129.419L226.131,131.927L227.638,130.171L229.146,133.312L230.653,130.407L232.161,128.014L233.668,130.433L235.176,128.932L236.683,128.432L238.191,129.272L239.698,130.51L241.206,127.682L242.714,132.966L244.221,125.851L245.729,128.449L247.236,127.174L248.744,129.011L250.251,128.782L251.759,126.217L253.266,130.406L254.774,125.525L256.281,123.961L257.789,123.317L259.296,124.923L260.804,125.19L262.312,128.45L263.819,129.193L265.327,124.04L266.834,125.477L268.342,130.75L269.849,122.533L271.357,125.925L272.864,125.758L274.372,126.604L275.879,123.402L277.387,122.612L278.894,126.48L280.402,118.642L281.91,123.158L283.417,123.323L284.925,130.087L286.432,124.828L287.94,124.714L289.447,122.34L290.955,125.761L292.462,125.725L293.97,121.599L295.477,117.754L296.985,121.184L298.492,120.143L300,126.599L300,18.244L298.492,18.802L296.985,20.85L295.477,23.353L293.97,22.443L292.462,24.141L290.955,28.035L289.447,30.22L287.94,31.204L286.432,29.783L284.925,34.822L283.417,34.496L281.91,36.382L280.402,36.584L278.894,39.503L277.387,39.099L275.879,41.687L274.372,44.765L272.864,43.821L271.357,46.477L269.849,51.318L268.342,48.086L266.834,52.429L265.327,51.024L263.819,52.225L262.312,55.411L260.804,56.781L259.296,61.394L257.789,62.67L256.281,62.753L254.774,61.952L253.266,64.023L251.759,66.602L250.251,69.3L248.744,69.834L247.236,71.977L245.729,72.75L244.221,74.691L242.714,74.878L241.206,75.003L239.698,77.456L238.191,80.077L236.683,82.396L235.176,82.768L233.668,83.063L232.161,84.784L230.653,85.112L229.146,87.183L227.638,89.553L226.131,89.308L224.623,92.141L223.116,91.312L221.608,92.919L220.1,94.308L218.593,94.824L217.085,97.279L215.578,96.877L214.07,98.568L212.563,98.429L211.055,98.945L209.548,101.438L208.04,101.254L206.533,102.348L205.025,102.243L203.518,104.91L202.01,105.339L200.503,105.478L198.995,106.351L197.487,107.125L195.98,106.774L194.472,106.949L192.965,107.666L191.457,108.228L189.95,108.461L188.442,108.384L186.935,109.275L185.427,109.488L183.92,109.59L182.412,109.421L180.905,110.299L179.397,111.25L177.889,110.817L176.382,111.053L174.874,113.24L173.367,113.88L171.859,115.426L170.352,117.612L168.844,120.658L167.337,124.04L165.829,127.685L164.322,130.775L162.814,133.589L161.307,137.112L159.799,140.189L158.291,143.323L156.784,146.214L155.276,150.583L153.769,154.056L152.261,157.508L150.754,160.44L149.246,163.129L147.739,164.525L146.231,165.109L144.724,166.423L143.216,167.859L141.709,168.559L140.201,172.402L138.693,177.235L137.186,179.814L135.678,181.705L134.171,184.226L132.663,185.246L131.156,186.359L129.648,188.292L128.141,190.173L126.633,191.853L125.126,193.01L123.618,194.049L122.111,195.726L120.603,195.849L119.095,195.53L117.588,197.268L116.08,196.22L114.573,195.926L113.065,196.005L111.558,195.559L110.05,195.942L108.543,194.623L107.035,195.952L105.528,195.344L104.02,195.524L102.513,193.993L101.005,195.94L99.497,195.569L97.99,195.983L96.482,197.327L94.975,196.81L93.467,195.528L91.96,195.434L90.452,197.54L88.945,197.158L87.437,196.167L85.93,197.066L84.422,198.379L82.915,196.718L81.407,196.215L79.9,195.675L78.392,196.282L76.884,195.242L75.377,196.407L73.869,196.831L72.362,195.314L70.854,195.045L69.347,196.623L67.839,198.374L66.332,196.084L64.824,195.041L63.317,196.589L61.809,194.502L60.302,194.555L58.794,195.36L57.286,197.179L55.779,195.297L54.271,196.242L52.764,196.745L51.256,193.953L49.749,194.683L48.241,194.072L46.734,197.015L45.226,195.506L43.719,195.89L42.211,195.741L40.704,193.792L39.196,194.88L37.688,194.881L36.181,194.086L34.673,194.46L33.166,195.846L31.658,194.774L30.151,194.232L28.643,194.223L27.136,195.153L25.628,192.609L24.121,192.702L22.613,194.834L21.106,194.235L19.598,191.907L18.09,196.297L16.583,192.751L15.075,194.54L13.568,193.3L12.06,192.151L10.553,190.784L9.045,192.916L7.538,192.077L6.03,190.55L4.523,189.922L3.015,194.763L1.508,188.648L0,193.736Z" fill="red" opacity="0.2"/></g><g class="mark-line role-mark layer_2_marks" role="graphics-object" aria-roledescription="line mark container"><path aria-label="x: −5; y_true: −0.999909162521" role="graphics-symbol" aria-roledescription="line mark" d="M0,218.177L1.508,218.176L3.015,218.176L4.523,218.175L6.03,218.174L7.538,218.174L9.045,218.173L10.553,218.172L12.06,218.171L13.568,218.17L15.075,218.168L16.583,218.167L18.09,218.165L19.598,218.164L21.106,218.162L22.613,218.159L24.121,218.157L25.628,218.154L27.136,218.152L28.643,218.148L30.151,218.145L31.658,218.141L33.166,218.137L34.673,218.132L36.181,218.127L37.688,218.121L39.196,218.114L40.704,218.107L42.211,218.099L43.719,218.091L45.226,218.081L46.734,218.07L48.241,218.058L49.749,218.045L51.256,218.031L52.764,218.015L54.271,217.998L55.779,217.978L57.286,217.957L58.794,217.933L60.302,217.907L61.809,217.878L63.317,217.846L64.824,217.81L66.332,217.771L67.839,217.728L69.347,217.68L70.854,217.627L72.362,217.569L73.869,217.504L75.377,217.433L76.884,217.355L78.392,217.268L79.9,217.172L81.407,217.067L82.915,216.95L84.422,216.821L85.93,216.68L87.437,216.523L88.945,216.351L90.452,216.161L91.96,215.951L93.467,215.721L94.975,215.467L96.482,215.188L97.99,214.881L99.497,214.544L101.005,214.173L102.513,213.767L104.02,213.321L105.528,212.832L107.035,212.297L108.543,211.712L110.05,211.072L111.558,210.374L113.065,209.614L114.573,208.786L116.08,207.886L117.588,206.91L119.095,205.853L120.603,204.71L122.111,203.478L123.618,202.152L125.126,200.728L126.633,199.204L128.141,197.576L129.648,195.844L131.156,194.006L132.663,192.062L134.171,190.013L135.678,187.863L137.186,185.614L138.693,183.273L140.201,180.845L141.709,178.339L143.216,175.765L144.724,173.132L146.231,170.453L147.739,167.74L149.246,165.007L150.754,162.266L152.261,159.533L153.769,156.82L155.276,154.141L156.784,151.508L158.291,148.933L159.799,146.428L161.307,144L162.814,141.659L164.322,139.41L165.829,137.26L167.337,135.211L168.844,133.267L170.352,131.429L171.859,129.696L173.367,128.069L174.874,126.545L176.382,125.121L177.889,123.795L179.397,122.562L180.905,121.42L182.412,120.363L183.92,119.387L185.427,118.487L186.935,117.659L188.442,116.899L189.95,116.201L191.457,115.561L192.965,114.976L194.472,114.441L195.98,113.952L197.487,113.506L198.995,113.099L200.503,112.729L202.01,112.392L203.518,112.085L205.025,111.805L206.533,111.552L208.04,111.321L209.548,111.112L211.055,110.922L212.563,110.75L214.07,110.593L215.578,110.451L217.085,110.323L218.593,110.206L220.1,110.1L221.608,110.005L223.116,109.918L224.623,109.839L226.131,109.768L227.638,109.704L229.146,109.646L230.653,109.593L232.161,109.545L233.668,109.502L235.176,109.463L236.683,109.427L238.191,109.395L239.698,109.366L241.206,109.34L242.714,109.316L244.221,109.295L245.729,109.275L247.236,109.258L248.744,109.242L250.251,109.227L251.759,109.214L253.266,109.202L254.774,109.192L256.281,109.182L257.789,109.173L259.296,109.166L260.804,109.158L262.312,109.152L263.819,109.146L265.327,109.141L266.834,109.136L268.342,109.132L269.849,109.128L271.357,109.124L272.864,109.121L274.372,109.118L275.879,109.116L277.387,109.113L278.894,109.111L280.402,109.109L281.91,109.107L283.417,109.106L284.925,109.104L286.432,109.103L287.94,109.102L289.447,109.101L290.955,109.1L292.462,109.099L293.97,109.098L295.477,109.098L296.985,109.097L298.492,109.096L300,109.096" stroke="blue" stroke-width="2" stroke-dasharray="5,5"/></g><g class="mark-line role-mark layer_3_marks" role="graphics-object" aria-roledescription="line mark container"><path aria-label="x: −5; y_pred: −1.34599983692" role="graphics-symbol" aria-roledescription="line mark" d="M0,237.055L1.508,234.998L3.015,235.45L4.523,233.268L6.03,235.152L7.538,234.749L9.045,234.893L10.553,232.404L12.06,232.01L13.568,231.572L15.075,232.152L16.583,231.776L18.09,232.499L19.598,229.61L21.106,230.342L22.613,231.153L24.121,229.541L25.628,229.27L27.136,228.629L28.643,228.389L30.151,229.075L31.658,229.231L33.166,229.077L34.673,227.95L36.181,226.412L37.688,225.894L39.196,224.946L40.704,225.259L42.211,225.955L43.719,225.776L45.226,224.897L46.734,225.625L48.241,222.511L49.749,224.217L51.256,222.855L52.764,223.396L54.271,223.207L55.779,221.665L57.286,222.431L58.794,221.174L60.302,220.178L61.809,220.819L63.317,219.935L64.824,219.296L66.332,219.567L67.839,219.844L69.347,219.783L70.854,217.298L72.362,217.609L73.869,217.784L75.377,218.017L76.884,216.313L78.392,216.376L79.9,215.71L81.407,215.898L82.915,216.451L84.422,216.235L85.93,214.435L87.437,213.999L88.945,213.751L90.452,214.444L91.96,212.543L93.467,212.719L94.975,212.633L96.482,212.192L97.99,211.885L99.497,210.232L101.005,210.17L102.513,209.435L104.02,209.989L105.528,209.206L107.035,209.932L108.543,209.256L110.05,209.237L111.558,209.308L113.065,208.846L114.573,208.55L116.08,208.797L117.588,209.835L119.095,208.28L120.603,208.381L122.111,208.278L123.618,205.885L125.126,204.33L126.633,202.544L128.141,200.797L129.648,198.789L131.156,196.849L132.663,194.928L134.171,193.157L135.678,190.657L137.186,188.321L138.693,185.203L140.201,180.107L141.709,176.189L143.216,174.783L144.724,173.611L146.231,172.579L147.739,172.155L149.246,170.809L150.754,168.201L152.261,165.55L153.769,162.203L155.276,158.721L156.784,154.774L158.291,152.774L159.799,150.085L161.307,146.761L162.814,144.07L164.322,141.662L165.829,137.788L167.337,135.206L168.844,133.511L170.352,129.146L171.859,128.07L173.367,126.936L174.874,125.908L176.382,125.172L177.889,125.543L179.397,124.362L180.905,124.251L182.412,124.563L183.92,123.604L185.427,123.843L186.935,122.988L188.442,122.852L189.95,122.62L191.457,122.583L192.965,121.485L194.472,122.503L195.98,120.977L197.487,120.433L198.995,120.932L200.503,120.227L202.01,120.087L203.518,120.356L205.025,119.416L206.533,117.865L208.04,117.32L209.548,116.702L211.055,116.566L212.563,115.574L214.07,115.313L215.578,114.219L217.085,114.249L218.593,113.196L220.1,112.115L221.608,113.423L223.116,112.046L224.623,110.78L226.131,110.618L227.638,109.862L229.146,110.248L230.653,107.759L232.161,106.399L233.668,106.748L235.176,105.85L236.683,105.414L238.191,104.675L239.698,103.983L241.206,101.342L242.714,103.922L244.221,100.271L245.729,100.6L247.236,99.575L248.744,99.422L250.251,99.041L251.759,96.409L253.266,97.214L254.774,93.739L256.281,93.357L257.789,92.994L259.296,93.159L260.804,90.985L262.312,91.93L263.819,90.709L265.327,87.532L266.834,88.953L268.342,89.418L269.849,86.926L271.357,86.201L272.864,84.789L274.372,85.685L275.879,82.544L277.387,80.856L278.894,82.992L280.402,77.613L281.91,79.77L283.417,78.909L284.925,82.455L286.432,77.306L287.94,77.959L289.447,76.28L290.955,76.898L292.462,74.933L293.97,72.021L295.477,70.554L296.985,71.017L298.492,69.473L300,72.422" stroke="red" stroke-width="2"/></g><g class="mark-group role-title"><g transform="translate(150,-22)"><path class="background" aria-hidden="true" d="M0,0h0v0h0Z" pointer-events="none"/><g><g class="mark-text role-title-text" role="graphics-symbol" aria-roledescription="title" aria-label="Title text 'MC Dropout Predictions'" pointer-events="none"><text text-anchor="middle" transform="translate(0,10)" font-family="sans-serif" font-size="13px" font-weight="bold" fill="#000" opacity="1">MC Dropout Predictions</text></g></g><path class="foreground" aria-hidden="true" d="" pointer-events="none" display="none"/></g></g></g><path class="foreground" aria-hidden="true" d="" display="none"/></g></g></g></svg>