<svg xmlns="http://www.w3.org/2000/svg" xmlns:xlink="http://www.w3.org/1999/xlink" version="1.1" class="marks" width="348" height="347" viewBox="0 0 348 347"><rect width="348" height="347" fill="white"/><g fill="none" stroke-miterlimit="10" transform="translate(41,10)"><g class="mark-group role-frame root" role="graphics-object" aria-roledescription="group mark container"><g transform="translate(0,0)"><path class="background" aria-hidden="true" d="M0.5,0.5h300v300h-300Z" stroke="#ddd"/><g><g class="mark-group role-axis" aria-hidden="true"><g transform="translate(0.5,0.5)"><path class="background" aria-hidden="true" d="M0,0h0v0h0Z" pointer-events="none"/><g><g class="mark-rule role-axis-grid" pointer-events="none"><line transform="translate(0,300)" x2="300" y2="0" stroke="#ddd" stroke-width="1" opacity="1"/><line transform="translate(0,267)" x2="300" y2="0" stroke="#ddd" stroke-width="1" opacity="1"/><line transform="translate(0,233)" x2="300" y2="0" stroke="#ddd" stroke-width="1" opacity="1"/><line transform="translate(0,200)" x2="300" y2="0" stroke="#ddd" stroke-width="1" opacity="1"/><line transform="translate(0,167)" x2="300" y2="0" stroke="#ddd" stroke-width="1" opacity="1"/><line transform="translate(0,133)" x2="300" y2="0" stroke="#ddd" stroke-width="1" opacity="1"/><line transform="translate(0,100)" x2="300" y2="0" stroke="#ddd" stroke-width="1" opacity="1"/><line transform="translate(0,67)" x2="300" y2="0" stroke="#ddd" stroke-width="1" opacity="1"/><line transform="translate(0,33)" x2="300" y2="0" stroke="#ddd" stroke-width="1" opacity="1"/><line transform="translate(0,0)" x2="300" y2="0" stroke="#ddd" stroke-width="1" opacity="1"/></g></g><path class="foreground" aria-hidden="true" d="" pointer-events="none" display="none"/></g></g><g class="mark-group role-axis" role="graphics-symbol" aria-roledescription="axis" aria-label="X-axis titled 'Theta' for a linear scale with values from −3 to 3"><g transform="translate(0.5,300.5)"><path class="background" aria-hidden="true" d="M0,0h0v0h0Z" pointer-events="none"/><g><g class="mark-rule role-axis-tick" pointer-events="none"><line transform="translate(73,0)" x2="0" y2="5" stroke="#888" stroke-width="1" opacity="1"/><line transform="translate(75,0)" x2="0" y2="5" stroke="#888" stroke-width="1" opacity="1"/><line transform="translate(78,0)" x2="0" y2="5" stroke="#888" stroke-width="1" opacity="1"/><line transform="translate(80,0)" x2="0" y2="5" stroke="#888" stroke-width="1" opacity="1"/><line transform="translate(82,0)" x2="0" y2="5" stroke="#888" stroke-width="1" opacity="1"/><line transform="translate(85,0)" x2="0" y2="5" stroke="#888" stroke-width="1" opacity="1"/><line transform="translate(88,0)" x2="0" y2="5" stroke="#888" stroke-width="1" opacity="1"/><line transform="translate(90,0)" x2="0" y2="5" stroke="#888" stroke-width="1" opacity="1"/><line transform="translate(93,0)" x2="0" y2="5" stroke="#888" stroke-width="1" opacity="1"/><line transform="translate(95,0)" x2="0" y2="5" stroke="#888" stroke-width="1" opacity="1"/><line transform="translate(98,0)" x2="0" y2="5" stroke="#888" stroke-width="1" opacity="1"/><line transform="translate(100,0)" x2="0" y2="5" stroke="#888" stroke-width="1" opacity="1"/><line transform="translate(102,0)" x2="0" y2="5" stroke="#888" stroke-width="1" opacity="1"/><line transform="translate(105,0)" x2="0" y2="5" stroke="#888" stroke-width="1" opacity="1"/><line transform="translate(108,0)" x2="0" y2="5" stroke="#888" stroke-width="1" opacity="1"/><line transform="translate(110,0)" x2="0" y2="5" stroke="#888" stroke-width="1" opacity="1"/><line transform="translate(113,0)" x2="0" y2="5" stroke="#888" stroke-width="1" opacity="1"/><line transform="translate(115,0)" x2="0" y2="5" stroke="#888" stroke-width="1" opacity="1"/><line transform="translate(118,0)" x2="0" y2="5" stroke="#888" stroke-width="1" opacity="1"/><line transform="translate(120,0)" x2="0" y2="5" stroke="#888" stroke-width="1" opacity="1"/><line transform="translate(123,0)" x2="0" y2="5" stroke="#888" stroke-width="1" opacity="1"/><line transform="translate(125,0)" x2="0" y2="5" stroke="#888" stroke-width="1" opacity="1"/><line transform="translate(128,0)" x2="0" y2="5" stroke="#888" stroke-width="1" opacity="1"/><line transform="translate(130,0)" x2="0" y2="5" stroke="#888" stroke-width="1" opacity="1"/><line transform="translate(133,0)" x2="0" y2="5" stroke="#888" stroke-width="1" opacity="1"/><line transform="translate(135,0)" x2="0" y2="5" stroke="#888" stroke-width="1" opacity="1"/><line transform="translate(138,0)" x2="0" y2="5" stroke="#888" stroke-width="1" opacity="1"/><line transform="translate(140,0)" x2="0" y2="5" stroke="#888" stroke-width="1" opacity="1"/><line transform="translate(143,0)" x2="0" y2="5" stroke="#888" stroke-width="1" opacity="1"/><line transform="translate(145,0)" x2="0" y2="5" stroke="#888" stroke-width="1" opacity="1"/><line transform="translate(148,0)" x2="0" y2="5" stroke="#888" stroke-width="1" opacity="1"/><line transform="translate(150,0)" x2="0" y2="5" stroke="#888" stroke-width="1" opacity="1"/><line transform="translate(153,0)" x2="0" y2="5" stroke="#888" stroke-width="1" opacity="1"/><line transform="translate(155,0)" x2="0" y2="5" stroke="#888" stroke-width="1" opacity="1"/><line transform="translate(158,0)" x2="0" y2="5" stroke="#888" stroke-width="1" opacity="1"/><line transform="translate(160,0)" x2="0" y2="5" stroke="#888" stroke-width="1" opacity="1"/><line transform="translate(163,0)" x2="0" y2="5" stroke="#888" stroke-width="1" opacity="1"/><line transform="translate(165,0)" x2="0" y2="5" stroke="#888" stroke-width="1" opacity="1"/><line transform="translate(168,0)" x2="0" y2="5" stroke="#888" stroke-width="1" opacity="1"/><line transform="translate(170,0)" x2="0" y2="5" stroke="#888" stroke-width="1" opacity="1"/><line transform="translate(173,0)" x2="0" y2="5" stroke="#888" stroke-width="1" opacity="1"/><line transform="translate(175,0)" x2="0" y2="5" stroke="#888" stroke-width="1" opacity="1"/><line transform="translate(178,0)" x2="0" y2="5" stroke="#888" stroke-width="1" opacity="1"/><line transform="translate(180,0)" x2="0" y2="5" stroke="#888" stroke-width="1" opacity="1"/><line transform="translate(183,0)" x2="0" y2="5" stroke="#888" stroke-width="1" opacity="1"/><line transform="translate(185,0)" x2="0" y2="5" stroke="#888" stroke-width="1" opacity="1"/><line transform="translate(188,0)" x2="0" y2="5" stroke="#888" stroke-width="1" opacity="1"/><line transform="translate(190,0)" x2="0" y2="5" stroke="#888" stroke-width="1" opacity="1"/><line transform="translate(193,0)" x2="0" y2="5" stroke="#888" stroke-width="1" opacity="1"/><line transform="translate(195,0)" x2="0" y2="5" stroke="#888" stroke-width="1" opacity="1"/><line transform="translate(198,0)" x2="0" y2="5" stroke="#888" stroke-width="1" opacity="1"/><line transform="translate(200,0)" x2="0" y2="5" stroke="#888" stroke-width="1" opacity="1"/><line transform="translate(202,0)" x2="0" y2="5" stroke="#888" stroke-width="1" opacity="1"/><line transform="translate(205,0)" x2="0" y2="5" stroke="#888" stroke-width="1" opacity="1"/><line transform="translate(208,0)" x2="0" y2="5" stroke="#888" stroke-width="1" opacity="1"/><line transform="translate(210,0)" x2="0" y2="5" stroke="#888" stroke-width="1" opacity="1"/><line transform="translate(213,0)" x2="0" y2="5" stroke="#888" stroke-width="1" opacity="1"/><line transform="translate(215,0)" x2="0" y2="5" stroke="#888" stroke-width="1" opacity="1"/><line transform="translate(218,0)" x2="0" y2="5" stroke="#888" stroke-width="1" opacity="1"/><line transform="translate(220,0)" x2="0" y2="5" stroke="#888" stroke-width="1" opacity="1"/><line transform="translate(223,0)" x2="0" y2="5" stroke="#888" stroke-width="1" opacity="1"/><line transform="translate(225,0)" x2="0" y2="5" stroke="#888" stroke-width="1" opacity="1"/><line transform="translate(228,0)" x2="0" y2="5" stroke="#888" stroke-width="1" opacity="1"/><line transform="translate(230,0)" x2="0" y2="5" stroke="#888" stroke-width="1" opacity="1"/><line transform="translate(233,0)" x2="0" y2="5" stroke="#888" stroke-width="1" opacity="1"/><line transform="translate(235,0)" x2="0" y2="5" stroke="#888" stroke-width="1" opacity="1"/><line transform="translate(238,0)" x2="0" y2="5" stroke="#888" stroke-width="1" opacity="1"/><line transform="translate(240,0)" x2="0" y2="5" stroke="#888" stroke-width="1" opacity="1"/><line transform="translate(243,0)" x2="0" y2="5" stroke="#888" stroke-width="1" opacity="1"/><line transform="translate(245,0)" x2="0" y2="5" stroke="#888" stroke-width="1" opacity="1"/><line transform="translate(248,0)" x2="0" y2="5" stroke="#888" stroke-width="1" opacity="1"/><line transform="translate(250,0)" x2="0" y2="5" stroke="#888" stroke-width="1" opacity="1"/><line transform="translate(253,0)" x2="0" y2="5" stroke="#888" stroke-width="1" opacity="1"/></g><g class="mark-text role-axis-label" pointer-events="none"><text text-anchor="middle" transform="translate(72.5,15)" font-family="sans-serif" font-size="10px" fill="#000" opacity="1">−1.6</text><text text-anchor="middle" transform="translate(75,15)" font-family="sans-serif" font-size="10px" fill="#000" opacity="0">−1.5</text><text text-anchor="middle" transform="translate(77.50000000000001,15)" font-family="sans-serif" font-size="10px" fill="#000" opacity="0">−1.4</text><text text-anchor="middle" transform="translate(80,15)" font-family="sans-serif" font-size="10px" fill="#000" opacity="0">−1.4</text><text text-anchor="middle" transform="translate(82.49999999999999,15)" font-family="sans-serif" font-size="10px" fill="#000" opacity="0">−1.4</text><text text-anchor="middle" transform="translate(85,15)" font-family="sans-serif" font-size="10px" fill="#000" opacity="0">−1.3</text><text text-anchor="middle" transform="translate(87.5,15)" font-family="sans-serif" font-size="10px" fill="#000" opacity="0">−1.3</text><text text-anchor="middle" transform="translate(90,15)" font-family="sans-serif" font-size="10px" fill="#000" opacity="0">−1.2</text><text text-anchor="middle" transform="translate(92.5,15)" font-family="sans-serif" font-size="10px" fill="#000" opacity="1">−1.1</text><text text-anchor="middle" transform="translate(95,15)" font-family="sans-serif" font-size="10px" fill="#000" opacity="0">−1.1</text><text text-anchor="middle" transform="translate(97.5,15)" font-family="sans-serif" font-size="10px" fill="#000" opacity="0">−1.1</text><text text-anchor="middle" transform="translate(100,15)" font-family="sans-serif" font-size="10px" fill="#000" opacity="0">−1.0</text><text text-anchor="middle" transform="translate(102.49999999999999,15)" font-family="sans-serif" font-size="10px" fill="#000" opacity="0">−0.9</text><text text-anchor="middle" transform="translate(105.00000000000001,15)" font-family="sans-serif" font-size="10px" fill="#000" opacity="0">−0.9</text><text text-anchor="middle" transform="translate(107.5,15)" font-family="sans-serif" font-size="10px" fill="#000" opacity="0">−0.8</text><text text-anchor="middle" transform="translate(110.00000000000001,15)" font-family="sans-serif" font-size="10px" fill="#000" opacity="0">−0.8</text><text text-anchor="middle" transform="translate(112.5,15)" font-family="sans-serif" font-size="10px" fill="#000" opacity="1">−0.8</text><text text-anchor="middle" transform="translate(114.99999999999999,15)" font-family="sans-serif" font-size="10px" fill="#000" opacity="0">−0.7</text><text text-anchor="middle" transform="translate(117.5,15)" font-family="sans-serif" font-size="10px" fill="#000" opacity="0">−0.7</text><text text-anchor="middle" transform="translate(119.99999999999999,15)" font-family="sans-serif" font-size="10px" fill="#000" opacity="0">−0.6</text><text text-anchor="middle" transform="translate(122.50000000000001,15)" font-family="sans-serif" font-size="10px" fill="#000" opacity="0">−0.6</text><text text-anchor="middle" transform="translate(125,15)" font-family="sans-serif" font-size="10px" fill="#000" opacity="0">−0.5</text><text text-anchor="middle" transform="translate(127.5,15)" font-family="sans-serif" font-size="10px" fill="#000" opacity="0">−0.4</text><text text-anchor="middle" transform="translate(130,15)" font-family="sans-serif" font-size="10px" fill="#000" opacity="0">−0.4</text><text text-anchor="middle" transform="translate(132.5,15)" font-family="sans-serif" font-size="10px" fill="#000" opacity="1">−0.3</text><text text-anchor="middle" transform="translate(135,15)" font-family="sans-serif" font-size="10px" fill="#000" opacity="0">−0.3</text><text text-anchor="middle" transform="translate(137.5,15)" font-family="sans-serif" font-size="10px" fill="#000" opacity="0">−0.3</text><text text-anchor="middle" transform="translate(139.99999999999997,15)" font-family="sans-serif" font-size="10px" fill="#000" opacity="0">−0.2</text><text text-anchor="middle" transform="translate(142.5,15)" font-family="sans-serif" font-size="10px" fill="#000" opacity="0">−0.1</text><text text-anchor="middle" transform="translate(145.00000000000003,15)" font-family="sans-serif" font-size="10px" fill="#000" opacity="0">−0.1</text><text text-anchor="middle" transform="translate(147.5,15)" font-family="sans-serif" font-size="10px" fill="#000" opacity="0">−0.1</text><text text-anchor="middle" transform="translate(150,15)" font-family="sans-serif" font-size="10px" fill="#000" opacity="0">0.0</text><text text-anchor="middle" transform="translate(152.5,15)" font-family="sans-serif" font-size="10px" fill="#000" opacity="1">0.1</text><text text-anchor="middle" transform="translate(155.00000000000003,15)" font-family="sans-serif" font-size="10px" fill="#000" opacity="0">0.1</text><text text-anchor="middle" transform="translate(157.5,15)" font-family="sans-serif" font-size="10px" fill="#000" opacity="0">0.2</text><text text-anchor="middle" transform="translate(160,15)" font-family="sans-serif" font-size="10px" fill="#000" opacity="0">0.2</text><text text-anchor="middle" transform="translate(162.5,15)" font-family="sans-serif" font-size="10px" fill="#000" opacity="0">0.3</text><text text-anchor="middle" transform="translate(164.99999999999997,15)" font-family="sans-serif" font-size="10px" fill="#000" opacity="0">0.3</text><text text-anchor="middle" transform="translate(167.5,15)" font-family="sans-serif" font-size="10px" fill="#000" opacity="0">0.4</text><text text-anchor="middle" transform="translate(170.00000000000003,15)" font-family="sans-serif" font-size="10px" fill="#000" opacity="0">0.4</text><text text-anchor="middle" transform="translate(172.50000000000003,15)" font-family="sans-serif" font-size="10px" fill="#000" opacity="1">0.4</text><text text-anchor="middle" transform="translate(175,15)" font-family="sans-serif" font-size="10px" fill="#000" opacity="0">0.5</text><text text-anchor="middle" transform="translate(177.5,15)" font-family="sans-serif" font-size="10px" fill="#000" opacity="0">0.6</text><text text-anchor="middle" transform="translate(180,15)" font-family="sans-serif" font-size="10px" fill="#000" opacity="0">0.6</text><text text-anchor="middle" transform="translate(182.50000000000003,15)" font-family="sans-serif" font-size="10px" fill="#000" opacity="0">0.7</text><text text-anchor="middle" transform="translate(185,15)" font-family="sans-serif" font-size="10px" fill="#000" opacity="0">0.7</text><text text-anchor="middle" transform="translate(187.5,15)" font-family="sans-serif" font-size="10px" fill="#000" opacity="0">0.8</text><text text-anchor="middle" transform="translate(190,15)" font-family="sans-serif" font-size="10px" fill="#000" opacity="0">0.8</text><text text-anchor="middle" transform="translate(192.50000000000003,15)" font-family="sans-serif" font-size="10px" fill="#000" opacity="1">0.9</text><text text-anchor="middle" transform="translate(195,15)" font-family="sans-serif" font-size="10px" fill="#000" opacity="0">0.9</text><text text-anchor="middle" transform="translate(197.5,15)" font-family="sans-serif" font-size="10px" fill="#000" opacity="0">0.9</text><text text-anchor="middle" transform="translate(200,15)" font-family="sans-serif" font-size="10px" fill="#000" opacity="0">1.0</text><text text-anchor="middle" transform="translate(202.49999999999997,15)" font-family="sans-serif" font-size="10px" fill="#000" opacity="0">1.1</text><text text-anchor="middle" transform="translate(205.00000000000003,15)" font-family="sans-serif" font-size="10px" fill="#000" opacity="0">1.1</text><text text-anchor="middle" transform="translate(207.50000000000003,15)" font-family="sans-serif" font-size="10px" fill="#000" opacity="0">1.2</text><text text-anchor="middle" transform="translate(210.00000000000003,15)" font-family="sans-serif" font-size="10px" fill="#000" opacity="0">1.2</text><text text-anchor="middle" transform="translate(212.5,15)" font-family="sans-serif" font-size="10px" fill="#000" opacity="1">1.3</text><text text-anchor="middle" transform="translate(215,15)" font-family="sans-serif" font-size="10px" fill="#000" opacity="0">1.3</text><text text-anchor="middle" transform="translate(217.50000000000003,15)" font-family="sans-serif" font-size="10px" fill="#000" opacity="0">1.4</text><text text-anchor="middle" transform="translate(220.00000000000003,15)" font-family="sans-serif" font-size="10px" fill="#000" opacity="0">1.4</text><text text-anchor="middle" transform="translate(222.5,15)" font-family="sans-serif" font-size="10px" fill="#000" opacity="0">1.4</text><text text-anchor="middle" transform="translate(225,15)" font-family="sans-serif" font-size="10px" fill="#000" opacity="0">1.5</text><text text-anchor="middle" transform="translate(227.5,15)" font-family="sans-serif" font-size="10px" fill="#000" opacity="0">1.6</text><text text-anchor="middle" transform="translate(230.00000000000003,15)" font-family="sans-serif" font-size="10px" fill="#000" opacity="0">1.6</text><text text-anchor="middle" transform="translate(232.5,15)" font-family="sans-serif" font-size="10px" fill="#000" opacity="1">1.7</text><text text-anchor="middle" transform="translate(235,15)" font-family="sans-serif" font-size="10px" fill="#000" opacity="0">1.7</text><text text-anchor="middle" transform="translate(237.5,15)" font-family="sans-serif" font-size="10px" fill="#000" opacity="0">1.8</text><text text-anchor="middle" transform="translate(239.99999999999997,15)" font-family="sans-serif" font-size="10px" fill="#000" opacity="0">1.8</text><text text-anchor="middle" transform="translate(242.50000000000003,15)" font-family="sans-serif" font-size="10px" fill="#000" opacity="0">1.9</text><text text-anchor="middle" transform="translate(245.00000000000003,15)" font-family="sans-serif" font-size="10px" fill="#000" opacity="0">1.9</text><text text-anchor="middle" transform="translate(247.50000000000003,15)" font-family="sans-serif" font-size="10px" fill="#000" opacity="0">1.9</text><text text-anchor="middle" transform="translate(250,15)" font-family="sans-serif" font-size="10px" fill="#000" opacity="0">2.0</text><text text-anchor="middle" transform="translate(252.5,15)" font-family="sans-serif" font-size="10px" fill="#000" opacity="1">2.0</text></g><g class="mark-rule role-axis-domain" pointer-events="none"><line transform="translate(0,0)" x2="300" y2="0" stroke="#888" stroke-width="1" opacity="1"/></g><g class="mark-text role-axis-title" pointer-events="none"><text text-anchor="middle" transform="translate(150,30)" font-family="sans-serif" font-size="11px" font-weight="bold" fill="#000" opacity="1">Theta</text></g></g><path class="foreground" aria-hidden="true" d="" pointer-events="none" display="none"/></g></g><g class="mark-group role-axis" role="graphics-symbol" aria-roledescription="axis" aria-label="Y-axis titled 'PDF (MCMC), PDF (true)' for a linear scale with values from 0.0 to 0.9"><g transform="translate(0.5,0.5)"><path class="background" aria-hidden="true" d="M0,0h0v0h0Z" pointer-events="none"/><g><g class="mark-rule role-axis-tick" pointer-events="none"><line transform="translate(0,300)" x2="-5" y2="0" stroke="#888" stroke-width="1" opacity="1"/><line transform="translate(0,267)" x2="-5" y2="0" stroke="#888" stroke-width="1" opacity="1"/><line transform="translate(0,233)" x2="-5" y2="0" stroke="#888" stroke-width="1" opacity="1"/><line transform="translate(0,200)" x2="-5" y2="0" stroke="#888" stroke-width="1" opacity="1"/><line transform="translate(0,167)" x2="-5" y2="0" stroke="#888" stroke-width="1" opacity="1"/><line transform="translate(0,133)" x2="-5" y2="0" stroke="#888" stroke-width="1" opacity="1"/><line transform="translate(0,100)" x2="-5" y2="0" stroke="#888" stroke-width="1" opacity="1"/><line transform="translate(0,67)" x2="-5" y2="0" stroke="#888" stroke-width="1" opacity="1"/><line transform="translate(0,33)" x2="-5" y2="0" stroke="#888" stroke-width="1" opacity="1"/><line transform="translate(0,0)" x2="-5" y2="0" stroke="#888" stroke-width="1" opacity="1"/></g><g class="mark-text role-axis-label" pointer-events="none"><text text-anchor="end" transform="translate(-7,303)" font-family="sans-serif" font-size="10px" fill="#000" opacity="1">0.0</text><text text-anchor="end" transform="translate(-7,269.66666666666663)" font-family="sans-serif" font-size="10px" fill="#000" opacity="1">0.1</text><text text-anchor="end" transform="translate(-7,236.33333333333334)" font-family="sans-serif" font-size="10px" fill="#000" opacity="1">0.2</text><text text-anchor="end" transform="translate(-7,203.00000000000003)" font-family="sans-serif" font-size="10px" fill="#000" opacity="1">0.3</text><text text-anchor="end" transform="translate(-7,169.66666666666669)" font-family="sans-serif" font-size="10px" fill="#000" opacity="1">0.4</text><text text-anchor="end" transform="translate(-7,136.33333333333331)" font-family="sans-serif" font-size="10px" fill="#000" opacity="1">0.5</text><text text-anchor="end" transform="translate(-7,103.00000000000001)" font-family="sans-serif" font-size="10px" fill="#000" opacity="1">0.6</text><text text-anchor="end" transform="translate(-7,69.6666666666667)" font-family="sans-serif" font-size="10px" fill="#000" opacity="1">0.7</text><text text-anchor="end" transform="translate(-7,36.333333333333314)" font-family="sans-serif" font-size="10px" fill="#000" opacity="1">0.8</text><text text-anchor="end" transform="translate(-7,3)" font-family="sans-serif" font-size="10px" fill="#000" opacity="1">0.9</text></g><g class="mark-rule role-axis-domain" pointer-events="none"><line transform="translate(0,300)" x2="0" y2="-300" stroke="#888" stroke-width="1" opacity="1"/></g><g class="mark-text role-axis-title" pointer-events="none"><text text-anchor="middle" transform="translate(-24.9013671875,150) rotate(-90) translate(0,-2)" font-family="sans-serif" font-size="11px" font-weight="bold" fill="#000" opacity="1">PDF (MCMC), PDF (true)</text></g></g><path class="foreground" aria-hidden="true" d="" pointer-events="none" display="none"/></g></g><g class="mark-rect role-mark layer_0_marks" role="graphics-symbol" aria-roledescription="rect mark container"><path d="M73.5,299.0762256422895h1.5v0.9237743577104993h-1.5Z" fill="blue" opacity="0.5"/><path d="M76,298.7067158992053h1.5000000000000142v1.2932841007947218h-1.5000000000000142Z" fill="blue" opacity="0.5"/><path d="M78.50000000000001,296.3049123374931h1.4999999999999858v3.6950876625069213h-1.4999999999999858Z" fill="blue" opacity="0.5"/><path d="M81,287.43666873513695h1.5v12.563331264863052h-1.5Z" fill="blue" opacity="0.5"/><path d="M83.49999999999999,277.45990567186334h1.5000000000000142v22.54009432813666h-1.5000000000000142Z" fill="blue" opacity="0.5"/><path d="M86,264.8965744070003h1.5v35.10342559299971h-1.5Z" fill="blue" opacity="0.5"/><path d="M88.5,251.40946878442674h1.5v48.590531215573264h-1.5Z" fill="blue" opacity="0.5"/><path d="M91,148.13171928726493h1.5v151.86828071273507h-1.5Z" fill="blue" opacity="0.5"/><path d="M93.5,193.21168424866403h1.5000000000000142v106.78831575133597h-1.5000000000000142Z" fill="blue" opacity="0.5"/><path d="M96,184.89771502926936h1.5v115.10228497073064h-1.5Z" fill="blue" opacity="0.5"/><path d="M98.5,175.84472632370628h1.5v124.15527367629372h-1.5Z" fill="blue" opacity="0.5"/><path d="M101,193.9508439106267h1.4999999999999858v106.0491560893733h-1.4999999999999858Z" fill="blue" opacity="0.5"/><path d="M103.49999999999999,187.66903810240095h1.5000000000000284v112.33096189759905h-1.5000000000000284Z" fill="blue" opacity="0.5"/><path d="M106.00000000000001,191.73378838262587h1.4999999999999858v108.26621161737413h-1.4999999999999858Z" fill="blue" opacity="0.5"/><path d="M108.5,199.67810475263767h1.5000000000000142v100.32189524736233h-1.5000000000000142Z" fill="blue" opacity="0.5"/><path d="M111.00000000000001,212.9804555036691h1.4999999999999858v87.0195444963309h-1.4999999999999858Z" fill="blue" opacity="0.5"/><path d="M113.5,129.1018612879391h1.4999999999999858v170.8981387120609h-1.4999999999999858Z" fill="blue" opacity="0.5"/><path d="M115.99999999999999,222.58781114730417h1.5000000000000142v77.41218885269583h-1.5000000000000142Z" fill="blue" opacity="0.5"/><path d="M118.5,221.4791795946059h1.4999999999999858v78.52082040539409h-1.4999999999999858Z" fill="blue" opacity="0.5"/><path d="M120.99999999999999,227.021825740869h1.5000000000000284v72.97817425913101h-1.5000000000000284Z" fill="blue" opacity="0.5"/><path d="M123.50000000000001,237.3680985472268h1.4999999999999858v62.63190145277321h-1.4999999999999858Z" fill="blue" opacity="0.5"/><path d="M126,236.0748144464321h1.5v63.9251855535679h-1.5Z" fill="blue" opacity="0.5"/><path d="M128.5,243.8346675298943h1.5v56.16533247010571h-1.5Z" fill="blue" opacity="0.5"/><path d="M131,235.1510400887216h1.5v64.8489599112784h-1.5Z" fill="blue" opacity="0.5"/><path d="M133.5,238.47662777647946h1.5v61.52337222352054h-1.5Z" fill="blue" opacity="0.5"/><path d="M136,166.23747300351687h1.5v133.76252699648313h-1.5Z" fill="blue" opacity="0.5"/><path d="M138.5,235.70547467237898h1.4999999999999716v64.29452532762102h-1.4999999999999716Z" fill="blue" opacity="0.5"/><path d="M140.99999999999997,217.2298175491375h1.5000000000000284v82.7701824508625h-1.5000000000000284Z" fill="blue" opacity="0.5"/><path d="M143.5,221.84868933769013h1.5v78.15131066230987h-1.5Z" fill="blue" opacity="0.5"/><path d="M146.00000000000003,219.26212113610066h1.4999999999999716v80.73787886389934h-1.4999999999999716Z" fill="blue" opacity="0.5"/><path d="M148.5,216.30604319142697h1.5v83.69395680857303h-1.5Z" fill="blue" opacity="0.5"/><path d="M151,205.40575583982195h1.5v94.59424416017805h-1.5Z" fill="blue" opacity="0.5"/><path d="M153.5,204.66648628427447h1.5000000000000284v95.33351371572553h-1.5000000000000284Z" fill="blue" opacity="0.5"/><path d="M156.00000000000003,203.1884473119376h1.4999999999999716v96.81155268806239h-1.4999999999999716Z" fill="blue" opacity="0.5"/><path d="M158.5,190.8098709186167h1.5v109.1901290813833h-1.5Z" fill="blue" opacity="0.5"/><path d="M161,82.17430292083056h1.5v217.82569707916946h-1.5Z" fill="blue" opacity="0.5"/><path d="M163.5,183.78918580001675h1.4999999999999716v116.21081419998325h-1.4999999999999716Z" fill="blue" opacity="0.5"/><path d="M165.99999999999997,177.50752016758523h1.5000000000000284v122.49247983241477h-1.5000000000000284Z" fill="blue" opacity="0.5"/><path d="M168.5,167.1612473612274h1.5v132.8387526387726h-1.5Z" fill="blue" opacity="0.5"/><path d="M171.00000000000003,160.87958172879587h1.5v139.12041827120413h-1.5Z" fill="blue" opacity="0.5"/><path d="M173.50000000000003,164.94418890272217h1.4999999999999716v135.05581109727783h-1.4999999999999716Z" fill="blue" opacity="0.5"/><path d="M176,159.58629762800112h1.5v140.41370237199888h-1.5Z" fill="blue" opacity="0.5"/><path d="M178.5,156.8149745548696h1.5v143.1850254451304h-1.5Z" fill="blue" opacity="0.5"/><path d="M181,158.66252327029062h1.4999999999999716v141.33747672970938h-1.4999999999999716Z" fill="blue" opacity="0.5"/><path d="M183.50000000000003,11.783138878500987h1.4999999999999716v288.216861121499h-1.4999999999999716Z" fill="blue" opacity="0.5"/><path d="M186,160.6948268572538h1.5v139.3051731427462h-1.5Z" fill="blue" opacity="0.5"/><path d="M188.5,164.75943403118006h1.5000000000000284v135.24056596881994h-1.5000000000000284Z" fill="blue" opacity="0.5"/><path d="M191,162.911885315759h1.5000000000000284v137.088114684241h-1.5000000000000284Z" fill="blue" opacity="0.5"/><path d="M193.50000000000003,159.77105249954323h1.4999999999999716v140.22894750045677h-1.4999999999999716Z" fill="blue" opacity="0.5"/><path d="M196,150.71806379398015h1.5v149.28193620601985h-1.5Z" fill="blue" opacity="0.5"/><path d="M198.5,159.401542756459h1.5v140.598457243541h-1.5Z" fill="blue" opacity="0.5"/><path d="M201,157.553994041038h1.5000000000000568v142.446005958962h-1.5000000000000568Z" fill="blue" opacity="0.5"/><path d="M203.49999999999997,158.66252327029062h1.5v141.33747672970938h-1.5Z" fill="blue" opacity="0.5"/><path d="M206.00000000000003,8.457555098066827h1.5v291.54244490193315h-1.5Z" fill="blue" opacity="0.5"/><path d="M208.50000000000003,158.8472781418327h1.5v141.1527218581673h-1.5Z" fill="blue" opacity="0.5"/><path d="M211.00000000000003,144.2516432900065h1.4999999999999716v155.7483567099935h-1.4999999999999716Z" fill="blue" opacity="0.5"/><path d="M213.5,151.4570832801486h1.5000000000000284v148.5429167198514h-1.5000000000000284Z" fill="blue" opacity="0.5"/><path d="M216,154.41316122482223h1.5v145.58683877517777h-1.5Z" fill="blue" opacity="0.5"/><path d="M218.50000000000003,155.33693558253276h1.5v144.66306441746724h-1.5Z" fill="blue" opacity="0.5"/><path d="M221.00000000000003,156.07595506870115h1.4999999999999716v143.92404493129885h-1.4999999999999716Z" fill="blue" opacity="0.5"/><path d="M223.5,170.11732530590103h1.5v129.88267469409897h-1.5Z" fill="blue" opacity="0.5"/><path d="M226,183.23492118539042h1.5000000000000284v116.76507881460958h-1.5000000000000284Z" fill="blue" opacity="0.5"/><path d="M228.5,90.3037541493998h1.4999999999999716v209.6962458506002h-1.4999999999999716Z" fill="blue" opacity="0.5"/><path d="M231.00000000000003,208.54633858665863h1.4999999999999716v91.45366141334137h-1.4999999999999716Z" fill="blue" opacity="0.5"/><path d="M233.5,231.8254524009637h1.5v68.17454759903629h-1.5Z" fill="blue" opacity="0.5"/><path d="M236,252.70275288522143h1.5v47.29724711477857h-1.5Z" fill="blue" opacity="0.5"/><path d="M238.5,263.60329030620557h1.5000000000000568v36.396709693794435h-1.5000000000000568Z" fill="blue" opacity="0.5"/><path d="M240.99999999999997,271.17824003943184h1.5v28.82175996056816h-1.5Z" fill="blue" opacity="0.5"/><path d="M243.50000000000003,287.25191386359484h1.5v12.748086136405163h-1.5Z" fill="blue" opacity="0.5"/><path d="M246.00000000000003,292.60980513831583h1.5v7.390194861684165h-1.5Z" fill="blue" opacity="0.5"/><path d="M248.50000000000003,298.52196102766317h1.4999999999999716v1.478038972336833h-1.4999999999999716Z" fill="blue" opacity="0.5"/><path d="M251,296.3049123373381h1.5v3.6950876626618765h-1.5Z" fill="blue" opacity="0.5"/></g><g class="mark-line role-mark layer_1_marks" role="graphics-symbol" aria-roledescription="line mark container"><path d="M0,300L3.05,300L6.05,300L9.1,300L12.1,300L15.15,300L18.2,300L21.2,300L24.25,300L27.25,300L30.3,300L33.35,300L36.35,300L39.4,300L42.4,300L45.45,300L48.5,300L51.5,300L54.55,300L57.6,300L60.6,300L63.65,300L66.65,300L69.7,300L72.75,299.667L75.75,298.333L78.8,294L81.8,283L84.85,263.333L87.9,236.667L90.9,208.667L93.95,185.333L96.95,171.333L100,167L103.05,170.333L106.05,178.667L109.1,189L112.1,199.667L115.15,209L118.2,217.333L121.2,223.667L124.25,228.333L127.25,231.667L130.3,233.667L133.35,234L136.35,233.667L139.4,232L142.4,229.333L145.45,226L148.5,221.667L151.5,216.667L154.55,211.333L157.6,205.667L160.6,199.667L163.65,194L166.65,188.333L169.7,183.333L172.75,179L175.75,175.333L178.8,172.333L181.8,170L184.85,168.667L187.9,167.667L190.9,167.333L193.95,167L196.95,167L200,167L203.05,167L206.05,167L209.1,167.333L212.1,168.333L215.15,170L218.2,173.333L221.2,179L224.25,188L227.25,200.333L230.3,216L233.35,234L236.35,253L239.4,270.333L242.4,283.667L245.45,292.667L248.5,297.333L251.5,299.333L254.55,300L257.6,300L260.6,300L263.65,300L266.65,300L269.7,300L272.75,300L275.75,300L278.8,300L281.8,300L284.85,300L287.9,300L290.9,300L293.95,300L296.95,300L300,300" stroke="red" stroke-width="2"/></g></g><path class="foreground" aria-hidden="true" d="" display="none"/></g></g></g></svg>