<svg xmlns="http://www.w3.org/2000/svg" xmlns:xlink="http://www.w3.org/1999/xlink" version="1.1" class="marks" width="354" height="342" viewBox="0 0 354 342"><rect width="354" height="342" fill="white"/><g fill="none" stroke-miterlimit="10" transform="translate(47,5)"><g class="mark-group role-frame root" role="graphics-object" aria-roledescription="group mark container"><g transform="translate(0,0)"><path class="background" aria-hidden="true" d="M0.5,0.5h300v300h-300Z" stroke="#ddd"/><g><g class="mark-group role-axis" aria-hidden="true"><g transform="translate(0.5,300.5)"><path class="background" aria-hidden="true" d="M0,0h0v0h0Z" pointer-events="none"/><g><g class="mark-rule role-axis-grid" pointer-events="none"><line transform="translate(0,-300)" x2="0" y2="300" stroke="#ddd" stroke-width="1" opacity="1"/><line transform="translate(30,-300)" x2="0" y2="300" stroke="#ddd" stroke-width="1" opacity="1"/><line transform="translate(60,-300)" x2="0" y2="300" stroke="#ddd" stroke-width="1" opacity="1"/><line transform="translate(90,-300)" x2="0" y2="300" stroke="#ddd" stroke-width="1" opacity="1"/><line transform="translate(120,-300)" x2="0" y2="300" stroke="#ddd" stroke-width="1" opacity="1"/><line transform="translate(150,-300)" x2="0" y2="300" stroke="#ddd" stroke-width="1" opacity="1"/><line transform="translate(180,-300)" x2="0" y2="300" stroke="#ddd" stroke-width="1" opacity="1"/><line transform="translate(210,-300)" x2="0" y2="300" stroke="#ddd" stroke-width="1" opacity="1"/><line transform="translate(240,-300)" x2="0" y2="300" stroke="#ddd" stroke-width="1" opacity="1"/><line transform="translate(270,-300)" x2="0" y2="300" stroke="#ddd" stroke-width="1" opacity="1"/><line transform="translate(300,-300)" x2="0" y2="300" stroke="#ddd" stroke-width="1" opacity="1"/></g></g><path class="foreground" aria-hidden="true" d="" pointer-events="none" display="none"/></g></g><g class="mark-group role-axis" aria-hidden="true"><g transform="translate(0.5,0.5)"><path class="background" aria-hidden="true" d="M0,0h0v0h0Z" pointer-events="none"/><g><g class="mark-rule role-axis-grid" pointer-events="none"><line transform="translate(0,257)" x2="300" y2="0" stroke="#ddd" stroke-width="1" opacity="1"/><line transform="translate(0,204)" x2="300" y2="0" stroke="#ddd" stroke-width="1" opacity="1"/><line transform="translate(0,150)" x2="300" y2="0" stroke="#ddd" stroke-width="1" opacity="1"/><line transform="translate(0,96)" x2="300" y2="0" stroke="#ddd" stroke-width="1" opacity="1"/><line transform="translate(0,43)" x2="300" y2="0" stroke="#ddd" stroke-width="1" opacity="1"/></g></g><path class="foreground" aria-hidden="true" d="" pointer-events="none" display="none"/></g></g><g class="mark-group role-axis" role="graphics-symbol" aria-roledescription="axis" aria-label="X-axis titled 'x' for a linear scale with values from −5 to 5"><g transform="translate(0.5,300.5)"><path class="background" aria-hidden="true" d="M0,0h0v0h0Z" pointer-events="none"/><g><g class="mark-rule role-axis-tick" pointer-events="none"><line transform="translate(0,0)" x2="0" y2="5" stroke="#888" stroke-width="1" opacity="1"/><line transform="translate(30,0)" x2="0" y2="5" stroke="#888" stroke-width="1" opacity="1"/><line transform="translate(60,0)" x2="0" y2="5" stroke="#888" stroke-width="1" opacity="1"/><line transform="translate(90,0)" x2="0" y2="5" stroke="#888" stroke-width="1" opacity="1"/><line transform="translate(120,0)" x2="0" y2="5" stroke="#888" stroke-width="1" opacity="1"/><line transform="translate(150,0)" x2="0" y2="5" stroke="#888" stroke-width="1" opacity="1"/><line transform="translate(180,0)" x2="0" y2="5" stroke="#888" stroke-width="1" opacity="1"/><line transform="translate(210,0)" x2="0" y2="5" stroke="#888" stroke-width="1" opacity="1"/><line transform="translate(240,0)" x2="0" y2="5" stroke="#888" stroke-width="1" opacity="1"/><line transform="translate(270,0)" x2="0" y2="5" stroke="#888" stroke-width="1" opacity="1"/><line transform="translate(300,0)" x2="0" y2="5" stroke="#888" stroke-width="1" opacity="1"/></g><g class="mark-text role-axis-label" pointer-events="none"><text text-anchor="start" transform="translate(0,15)" font-family="sans-serif" font-size="10px" fill="#000" opacity="1">−5</text><text text-anchor="middle" transform="translate(30,15)" font-family="sans-serif" font-size="10px" fill="#000" opacity="1">−4</text><text text-anchor="middle" transform="translate(60,15)" font-family="sans-serif" font-size="10px" fill="#000" opacity="1">−3</text><text text-anchor="middle" transform="translate(90,15)" font-family="sans-serif" font-size="10px" fill="#000" opacity="1">−2</text><text text-anchor="middle" transform="translate(120,15)" font-family="sans-serif" font-size="10px" fill="#000" opacity="1">−1</text><text text-anchor="middle" transform="translate(150,15)" font-family="sans-serif" font-size="10px" fill="#000" opacity="1">0</text><text text-anchor="middle" transform="translate(180,15)" font-family="sans-serif" font-size="10px" fill="#000" opacity="1">1</text><text text-anchor="middle" transform="translate(210,15)" font-family="sans-serif" font-size="10px" fill="#000" opacity="1">2</text><text text-anchor="middle" transform="translate(240,15)" font-family="sans-serif" font-size="10px" fill="#000" opacity="1">3</text><text text-anchor="middle" transform="translate(270,15)" font-family="sans-serif" font-size="10px" fill="#000" opacity="1">4</text><text text-anchor="end" transform="translate(300,15)" font-family="sans-serif" font-size="10px" fill="#000" opacity="1">5</text></g><g class="mark-rule role-axis-domain" pointer-events="none"><line transform="translate(0,0)" x2="300" y2="0" stroke="#888" stroke-width="1" opacity="1"/></g><g class="mark-text role-axis-title" pointer-events="none"><text text-anchor="middle" transform="translate(150,30)" font-family="sans-serif" font-size="11px" font-weight="bold" fill="#000" opacity="1">x</text></g></g><path class="foreground" aria-hidden="true" d="" pointer-events="none" display="none"/></g></g><g class="mark-group role-axis" role="graphics-symbol" aria-roledescription="axis" aria-label="Y-axis titled 'y, y_true, y_pred' for a linear scale with values from −1.4 to 1.4"><g transform="translate(0.5,0.5)"><path class="background" aria-hidden="true" d="M0,0h0v0h0Z" pointer-events="none"/><g><g class="mark-rule role-axis-tick" pointer-events="none"><line transform="translate(0,257)" x2="-5" y2="0" stroke="#888" stroke-width="1" opacity="1"/><line transform="translate(0,204)" x2="-5" y2="0" stroke="#888" stroke-width="1" opacity="1"/><line transform="translate(0,150)" x2="-5" y2="0" stroke="#888" stroke-width="1" opacity="1"/><line transform="translate(0,96)" x2="-5" y2="0" stroke="#888" stroke-width="1" opacity="1"/><line transform="translate(0,43)" x2="-5" y2="0" stroke="#888" stroke-width="1" opacity="1"/></g><g class="mark-text role-axis-label" pointer-events="none"><text text-anchor="end" transform="translate(-7,260.14285714285717)" font-family="sans-serif" font-size="10px" fill="#000" opacity="1">−1.0</text><text text-anchor="end" transform="translate(-7,206.57142857142858)" font-family="sans-serif" font-size="10px" fill="#000" opacity="1">−0.5</text><text text-anchor="end" transform="translate(-7,153)" font-family="sans-serif" font-size="10px" fill="#000" opacity="1">0.0</text><text text-anchor="end" transform="translate(-7,99.42857142857142)" font-family="sans-serif" font-size="10px" fill="#000" opacity="1">0.5</text><text text-anchor="end" transform="translate(-7,45.85714285714284)" font-family="sans-serif" font-size="10px" fill="#000" opacity="1">1.0</text></g><g class="mark-rule role-axis-domain" pointer-events="none"><line transform="translate(0,300)" x2="0" y2="-300" stroke="#888" stroke-width="1" opacity="1"/></g><g class="mark-text role-axis-title" pointer-events="none"><text text-anchor="middle" transform="translate(-30.7412109375,150) rotate(-90) translate(0,-2)" font-family="sans-serif" font-size="11px" font-weight="bold" fill="#000" opacity="1">y, y_true, y_pred</text></g></g><path class="foreground" aria-hidden="true" d="" pointer-events="none" display="none"/></g></g><g class="mark-symbol role-mark layer_0_marks" role="graphics-object" aria-roledescription="symbol mark container"><path aria-label="x: −3; y: −0.894653320313" role="graphics-symbol" aria-roledescription="point" transform="translate(60,245.855712890625)" d="M1.581,0A1.581,1.581,0,1,1,-1.581,0A1.581,1.581,0,1,1,1.581,0" stroke="black" stroke-width="2" opacity="0.3"/><path aria-label="x: −2.96984910965; y: −1.0853818655" role="graphics-symbol" aria-roledescription="point" transform="translate(60.904526710510254,266.2909141608647)" d="M1.581,0A1.581,1.581,0,1,1,-1.581,0A1.581,1.581,0,1,1,1.581,0" stroke="black" stroke-width="2" opacity="0.3"/><path aria-label="x: −2.93969869614; y: −1.06923985481" role="graphics-symbol" aria-roledescription="point" transform="translate(61.80903911590576,264.5614130156381)" d="M1.581,0A1.581,1.581,0,1,1,-1.581,0A1.581,1.581,0,1,1,1.581,0" stroke="black" stroke-width="2" opacity="0.3"/><path aria-label="x: −2.90954780579; y: −1.11121368408" role="graphics-symbol" aria-roledescription="point" transform="translate(62.713565826416016,269.05860900878906)" d="M1.581,0A1.581,1.581,0,1,1,-1.581,0A1.581,1.581,0,1,1,1.581,0" stroke="black" stroke-width="2" opacity="0.3"/><path aria-label="x: −2.87939715385; y: −1.08083343506" role="graphics-symbol" aria-roledescription="point" transform="translate(63.6180853843689,265.80358232770647)" d="M1.581,0A1.581,1.581,0,1,1,-1.581,0A1.581,1.581,0,1,1,1.581,0" stroke="black" stroke-width="2" opacity="0.3"/><path aria-label="x: −2.84924602509; y: −0.934436619282" role="graphics-symbol" aria-roledescription="point" transform="translate(64.52261924743652,250.11820920876093)" d="M1.581,0A1.581,1.581,0,1,1,-1.581,0A1.581,1.581,0,1,1,1.581,0" stroke="black" stroke-width="2" opacity="0.3"/><path aria-label="x: −2.81909561157; y: −0.920513629913" role="graphics-symbol" aria-roledescription="point" transform="translate(65.42713165283203,248.6264603478568)" d="M1.581,0A1.581,1.581,0,1,1,-1.581,0A1.581,1.581,0,1,1,1.581,0" stroke="black" stroke-width="2" opacity="0.3"/><path aria-label="x: −2.78894472122; y: −1.09502732754" role="graphics-symbol" aria-roledescription="point" transform="translate(66.33165836334229,267.32435652187894)" d="M1.581,0A1.581,1.581,0,1,1,-1.581,0A1.581,1.581,0,1,1,1.581,0" stroke="black" stroke-width="2" opacity="0.3"/><path aria-label="x: −2.75879383087; y: −0.825838327408" role="graphics-symbol" aria-roledescription="point" transform="translate(67.23618507385254,238.48267793655396)" d="M1.581,0A1.581,1.581,0,1,1,-1.581,0A1.581,1.581,0,1,1,1.581,0" stroke="black" stroke-width="2" opacity="0.3"/><path aria-label="x: −2.72864317894; y: −1.18060851097" role="graphics-symbol" aria-roledescription="point" transform="translate(68.14070463180542,276.4937690326146)" d="M1.581,0A1.581,1.581,0,1,1,-1.581,0A1.581,1.581,0,1,1,1.581,0" stroke="black" stroke-width="2" opacity="0.3"/><path aria-label="x: −2.69849252701; y: −1.11987388134" role="graphics-symbol" aria-roledescription="point" transform="translate(69.0452241897583,269.98648728643144)" d="M1.581,0A1.581,1.581,0,1,1,-1.581,0A1.581,1.581,0,1,1,1.581,0" stroke="black" stroke-width="2" opacity="0.3"/><path aria-label="x: −2.66834163666; y: −0.977061867714" role="graphics-symbol" aria-roledescription="point" transform="translate(69.94975090026855,254.6852001122066)" d="M1.581,0A1.581,1.581,0,1,1,-1.581,0A1.581,1.581,0,1,1,1.581,0" stroke="black" stroke-width="2" opacity="0.3"/><path aria-label="x: −2.63819098473; y: −1.10513412952" role="graphics-symbol" aria-roledescription="point" transform="translate(70.85427045822144,268.4072281633105)" d="M1.581,0A1.581,1.581,0,1,1,-1.581,0A1.581,1.581,0,1,1,1.581,0" stroke="black" stroke-width="2" opacity="0.3"/><path aria-label="x: −2.60804033279; y: −0.965271890163" role="graphics-symbol" aria-roledescription="point" transform="translate(71.75879001617432,253.42198823179518)" d="M1.581,0A1.581,1.581,0,1,1,-1.581,0A1.581,1.581,0,1,1,1.581,0" stroke="black" stroke-width="2" opacity="0.3"/><path aria-label="x: −2.57788944244; y: −0.814053475857" role="graphics-symbol" aria-roledescription="point" transform="translate(72.66331672668457,237.2200152703694)" d="M1.581,0A1.581,1.581,0,1,1,-1.581,0A1.581,1.581,0,1,1,1.581,0" stroke="black" stroke-width="2" opacity="0.3"/><path aria-label="x: −2.54773879051; y: −0.937323868275" role="graphics-symbol" aria-roledescription="point" transform="translate(73.56783628463745,250.4275573151452)" d="M1.581,0A1.581,1.581,0,1,1,-1.581,0A1.581,1.581,0,1,1,1.581,0" stroke="black" stroke-width="2" opacity="0.3"/><path aria-label="x: −2.51758790016; y: −0.927568733692" role="graphics-symbol" aria-roledescription="point" transform="translate(74.4723629951477,249.382364324161)" d="M1.581,0A1.581,1.581,0,1,1,-1.581,0A1.581,1.581,0,1,1,1.581,0" stroke="black" stroke-width="2" opacity="0.3"/><path aria-label="x: −2.48743724823; y: −1.0335599184" role="graphics-symbol" aria-roledescription="point" transform="translate(75.37688255310059,260.73856268610274)" d="M1.581,0A1.581,1.581,0,1,1,-1.581,0A1.581,1.581,0,1,1,1.581,0" stroke="black" stroke-width="2" opacity="0.3"/><path aria-label="x: −2.45728635788; y: −0.893865525723" role="graphics-symbol" aria-roledescription="point" transform="translate(76.28140926361084,245.7713063274111)" d="M1.581,0A1.581,1.581,0,1,1,-1.581,0A1.581,1.581,0,1,1,1.581,0" stroke="black" stroke-width="2" opacity="0.3"/><path aria-label="x: −2.42713546753; y: −0.948410212994" role="graphics-symbol" aria-roledescription="point" transform="translate(77.1859359741211,251.61537996360235)" d="M1.581,0A1.581,1.581,0,1,1,-1.581,0A1.581,1.581,0,1,1,1.581,0" stroke="black" stroke-width="2" opacity="0.3"/><path aria-label="x: −2.39698505402; y: −1.04699337482" role="graphics-symbol" aria-roledescription="point" transform="translate(78.0904483795166,262.17786158834184)" d="M1.581,0A1.581,1.581,0,1,1,-1.581,0A1.581,1.581,0,1,1,1.581,0" stroke="black" stroke-width="2" opacity="0.3"/><path aria-label="x: −2.36683416367; y: −1.06961405277" role="graphics-symbol" aria-roledescription="point" transform="translate(78.99497509002686,264.6015056541988)" d="M1.581,0A1.581,1.581,0,1,1,-1.581,0A1.581,1.581,0,1,1,1.581,0" stroke="black" stroke-width="2" opacity="0.3"/><path aria-label="x: −2.33668327332; y: −0.905652463436" role="graphics-symbol" aria-roledescription="point" transform="translate(79.89950180053711,247.0341925110136)" d="M1.581,0A1.581,1.581,0,1,1,-1.581,0A1.581,1.581,0,1,1,1.581,0" stroke="black" stroke-width="2" opacity="0.3"/><path aria-label="x: −2.3065328598; y: −0.874066889286" role="graphics-symbol" aria-roledescription="point" transform="translate(80.80401420593262,243.65002385207586)" d="M1.581,0A1.581,1.581,0,1,1,-1.581,0A1.581,1.581,0,1,1,1.581,0" stroke="black" stroke-width="2" opacity="0.3"/><path aria-label="x: −2.27638196945; y: −0.888308107853" role="graphics-symbol" aria-roledescription="point" transform="translate(81.70854091644287,245.17586869852886)" d="M1.581,0A1.581,1.581,0,1,1,-1.581,0A1.581,1.581,0,1,1,1.581,0" stroke="black" stroke-width="2" opacity="0.3"/><path aria-label="x: −2.2462310791; y: −1.02709376812" role="graphics-symbol" aria-roledescription="point" transform="translate(82.61306762695312,260.04576086997986)" d="M1.581,0A1.581,1.581,0,1,1,-1.581,0A1.581,1.581,0,1,1,1.581,0" stroke="black" stroke-width="2" opacity="0.3"/><path aria-label="x: −2.21608066559; y: −0.88765257597" role="graphics-symbol" aria-roledescription="point" transform="translate(83.51758003234863,245.1056331396103)" d="M1.581,0A1.581,1.581,0,1,1,-1.581,0A1.581,1.581,0,1,1,1.581,0" stroke="black" stroke-width="2" opacity="0.3"/><path aria-label="x: −2.18592953682; y: −0.810520350933" role="graphics-symbol" aria-roledescription="point" transform="translate(84.42211389541626,236.8414661714009)" d="M1.581,0A1.581,1.581,0,1,1,-1.581,0A1.581,1.581,0,1,1,1.581,0" stroke="black" stroke-width="2" opacity="0.3"/><path aria-label="x: −2.15577888489; y: −1.2251162529" role="graphics-symbol" aria-roledescription="point" transform="translate(85.32663345336914,281.2624556677682)" d="M1.581,0A1.581,1.581,0,1,1,-1.581,0A1.581,1.581,0,1,1,1.581,0" stroke="black" stroke-width="2" opacity="0.3"/><path aria-label="x: −2.12562799454; y: −0.927729427814" role="graphics-symbol" aria-roledescription="point" transform="translate(86.2311601638794,249.39958155155182)" d="M1.581,0A1.581,1.581,0,1,1,-1.581,0A1.581,1.581,0,1,1,1.581,0" stroke="black" stroke-width="2" opacity="0.3"/><path aria-label="x: −2.09547734261; y: −0.788456082344" role="graphics-symbol" aria-roledescription="point" transform="translate(87.13567972183228,234.4774373940059)" d="M1.581,0A1.581,1.581,0,1,1,-1.581,0A1.581,1.581,0,1,1,1.581,0" stroke="black" stroke-width="2" opacity="0.3"/><path aria-label="x: −2.06532669067; y: −1.08567762375" role="graphics-symbol" aria-roledescription="point" transform="translate(88.04019927978516,266.32260254451205)" d="M1.581,0A1.581,1.581,0,1,1,-1.581,0A1.581,1.581,0,1,1,1.581,0" stroke="black" stroke-width="2" opacity="0.3"/><path aria-label="x: −2.03517580032; y: −1.02530193329" role="graphics-symbol" aria-roledescription="point" transform="translate(88.94472599029541,259.85377856663297)" d="M1.581,0A1.581,1.581,0,1,1,-1.581,0A1.581,1.581,0,1,1,1.581,0" stroke="black" stroke-width="2" opacity="0.3"/><path aria-label="x: −2.00502538681; y: −0.749682366848" role="graphics-symbol" aria-roledescription="point" transform="translate(89.84923839569092,230.32311073371343)" d="M1.581,0A1.581,1.581,0,1,1,-1.581,0A1.581,1.581,0,1,1,1.581,0" stroke="black" stroke-width="2" opacity="0.3"/><path aria-label="x: −1.97487449646; y: −0.882020711899" role="graphics-symbol" aria-roledescription="point" transform="translate(90.75376510620117,244.5022191320147)" d="M1.581,0A1.581,1.581,0,1,1,-1.581,0A1.581,1.581,0,1,1,1.581,0" stroke="black" stroke-width="2" opacity="0.3"/><path aria-label="x: −1.94472360611; y: −0.979652225971" role="graphics-symbol" aria-roledescription="point" transform="translate(91.65829181671143,254.96273849691664)" d="M1.581,0A1.581,1.581,0,1,1,-1.581,0A1.581,1.581,0,1,1,1.581,0" stroke="black" stroke-width="2" opacity="0.3"/><path aria-label="x: −1.91457283497; y: −1.13144826889" role="graphics-symbol" aria-roledescription="point" transform="translate(92.562814950943,271.2266002382551)" d="M1.581,0A1.581,1.581,0,1,1,-1.581,0A1.581,1.581,0,1,1,1.581,0" stroke="black" stroke-width="2" opacity="0.3"/><path aria-label="x: −1.88442218304; y: −1.03702580929" role="graphics-symbol" aria-roledescription="point" transform="translate(93.46733450889587,261.10990813800265)" d="M1.581,0A1.581,1.581,0,1,1,-1.581,0A1.581,1.581,0,1,1,1.581,0" stroke="black" stroke-width="2" opacity="0.3"/><path aria-label="x: −1.8542714119; y: −1.18841433525" role="graphics-symbol" aria-roledescription="point" transform="translate(94.37185764312744,277.33010734830583)" d="M1.581,0A1.581,1.581,0,1,1,-1.581,0A1.581,1.581,0,1,1,1.581,0" stroke="black" stroke-width="2" opacity="0.3"/><path aria-label="x: −1.82412064075; y: −0.793982744217" role="graphics-symbol" aria-roledescription="point" transform="translate(95.27638077735901,235.06957973752702)" d="M1.581,0A1.581,1.581,0,1,1,-1.581,0A1.581,1.581,0,1,1,1.581,0" stroke="black" stroke-width="2" opacity="0.3"/><path aria-label="x: −1.7939697504; y: −0.805635213852" role="graphics-symbol" aria-roledescription="point" transform="translate(96.18090748786926,236.31805862699235)" d="M1.581,0A1.581,1.581,0,1,1,-1.581,0A1.581,1.581,0,1,1,1.581,0" stroke="black" stroke-width="2" opacity="0.3"/><path aria-label="x: −1.76381921768; y: −0.90789014101" role="graphics-symbol" aria-roledescription="point" transform="translate(97.08542346954346,247.27394367967332)" d="M1.581,0A1.581,1.581,0,1,1,-1.581,0A1.581,1.581,0,1,1,1.581,0" stroke="black" stroke-width="2" opacity="0.3"/><path aria-label="x: −1.73366832733; y: −0.933241486549" role="graphics-symbol" aria-roledescription="point" transform="translate(97.98995018005371,249.99015927314758)" d="M1.581,0A1.581,1.581,0,1,1,-1.581,0A1.581,1.581,0,1,1,1.581,0" stroke="black" stroke-width="2" opacity="0.3"/><path aria-label="x: −1.70351755619; y: −0.821143388748" role="graphics-symbol" aria-roledescription="point" transform="translate(98.89447331428528,237.97964879444666)" d="M1.581,0A1.581,1.581,0,1,1,-1.581,0A1.581,1.581,0,1,1,1.581,0" stroke="black" stroke-width="2" opacity="0.3"/><path aria-label="x: −1.67336690426; y: −0.953240990639" role="graphics-symbol" aria-roledescription="point" transform="translate(99.79899287223816,252.1329632827214)" d="M1.581,0A1.581,1.581,0,1,1,-1.581,0A1.581,1.581,0,1,1,1.581,0" stroke="black" stroke-width="2" opacity="0.3"/><path aria-label="x: −1.64321613312; y: −0.961888253689" role="graphics-symbol" aria-roledescription="point" transform="translate(100.70351600646973,253.05945575237274)" d="M1.581,0A1.581,1.581,0,1,1,-1.581,0A1.581,1.581,0,1,1,1.581,0" stroke="black" stroke-width="2" opacity="0.3"/><path aria-label="x: −1.6130656004; y: −0.854726433754" role="graphics-symbol" aria-roledescription="point" transform="translate(101.60803198814392,241.57783218792505)" d="M1.581,0A1.581,1.581,0,1,1,-1.581,0A1.581,1.581,0,1,1,1.581,0" stroke="black" stroke-width="2" opacity="0.3"/><path aria-label="x: −1.58291447163; y: −0.952979683876" role="graphics-symbol" aria-roledescription="point" transform="translate(102.51256585121155,252.10496612957544)" d="M1.581,0A1.581,1.581,0,1,1,-1.581,0A1.581,1.581,0,1,1,1.581,0" stroke="black" stroke-width="2" opacity="0.3"/><path aria-label="x: −1.5527639389; y: −0.865039885044" role="graphics-symbol" aria-roledescription="point" transform="translate(103.41708183288574,242.68284482615337)" d="M1.581,0A1.581,1.581,0,1,1,-1.581,0A1.581,1.581,0,1,1,1.581,0" stroke="black" stroke-width="2" opacity="0.3"/><path aria-label="x: −1.52261304855; y: −0.88799238205" role="graphics-symbol" aria-roledescription="point" transform="translate(104.321608543396,245.14204093388147)" d="M1.581,0A1.581,1.581,0,1,1,-1.581,0A1.581,1.581,0,1,1,1.581,0" stroke="black" stroke-width="2" opacity="0.3"/><path aria-label="x: −1.49246227741; y: −1.08503746986" role="graphics-symbol" aria-roledescription="point" transform="translate(105.22613167762756,266.2540146282741)" d="M1.581,0A1.581,1.581,0,1,1,-1.581,0A1.581,1.581,0,1,1,1.581,0" stroke="black" stroke-width="2" opacity="0.3"/><path aria-label="x: −1.46231162548; y: −0.709683537483" role="graphics-symbol" aria-roledescription="point" transform="translate(106.13065123558044,226.03752187320165)" d="M1.581,0A1.581,1.581,0,1,1,-1.581,0A1.581,1.581,0,1,1,1.581,0" stroke="black" stroke-width="2" opacity="0.3"/><path aria-label="x: −1.43216085434; y: −0.807590842247" role="graphics-symbol" aria-roledescription="point" transform="translate(107.03517436981201,236.52759024075098)" d="M1.581,0A1.581,1.581,0,1,1,-1.581,0A1.581,1.581,0,1,1,1.581,0" stroke="black" stroke-width="2" opacity="0.3"/><path aria-label="x: −1.4020100832; y: −0.717007160187" role="graphics-symbol" aria-roledescription="point" transform="translate(107.93969750404358,226.8221957342965)" d="M1.581,0A1.581,1.581,0,1,1,-1.581,0A1.581,1.581,0,1,1,1.581,0" stroke="black" stroke-width="2" opacity="0.3"/><path aria-label="x: −1.37185943127; y: −0.714496254921" role="graphics-symbol" aria-roledescription="point" transform="translate(108.84421706199646,226.5531701701028)" d="M1.581,0A1.581,1.581,0,1,1,-1.581,0A1.581,1.581,0,1,1,1.581,0" stroke="black" stroke-width="2" opacity="0.3"/><path aria-label="x: −1.34170866013; y: −0.949242413044" role="graphics-symbol" aria-roledescription="point" transform="translate(109.74874019622803,251.70454425471172)" d="M1.581,0A1.581,1.581,0,1,1,-1.581,0A1.581,1.581,0,1,1,1.581,0" stroke="black" stroke-width="2" opacity="0.3"/><path aria-label="x: −1.31155776978; y: −0.743804454803" role="graphics-symbol" aria-roledescription="point" transform="translate(110.65326690673828,229.6933344432286)" d="M1.581,0A1.581,1.581,0,1,1,-1.581,0A1.581,1.581,0,1,1,1.581,0" stroke="black" stroke-width="2" opacity="0.3"/><path aria-label="x: −1.28140723705; y: −0.953978776932" role="graphics-symbol" aria-roledescription="point" transform="translate(111.55778288841248,252.21201181411743)" d="M1.581,0A1.581,1.581,0,1,1,-1.581,0A1.581,1.581,0,1,1,1.581,0" stroke="black" stroke-width="2" opacity="0.3"/><path aria-label="x: −1.25125622749; y: −0.741539895535" role="graphics-symbol" aria-roledescription="point" transform="translate(112.46231317520142,229.45070309298382)" d="M1.581,0A1.581,1.581,0,1,1,-1.581,0A1.581,1.581,0,1,1,1.581,0" stroke="black" stroke-width="2" opacity="0.3"/><path aria-label="x: −1.22110557556; y: −0.857699275017" role="graphics-symbol" aria-roledescription="point" transform="translate(113.3668327331543,241.8963508946555)" d="M1.581,0A1.581,1.581,0,1,1,-1.581,0A1.581,1.581,0,1,1,1.581,0" stroke="black" stroke-width="2" opacity="0.3"/><path aria-label="x: −1.19095480442; y: −0.744502067566" role="graphics-symbol" aria-roledescription="point" transform="translate(114.27135586738586,229.76807866777693)" d="M1.581,0A1.581,1.581,0,1,1,-1.581,0A1.581,1.581,0,1,1,1.581,0" stroke="black" stroke-width="2" opacity="0.3"/><path aria-label="x: −1.16080391407; y: −0.780781567097" role="graphics-symbol" aria-roledescription="point" transform="translate(115.17588257789612,233.65516790321894)" d="M1.581,0A1.581,1.581,0,1,1,-1.581,0A1.581,1.581,0,1,1,1.581,0" stroke="black" stroke-width="2" opacity="0.3"/><path aria-label="x: −1.13065338135; y: −0.87333124876" role="graphics-symbol" aria-roledescription="point" transform="translate(116.08039855957031,243.57120522430964)" d="M1.581,0A1.581,1.581,0,1,1,-1.581,0A1.581,1.581,0,1,1,1.581,0" stroke="black" stroke-width="2" opacity="0.3"/><path aria-label="x: −1.100502491; y: −0.777640104294" role="graphics-symbol" aria-roledescription="point" transform="translate(116.98492527008057,233.31858260290966)" d="M1.581,0A1.581,1.581,0,1,1,-1.581,0A1.581,1.581,0,1,1,1.581,0" stroke="black" stroke-width="2" opacity="0.3"/><path aria-label="x: −1.07035171986; y: −1.03792476654" role="graphics-symbol" aria-roledescription="point" transform="translate(117.88944840431213,261.2062249864851)" d="M1.581,0A1.581,1.581,0,1,1,-1.581,0A1.581,1.581,0,1,1,1.581,0" stroke="black" stroke-width="2" opacity="0.3"/><path aria-label="x: −1.04020118713; y: −0.849463880062" role="graphics-symbol" aria-roledescription="point" transform="translate(118.79396438598633,241.01398714951105)" d="M1.581,0A1.581,1.581,0,1,1,-1.581,0A1.581,1.581,0,1,1,1.581,0" stroke="black" stroke-width="2" opacity="0.3"/><path aria-label="x: −1.01005029678; y: −0.784525930882" role="graphics-symbol" aria-roledescription="point" transform="translate(119.69849109649658,234.0563497373036)" d="M1.581,0A1.581,1.581,0,1,1,-1.581,0A1.581,1.581,0,1,1,1.581,0" stroke="black" stroke-width="2" opacity="0.3"/><path aria-label="x: −0.979899585247; y: −0.51453769207" role="graphics-symbol" aria-roledescription="point" transform="translate(120.6030124425888,205.12903843607222)" d="M1.581,0A1.581,1.581,0,1,1,-1.581,0A1.581,1.581,0,1,1,1.581,0" stroke="black" stroke-width="2" opacity="0.3"/><path aria-label="x: −0.949748814106; y: −0.91927331686" role="graphics-symbol" aria-roledescription="point" transform="translate(121.50753557682037,248.49356966359275)" d="M1.581,0A1.581,1.581,0,1,1,-1.581,0A1.581,1.581,0,1,1,1.581,0" stroke="black" stroke-width="2" opacity="0.3"/><path aria-label="x: −0.91959798336; y: −0.829338431358" role="graphics-symbol" aria-roledescription="point" transform="translate(122.41206049919128,238.85768907410758)" d="M1.581,0A1.581,1.581,0,1,1,-1.581,0A1.581,1.581,0,1,1,1.581,0" stroke="black" stroke-width="2" opacity="0.3"/><path aria-label="x: −0.889447271824; y: −0.837922096252" role="graphics-symbol" aria-roledescription="point" transform="translate(123.31658184528351,239.77736745561873)" d="M1.581,0A1.581,1.581,0,1,1,-1.581,0A1.581,1.581,0,1,1,1.581,0" stroke="black" stroke-width="2" opacity="0.3"/><path aria-label="x: −0.859296441078; y: −0.845971345901" role="graphics-symbol" aria-roledescription="point" transform="translate(124.22110676765442,240.63978706087386)" d="M1.581,0A1.581,1.581,0,1,1,-1.581,0A1.581,1.581,0,1,1,1.581,0" stroke="black" stroke-width="2" opacity="0.3"/><path aria-label="x: −0.829145848751; y: −0.671495378017" role="graphics-symbol" aria-roledescription="point" transform="translate(125.12562453746796,221.94593335900987)" d="M1.581,0A1.581,1.581,0,1,1,-1.581,0A1.581,1.581,0,1,1,1.581,0" stroke="black" stroke-width="2" opacity="0.3"/><path aria-label="x: −0.798995018005; y: −0.48332464695" role="graphics-symbol" aria-roledescription="point" transform="translate(126.03014945983887,201.78478360176086)" d="M1.581,0A1.581,1.581,0,1,1,-1.581,0A1.581,1.581,0,1,1,1.581,0" stroke="black" stroke-width="2" opacity="0.3"/><path aria-label="x: −0.768844246864; y: −0.518487095833" role="graphics-symbol" aria-roledescription="point" transform="translate(126.93467259407043,205.5521888392312)" d="M1.581,0A1.581,1.581,0,1,1,-1.581,0A1.581,1.581,0,1,1,1.581,0" stroke="black" stroke-width="2" opacity="0.3"/><path aria-label="x: −0.738693654537; y: −0.579135894775" role="graphics-symbol" aria-roledescription="point" transform="translate(127.83919036388397,212.05027444022045)" d="M1.581,0A1.581,1.581,0,1,1,-1.581,0A1.581,1.581,0,1,1,1.581,0" stroke="black" stroke-width="2" opacity="0.3"/><path aria-label="x: −0.708542823792; y: −0.556814074516" role="graphics-symbol" aria-roledescription="point" transform="translate(128.74371528625488,209.65865084103174)" d="M1.581,0A1.581,1.581,0,1,1,-1.581,0A1.581,1.581,0,1,1,1.581,0" stroke="black" stroke-width="2" opacity="0.3"/><path aria-label="x: −0.678391993046; y: −0.521378755569" role="graphics-symbol" aria-roledescription="point" transform="translate(129.6482402086258,205.86200952529907)" d="M1.581,0A1.581,1.581,0,1,1,-1.581,0A1.581,1.581,0,1,1,1.581,0" stroke="black" stroke-width="2" opacity="0.3"/><path aria-label="x: −0.648241281509; y: −0.485676974058" role="graphics-symbol" aria-roledescription="point" transform="translate(130.55276155471802,202.03681864908762)" d="M1.581,0A1.581,1.581,0,1,1,-1.581,0A1.581,1.581,0,1,1,1.581,0" stroke="black" stroke-width="2" opacity="0.3"/><path aria-label="x: −0.618090450764; y: −0.562626123428" role="graphics-symbol" aria-roledescription="point" transform="translate(131.45728647708893,210.28137036732264)" d="M1.581,0A1.581,1.581,0,1,1,-1.581,0A1.581,1.581,0,1,1,1.581,0" stroke="black" stroke-width="2" opacity="0.3"/><path aria-label="x: −0.587939739227; y: −0.595287501812" role="graphics-symbol" aria-roledescription="point" transform="translate(132.36180782318115,213.7808037655694)" d="M1.581,0A1.581,1.581,0,1,1,-1.581,0A1.581,1.581,0,1,1,1.581,0" stroke="black" stroke-width="2" opacity="0.3"/><path aria-label="x: −0.557788968086; y: −0.357349097729" role="graphics-symbol" aria-roledescription="point" transform="translate(133.26633095741272,188.28740332807814)" d="M1.581,0A1.581,1.581,0,1,1,-1.581,0A1.581,1.581,0,1,1,1.581,0" stroke="black" stroke-width="2" opacity="0.3"/><path aria-label="x: −0.527638137341; y: −0.500023305416" role="graphics-symbol" aria-roledescription="point" transform="translate(134.17085587978363,203.57392558029719)" d="M1.581,0A1.581,1.581,0,1,1,-1.581,0A1.581,1.581,0,1,1,1.581,0" stroke="black" stroke-width="2" opacity="0.3"/><path aria-label="x: −0.497487545013; y: −0.638768911362" role="graphics-symbol" aria-roledescription="point" transform="translate(135.07537364959717,218.43952621732439)" d="M1.581,0A1.581,1.581,0,1,1,-1.581,0A1.581,1.581,0,1,1,1.581,0" stroke="black" stroke-width="2" opacity="0.3"/><path aria-label="x: −0.467336714268; y: −0.497028231621" role="graphics-symbol" aria-roledescription="point" transform="translate(135.97989857196808,203.25302481651306)" d="M1.581,0A1.581,1.581,0,1,1,-1.581,0A1.581,1.581,0,1,1,1.581,0" stroke="black" stroke-width="2" opacity="0.3"/><path aria-label="x: −0.437186151743; y: −0.2224021703" role="graphics-symbol" aria-roledescription="point" transform="translate(136.88441544771194,173.82880396076612)" d="M1.581,0A1.581,1.581,0,1,1,-1.581,0A1.581,1.581,0,1,1,1.581,0" stroke="black" stroke-width="2" opacity="0.3"/><path aria-label="x: −0.407035320997; y: −0.423238039017" role="graphics-symbol" aria-roledescription="point" transform="translate(137.78894037008286,195.34693275179183)" d="M1.581,0A1.581,1.581,0,1,1,-1.581,0A1.581,1.581,0,1,1,1.581,0" stroke="black" stroke-width="2" opacity="0.3"/><path aria-label="x: −0.376884490252; y: −0.0911483466625" role="graphics-symbol" aria-roledescription="point" transform="translate(138.69346529245377,159.76589428527012)" d="M1.581,0A1.581,1.581,0,1,1,-1.581,0A1.581,1.581,0,1,1,1.581,0" stroke="black" stroke-width="2" opacity="0.3"/><path aria-label="x: −0.346733808517; y: −0.385901838541" role="graphics-symbol" aria-roledescription="point" transform="translate(139.59798574447632,191.34662555796757)" d="M1.581,0A1.581,1.581,0,1,1,-1.581,0A1.581,1.581,0,1,1,1.581,0" stroke="black" stroke-width="2" opacity="0.3"/><path aria-label="x: −0.316582977772; y: −0.16913677752" role="graphics-symbol" aria-roledescription="point" transform="translate(140.50251066684723,168.12179759144783)" d="M1.581,0A1.581,1.581,0,1,1,-1.581,0A1.581,1.581,0,1,1,1.581,0" stroke="black" stroke-width="2" opacity="0.3"/><path aria-label="x: −0.286432147026; y: −0.360665559769" role="graphics-symbol" aria-roledescription="point" transform="translate(141.40703558921814,188.64273854664393)" d="M1.581,0A1.581,1.581,0,1,1,-1.581,0A1.581,1.581,0,1,1,1.581,0" stroke="black" stroke-width="2" opacity="0.3"/><path aria-label="x: −0.25628143549; y: −0.133280992508" role="graphics-symbol" aria-roledescription="point" transform="translate(142.31155693531036,164.28010634013586)" d="M1.581,0A1.581,1.581,0,1,1,-1.581,0A1.581,1.581,0,1,1,1.581,0" stroke="black" stroke-width="2" opacity="0.3"/><path aria-label="x: −0.226130634546; y: −0.189114749432" role="graphics-symbol" aria-roledescription="point" transform="translate(143.2160809636116,170.2622945819582)" d="M1.581,0A1.581,1.581,0,1,1,-1.581,0A1.581,1.581,0,1,1,1.581,0" stroke="black" stroke-width="2" opacity="0.3"/><path aria-label="x: −0.195980042219; y: −0.179086431861" role="graphics-symbol" aria-roledescription="point" transform="translate(144.12059873342514,169.18783198509897)" d="M1.581,0A1.581,1.581,0,1,1,-1.581,0A1.581,1.581,0,1,1,1.581,0" stroke="black" stroke-width="2" opacity="0.3"/><path aria-label="x: −0.165829226375; y: 0.0210555940866" role="graphics-symbol" aria-roledescription="point" transform="translate(145.02512320876122,147.7440434907164)" d="M1.581,0A1.581,1.581,0,1,1,-1.581,0A1.581,1.581,0,1,1,1.581,0" stroke="black" stroke-width="2" opacity="0.3"/><path aria-label="x: −0.135678395629; y: −0.174912646413" role="graphics-symbol" aria-roledescription="point" transform="translate(145.92964813113213,168.740640687091)" d="M1.581,0A1.581,1.581,0,1,1,-1.581,0A1.581,1.581,0,1,1,1.581,0" stroke="black" stroke-width="2" opacity="0.3"/><path aria-label="x: −0.105527818203; y: −0.248017132282" role="graphics-symbol" aria-roledescription="point" transform="translate(146.83416545391083,176.57326417309895)" d="M1.581,0A1.581,1.581,0,1,1,-1.581,0A1.581,1.581,0,1,1,1.581,0" stroke="black" stroke-width="2" opacity="0.3"/><path aria-label="x: −0.0753769949079; y: −0.00756651163101" role="graphics-symbol" aria-roledescription="point" transform="translate(147.73869015276432,150.81069767475128)" d="M1.581,0A1.581,1.581,0,1,1,-1.581,0A1.581,1.581,0,1,1,1.581,0" stroke="black" stroke-width="2" opacity="0.3"/><path aria-label="x: −0.0452262945473; y: −0.0768021643162" role="graphics-symbol" aria-roledescription="point" transform="translate(148.64321116358042,158.22880331959044)" d="M1.581,0A1.581,1.581,0,1,1,-1.581,0A1.581,1.581,0,1,1,1.581,0" stroke="black" stroke-width="2" opacity="0.3"/><path aria-label="x: −0.0150754731148; y: −0.14023207128" role="graphics-symbol" aria-roledescription="point" transform="translate(149.54773580655456,165.02486478005136)" d="M1.581,0A1.581,1.581,0,1,1,-1.581,0A1.581,1.581,0,1,1,1.581,0" stroke="black" stroke-width="2" opacity="0.3"/><path aria-label="x: 0.0150752291083; y: −0.257933557034" role="graphics-symbol" aria-roledescription="point" transform="translate(150.45225687325,177.63573825359344)" d="M1.581,0A1.581,1.581,0,1,1,-1.581,0A1.581,1.581,0,1,1,1.581,0" stroke="black" stroke-width="2" opacity="0.3"/><path aria-label="x: 0.0452260524035; y: 0.0796823948622" role="graphics-symbol" aria-roledescription="point" transform="translate(151.3567815721035,141.46260055048126)" d="M1.581,0A1.581,1.581,0,1,1,-1.581,0A1.581,1.581,0,1,1,1.581,0" stroke="black" stroke-width="2" opacity="0.3"/><path aria-label="x: 0.075376868248; y: 0.0239791609347" role="graphics-symbol" aria-roledescription="point" transform="translate(152.26130604743958,147.4308041855693)" d="M1.581,0A1.581,1.581,0,1,1,-1.581,0A1.581,1.581,0,1,1,1.581,0" stroke="black" stroke-width="2" opacity="0.3"/><path aria-label="x: 0.105527572334; y: 0.32250508666" role="graphics-symbol" aria-roledescription="point" transform="translate(153.16582717001438,115.4458835721016)" d="M1.581,0A1.581,1.581,0,1,1,-1.581,0A1.581,1.581,0,1,1,1.581,0" stroke="black" stroke-width="2" opacity="0.3"/><path aria-label="x: 0.13567827642; y: 0.0324996039271" role="graphics-symbol" aria-roledescription="point" transform="translate(154.0703482925892,146.5178995792355)" d="M1.581,0A1.581,1.581,0,1,1,-1.581,0A1.581,1.581,0,1,1,1.581,0" stroke="black" stroke-width="2" opacity="0.3"/><path aria-label="x: 0.165829092264; y: 0.286345213652" role="graphics-symbol" aria-roledescription="point" transform="translate(154.97487276792526,119.3201556801796)" d="M1.581,0A1.581,1.581,0,1,1,-1.581,0A1.581,1.581,0,1,1,1.581,0" stroke="black" stroke-width="2" opacity="0.3"/><path aria-label="x: 0.195979803801; y: 0.120707504451" role="graphics-symbol" aria-roledescription="point" transform="translate(155.8793941140175,137.06705309450626)" d="M1.581,0A1.581,1.581,0,1,1,-1.581,0A1.581,1.581,0,1,1,1.581,0" stroke="black" stroke-width="2" opacity="0.3"/><path aria-label="x: 0.226130500436; y: 0.096229031682" role="graphics-symbol" aria-roledescription="point" transform="translate(156.78391501307487,139.68974660549844)" d="M1.581,0A1.581,1.581,0,1,1,-1.581,0A1.581,1.581,0,1,1,1.581,0" stroke="black" stroke-width="2" opacity="0.3"/><path aria-label="x: 0.25628131628; y: 0.268478989601" role="graphics-symbol" aria-roledescription="point" transform="translate(157.68843948841095,121.23439397130694)" d="M1.581,0A1.581,1.581,0,1,1,-1.581,0A1.581,1.581,0,1,1,1.581,0" stroke="black" stroke-width="2" opacity="0.3"/><path aria-label="x: 0.286432147026; y: 0.214595615864" role="graphics-symbol" aria-roledescription="point" transform="translate(158.59296441078186,127.00761258602142)" d="M1.581,0A1.581,1.581,0,1,1,-1.581,0A1.581,1.581,0,1,1,1.581,0" stroke="black" stroke-width="2" opacity="0.3"/><path aria-label="x: 0.316582858562; y: 0.39204955101" role="graphics-symbol" aria-roledescription="point" transform="translate(159.49748575687408,107.99469096320014)" d="M1.581,0A1.581,1.581,0,1,1,-1.581,0A1.581,1.581,0,1,1,1.581,0" stroke="black" stroke-width="2" opacity="0.3"/><path aria-label="x: 0.346733540297; y: 0.410941511393" role="graphics-symbol" aria-roledescription="point" transform="translate(160.40200620889664,105.97055235079355)" d="M1.581,0A1.581,1.581,0,1,1,-1.581,0A1.581,1.581,0,1,1,1.581,0" stroke="black" stroke-width="2" opacity="0.3"/><path aria-label="x: 0.376884371042; y: 0.339648216963" role="graphics-symbol" aria-roledescription="point" transform="translate(161.30653113126755,113.60911961112704)" d="M1.581,0A1.581,1.581,0,1,1,-1.581,0A1.581,1.581,0,1,1,1.581,0" stroke="black" stroke-width="2" opacity="0.3"/><path aria-label="x: 0.407035082579; y: 0.551530301571" role="graphics-symbol" aria-roledescription="point" transform="translate(162.21105247735977,90.90746768883295)" d="M1.581,0A1.581,1.581,0,1,1,-1.581,0A1.581,1.581,0,1,1,1.581,0" stroke="black" stroke-width="2" opacity="0.3"/><path aria-label="x: 0.437185883522; y: 0.243089273572" role="graphics-symbol" aria-roledescription="point" transform="translate(163.115576505661,123.9547206887177)" d="M1.581,0A1.581,1.581,0,1,1,-1.581,0A1.581,1.581,0,1,1,1.581,0" stroke="black" stroke-width="2" opacity="0.3"/><path aria-label="x: 0.467336595058; y: 0.49875587225" role="graphics-symbol" aria-roledescription="point" transform="translate(164.02009785175323,96.56187083039966)" d="M1.581,0A1.581,1.581,0,1,1,-1.581,0A1.581,1.581,0,1,1,1.581,0" stroke="black" stroke-width="2" opacity="0.3"/><path aria-label="x: 0.497487306595; y: 0.571292161942" role="graphics-symbol" aria-roledescription="point" transform="translate(164.92461919784546,88.79012550626483)" d="M1.581,0A1.581,1.581,0,1,1,-1.581,0A1.581,1.581,0,1,1,1.581,0" stroke="black" stroke-width="2" opacity="0.3"/><path aria-label="x: 0.527638018131; y: 0.52882963419" role="graphics-symbol" aria-roledescription="point" transform="translate(165.82914054393768,93.33968205111366)" d="M1.581,0A1.581,1.581,0,1,1,-1.581,0A1.581,1.581,0,1,1,1.581,0" stroke="black" stroke-width="2" opacity="0.3"/><path aria-label="x: 0.557788848877; y: 0.626009225845" role="graphics-symbol" aria-roledescription="point" transform="translate(166.7336654663086,82.92758294514246)" d="M1.581,0A1.581,1.581,0,1,1,-1.581,0A1.581,1.581,0,1,1,1.581,0" stroke="black" stroke-width="2" opacity="0.3"/><path aria-label="x: 0.587939620018; y: 0.500097990036" role="graphics-symbol" aria-roledescription="point" transform="translate(167.63818860054016,96.41807249614172)" d="M1.581,0A1.581,1.581,0,1,1,-1.581,0A1.581,1.581,0,1,1,1.581,0" stroke="black" stroke-width="2" opacity="0.3"/><path aria-label="x: 0.618090331554; y: 0.383230626583" role="graphics-symbol" aria-roledescription="point" transform="translate(168.54270994663239,108.93957572323933)" d="M1.581,0A1.581,1.581,0,1,1,-1.581,0A1.581,1.581,0,1,1,1.581,0" stroke="black" stroke-width="2" opacity="0.3"/><path aria-label="x: 0.648241043091; y: 0.573636293411" role="graphics-symbol" aria-roledescription="point" transform="translate(169.4472312927246,88.53896856307983)" d="M1.581,0A1.581,1.581,0,1,1,-1.581,0A1.581,1.581,0,1,1,1.581,0" stroke="black" stroke-width="2" opacity="0.3"/><path aria-label="x: 0.678391873837; y: 0.516038477421" role="graphics-symbol" aria-roledescription="point" transform="translate(170.35175621509552,94.71016313348498)" d="M1.581,0A1.581,1.581,0,1,1,-1.581,0A1.581,1.581,0,1,1,1.581,0" stroke="black" stroke-width="2" opacity="0.3"/><path aria-label="x: 0.708542704582; y: 0.739360570908" role="graphics-symbol" aria-roledescription="point" transform="translate(171.25628113746643,70.78279597418647)" d="M1.581,0A1.581,1.581,0,1,1,-1.581,0A1.581,1.581,0,1,1,1.581,0" stroke="black" stroke-width="2" opacity="0.3"/><path aria-label="x: 0.738693416119; y: 0.72654402256" role="graphics-symbol" aria-roledescription="point" transform="translate(172.16080248355865,72.15599758284431)" d="M1.581,0A1.581,1.581,0,1,1,-1.581,0A1.581,1.581,0,1,1,1.581,0" stroke="black" stroke-width="2" opacity="0.3"/><path aria-label="x: 0.76884406805; y: 0.619955062866" role="graphics-symbol" aria-roledescription="point" transform="translate(173.06532204151154,83.57624326433454)" d="M1.581,0A1.581,1.581,0,1,1,-1.581,0A1.581,1.581,0,1,1,1.581,0" stroke="black" stroke-width="2" opacity="0.3"/><path aria-label="x: 0.798994898796; y: 0.758117139339" role="graphics-symbol" aria-roledescription="point" transform="translate(173.96984696388245,68.77316364220209)" d="M1.581,0A1.581,1.581,0,1,1,-1.581,0A1.581,1.581,0,1,1,1.581,0" stroke="black" stroke-width="2" opacity="0.3"/><path aria-label="x: 0.829145610332; y: 0.647667765617" role="graphics-symbol" aria-roledescription="point" transform="translate(174.87436830997467,80.60702511242457)" d="M1.581,0A1.581,1.581,0,1,1,-1.581,0A1.581,1.581,0,1,1,1.581,0" stroke="black" stroke-width="2" opacity="0.3"/><path aria-label="x: 0.859296321869; y: 0.561817407608" role="graphics-symbol" aria-roledescription="point" transform="translate(175.7788896560669,89.80527775628224)" d="M1.581,0A1.581,1.581,0,1,1,-1.581,0A1.581,1.581,0,1,1,1.581,0" stroke="black" stroke-width="2" opacity="0.3"/><path aria-label="x: 0.889447152615; y: 0.633892059326" role="graphics-symbol" aria-roledescription="point" transform="translate(176.6834145784378,82.08299364362445)" d="M1.581,0A1.581,1.581,0,1,1,-1.581,0A1.581,1.581,0,1,1,1.581,0" stroke="black" stroke-width="2" opacity="0.3"/><path aria-label="x: 0.919597864151; y: 0.809197425842" role="graphics-symbol" aria-roledescription="point" transform="translate(177.58793592453003,63.300275802612305)" d="M1.581,0A1.581,1.581,0,1,1,-1.581,0A1.581,1.581,0,1,1,1.581,0" stroke="black" stroke-width="2" opacity="0.3"/><path aria-label="x: 0.949748694897; y: 0.845760285854" role="graphics-symbol" aria-roledescription="point" transform="translate(178.49246084690094,59.38282651560646)" d="M1.581,0A1.581,1.581,0,1,1,-1.581,0A1.581,1.581,0,1,1,1.581,0" stroke="black" stroke-width="2" opacity="0.3"/><path aria-label="x: 0.979899346828; y: 0.797263205051" role="graphics-symbol" aria-roledescription="point" transform="translate(179.39698040485382,64.57894231591906)" d="M1.581,0A1.581,1.581,0,1,1,-1.581,0A1.581,1.581,0,1,1,1.581,0" stroke="black" stroke-width="2" opacity="0.3"/><path aria-label="x: 1.01005017757; y: 0.779570043087" role="graphics-symbol" aria-roledescription="point" transform="translate(180.30150532722473,66.47463824067798)" d="M1.581,0A1.581,1.581,0,1,1,-1.581,0A1.581,1.581,0,1,1,1.581,0" stroke="black" stroke-width="2" opacity="0.3"/><path aria-label="x: 1.04020094872; y: 0.63926833868" role="graphics-symbol" aria-roledescription="point" transform="translate(181.2060284614563,81.5069637128285)" d="M1.581,0A1.581,1.581,0,1,1,-1.581,0A1.581,1.581,0,1,1,1.581,0" stroke="black" stroke-width="2" opacity="0.3"/><path aria-label="x: 1.07035171986; y: 0.858616948128" role="graphics-symbol" aria-roledescription="point" transform="translate(182.11055159568787,58.005326986312866)" d="M1.581,0A1.581,1.581,0,1,1,-1.581,0A1.581,1.581,0,1,1,1.581,0" stroke="black" stroke-width="2" opacity="0.3"/><path aria-label="x: 1.10050237179; y: 0.754433274269" role="graphics-symbol" aria-roledescription="point" transform="translate(183.01507115364075,69.16786347116742)" d="M1.581,0A1.581,1.581,0,1,1,-1.581,0A1.581,1.581,0,1,1,1.581,0" stroke="black" stroke-width="2" opacity="0.3"/><path aria-label="x: 1.13065314293; y: 1.02681171894" role="graphics-symbol" aria-roledescription="point" transform="translate(183.91959428787231,39.984458684921265)" d="M1.581,0A1.581,1.581,0,1,1,-1.581,0A1.581,1.581,0,1,1,1.581,0" stroke="black" stroke-width="2" opacity="0.3"/><path aria-label="x: 1.16080391407; y: 0.789532542229" role="graphics-symbol" aria-roledescription="point" transform="translate(184.82411742210388,65.4072276183537)" d="M1.581,0A1.581,1.581,0,1,1,-1.581,0A1.581,1.581,0,1,1,1.581,0" stroke="black" stroke-width="2" opacity="0.3"/><path aria-label="x: 1.19095468521; y: 0.869101464748" role="graphics-symbol" aria-roledescription="point" transform="translate(185.72864055633545,56.88198591981616)" d="M1.581,0A1.581,1.581,0,1,1,-1.581,0A1.581,1.581,0,1,1,1.581,0" stroke="black" stroke-width="2" opacity="0.3"/><path aria-label="x: 1.22110545635; y: 1.02140462399" role="graphics-symbol" aria-roledescription="point" transform="translate(186.63316369056702,40.56379028729029)" d="M1.581,0A1.581,1.581,0,1,1,-1.581,0A1.581,1.581,0,1,1,1.581,0" stroke="black" stroke-width="2" opacity="0.3"/><path aria-label="x: 1.25125610828; y: 0.870441675186" role="graphics-symbol" aria-roledescription="point" transform="translate(187.5376832485199,56.738391944340286)" d="M1.581,0A1.581,1.581,0,1,1,-1.581,0A1.581,1.581,0,1,1,1.581,0" stroke="black" stroke-width="2" opacity="0.3"/><path aria-label="x: 1.28140687943; y: 0.759826660156" role="graphics-symbol" aria-roledescription="point" transform="translate(188.44220638275146,68.59000069754462)" d="M1.581,0A1.581,1.581,0,1,1,-1.581,0A1.581,1.581,0,1,1,1.581,0" stroke="black" stroke-width="2" opacity="0.3"/><path aria-label="x: 1.31155765057; y: 0.875707507133" role="graphics-symbol" aria-roledescription="point" transform="translate(189.34672951698303,56.17419566426959)" d="M1.581,0A1.581,1.581,0,1,1,-1.581,0A1.581,1.581,0,1,1,1.581,0" stroke="black" stroke-width="2" opacity="0.3"/><path aria-label="x: 1.34170842171; y: 0.80471521616" role="graphics-symbol" aria-roledescription="point" transform="translate(190.2512526512146,63.780512554304934)" d="M1.581,0A1.581,1.581,0,1,1,-1.581,0A1.581,1.581,0,1,1,1.581,0" stroke="black" stroke-width="2" opacity="0.3"/><path aria-label="x: 1.37185919285; y: 0.858152747154" role="graphics-symbol" aria-roledescription="point" transform="translate(191.15577578544617,58.055062804903315)" d="M1.581,0A1.581,1.581,0,1,1,-1.581,0A1.581,1.581,0,1,1,1.581,0" stroke="black" stroke-width="2" opacity="0.3"/><path aria-label="x: 1.40200996399; y: 0.767150819302" role="graphics-symbol" aria-roledescription="point" transform="translate(192.06029891967773,67.8052693605423)" d="M1.581,0A1.581,1.581,0,1,1,-1.581,0A1.581,1.581,0,1,1,1.581,0" stroke="black" stroke-width="2" opacity="0.3"/><path aria-label="x: 1.43216061592; y: 0.882635712624" role="graphics-symbol" aria-roledescription="point" transform="translate(192.96481847763062,55.43188793318611)" d="M1.581,0A1.581,1.581,0,1,1,-1.581,0A1.581,1.581,0,1,1,1.581,0" stroke="black" stroke-width="2" opacity="0.3"/><path aria-label="x: 1.46231138706; y: 0.951476097107" role="graphics-symbol" aria-roledescription="point" transform="translate(193.86934161186218,48.05613245282855)" d="M1.581,0A1.581,1.581,0,1,1,-1.581,0A1.581,1.581,0,1,1,1.581,0" stroke="black" stroke-width="2" opacity="0.3"/><path aria-label="x: 1.4924621582; y: 0.787781178951" role="graphics-symbol" aria-roledescription="point" transform="translate(194.77386474609375,65.59487368379321)" d="M1.581,0A1.581,1.581,0,1,1,-1.581,0A1.581,1.581,0,1,1,1.581,0" stroke="black" stroke-width="2" opacity="0.3"/><path aria-label="x: 1.52261292934; y: 0.871405899525" role="graphics-symbol" aria-roledescription="point" transform="translate(195.67838788032532,56.63508219378334)" d="M1.581,0A1.581,1.581,0,1,1,-1.581,0A1.581,1.581,0,1,1,1.581,0" stroke="black" stroke-width="2" opacity="0.3"/><path aria-label="x: 1.55276370049; y: 0.738579928875" role="graphics-symbol" aria-roledescription="point" transform="translate(196.58291101455688,70.86643619196754)" d="M1.581,0A1.581,1.581,0,1,1,-1.581,0A1.581,1.581,0,1,1,1.581,0" stroke="black" stroke-width="2" opacity="0.3"/><path aria-label="x: 1.58291447163; y: 0.954787313938" role="graphics-symbol" aria-roledescription="point" transform="translate(197.48743414878845,47.70135922091347)" d="M1.581,0A1.581,1.581,0,1,1,-1.581,0A1.581,1.581,0,1,1,1.581,0" stroke="black" stroke-width="2" opacity="0.3"/><path aria-label="x: 1.61306524277; y: 0.83828163147" role="graphics-symbol" aria-roledescription="point" transform="translate(198.39195728302002,60.18411091395788)" d="M1.581,0A1.581,1.581,0,1,1,-1.581,0A1.581,1.581,0,1,1,1.581,0" stroke="black" stroke-width="2" opacity="0.3"/><path aria-label="x: 1.6432158947; y: 0.862855613232" role="graphics-symbol" aria-roledescription="point" transform="translate(199.2964768409729,57.55118429660797)" d="M1.581,0A1.581,1.581,0,1,1,-1.581,0A1.581,1.581,0,1,1,1.581,0" stroke="black" stroke-width="2" opacity="0.3"/><path aria-label="x: 1.67336666584; y: 0.898336946964" role="graphics-symbol" aria-roledescription="point" transform="translate(200.20099997520447,53.749612825257444)" d="M1.581,0A1.581,1.581,0,1,1,-1.581,0A1.581,1.581,0,1,1,1.581,0" stroke="black" stroke-width="2" opacity="0.3"/><path aria-label="x: 1.70351743698; y: 0.898353636265" role="graphics-symbol" aria-roledescription="point" transform="translate(201.10552310943604,53.74782468591418)" d="M1.581,0A1.581,1.581,0,1,1,-1.581,0A1.581,1.581,0,1,1,1.581,0" stroke="black" stroke-width="2" opacity="0.3"/><path aria-label="x: 1.73366820812; y: 1.08929610252" role="graphics-symbol" aria-roledescription="point" transform="translate(202.0100462436676,33.289703301021014)" d="M1.581,0A1.581,1.581,0,1,1,-1.581,0A1.581,1.581,0,1,1,1.581,0" stroke="black" stroke-width="2" opacity="0.3"/><path aria-label="x: 1.76381897926; y: 1.02075254917" role="graphics-symbol" aria-roledescription="point" transform="translate(202.91456937789917,40.63365544591632)" d="M1.581,0A1.581,1.581,0,1,1,-1.581,0A1.581,1.581,0,1,1,1.581,0" stroke="black" stroke-width="2" opacity="0.3"/><path aria-label="x: 1.7939697504; y: 0.784635841846" role="graphics-symbol" aria-roledescription="point" transform="translate(203.81909251213074,65.93187408787861)" d="M1.581,0A1.581,1.581,0,1,1,-1.581,0A1.581,1.581,0,1,1,1.581,0" stroke="black" stroke-width="2" opacity="0.3"/><path aria-label="x: 1.82412052155; y: 1.00301587582" role="graphics-symbol" aria-roledescription="point" transform="translate(204.7236156463623,42.534013305391596)" d="M1.581,0A1.581,1.581,0,1,1,-1.581,0A1.581,1.581,0,1,1,1.581,0" stroke="black" stroke-width="2" opacity="0.3"/><path aria-label="x: 1.85427117348; y: 0.754685759544" role="graphics-symbol" aria-roledescription="point" transform="translate(205.62813520431519,69.14081147738867)" d="M1.581,0A1.581,1.581,0,1,1,-1.581,0A1.581,1.581,0,1,1,1.581,0" stroke="black" stroke-width="2" opacity="0.3"/><path aria-label="x: 1.88442194462; y: 0.985260903835" role="graphics-symbol" aria-roledescription="point" transform="translate(206.53265833854675,44.4363317319325)" d="M1.581,0A1.581,1.581,0,1,1,-1.581,0A1.581,1.581,0,1,1,1.581,0" stroke="black" stroke-width="2" opacity="0.3"/><path aria-label="x: 1.91457271576; y: 0.888310611248" role="graphics-symbol" aria-roledescription="point" transform="translate(207.43718147277832,54.82386308056966)" d="M1.581,0A1.581,1.581,0,1,1,-1.581,0A1.581,1.581,0,1,1,1.581,0" stroke="black" stroke-width="2" opacity="0.3"/><path aria-label="x: 1.9447234869; y: 0.824554204941" role="graphics-symbol" aria-roledescription="point" transform="translate(208.3417046070099,61.65490661348615)" d="M1.581,0A1.581,1.581,0,1,1,-1.581,0A1.581,1.581,0,1,1,1.581,0" stroke="black" stroke-width="2" opacity="0.3"/><path aria-label="x: 1.97487425804; y: 0.947563827038" role="graphics-symbol" aria-roledescription="point" transform="translate(209.24622774124146,48.47530424594879)" d="M1.581,0A1.581,1.581,0,1,1,-1.581,0A1.581,1.581,0,1,1,1.581,0" stroke="black" stroke-width="2" opacity="0.3"/><path aria-label="x: 2.00502490997; y: 1.02292013168" role="graphics-symbol" aria-roledescription="point" transform="translate(210.15074729919434,40.401414462498245)" d="M1.581,0A1.581,1.581,0,1,1,-1.581,0A1.581,1.581,0,1,1,1.581,0" stroke="black" stroke-width="2" opacity="0.3"/><path aria-label="x: 2.03517580032; y: 0.991546750069" role="graphics-symbol" aria-roledescription="point" transform="translate(211.0552740097046,43.76284820692879)" d="M1.581,0A1.581,1.581,0,1,1,-1.581,0A1.581,1.581,0,1,1,1.581,0" stroke="black" stroke-width="2" opacity="0.3"/><path aria-label="x: 2.06532645226; y: 0.790968358517" role="graphics-symbol" aria-roledescription="point" transform="translate(211.95979356765747,65.25339015892573)" d="M1.581,0A1.581,1.581,0,1,1,-1.581,0A1.581,1.581,0,1,1,1.581,0" stroke="black" stroke-width="2" opacity="0.3"/><path aria-label="x: 2.09547734261; y: 1.06887352467" role="graphics-symbol" aria-roledescription="point" transform="translate(212.86432027816772,35.47783664294649)" d="M1.581,0A1.581,1.581,0,1,1,-1.581,0A1.581,1.581,0,1,1,1.581,0" stroke="black" stroke-width="2" opacity="0.3"/><path aria-label="x: 2.12562799454; y: 0.916114509106" role="graphics-symbol" aria-roledescription="point" transform="translate(213.7688398361206,51.844874024391174)" d="M1.581,0A1.581,1.581,0,1,1,-1.581,0A1.581,1.581,0,1,1,1.581,0" stroke="black" stroke-width="2" opacity="0.3"/><path aria-label="x: 2.15577864647; y: 0.888988912106" role="graphics-symbol" aria-roledescription="point" transform="translate(214.6733593940735,54.751187988689956)" d="M1.581,0A1.581,1.581,0,1,1,-1.581,0A1.581,1.581,0,1,1,1.581,0" stroke="black" stroke-width="2" opacity="0.3"/><path aria-label="x: 2.18592953682; y: 0.844776570797" role="graphics-symbol" aria-roledescription="point" transform="translate(215.57788610458374,59.48822455746785)" d="M1.581,0A1.581,1.581,0,1,1,-1.581,0A1.581,1.581,0,1,1,1.581,0" stroke="black" stroke-width="2" opacity="0.3"/><path aria-label="x: 2.21608018875; y: 1.05327832699" role="graphics-symbol" aria-roledescription="point" transform="translate(216.48240566253662,37.148750679833554)" d="M1.581,0A1.581,1.581,0,1,1,-1.581,0A1.581,1.581,0,1,1,1.581,0" stroke="black" stroke-width="2" opacity="0.3"/><path aria-label="x: 2.2462310791; y: 0.970354855061" role="graphics-symbol" aria-roledescription="point" transform="translate(217.38693237304688,46.0334083863667)" d="M1.581,0A1.581,1.581,0,1,1,-1.581,0A1.581,1.581,0,1,1,1.581,0" stroke="black" stroke-width="2" opacity="0.3"/><path aria-label="x: 2.27638173103; y: 1.06809568405" role="graphics-symbol" aria-roledescription="point" transform="translate(218.29145193099976,35.561176708766375)" d="M1.581,0A1.581,1.581,0,1,1,-1.581,0A1.581,1.581,0,1,1,1.581,0" stroke="black" stroke-width="2" opacity="0.3"/><path aria-label="x: 2.30653262138; y: 0.86952984333" role="graphics-symbol" aria-roledescription="point" transform="translate(219.19597864151,56.8360882146018)" d="M1.581,0A1.581,1.581,0,1,1,-1.581,0A1.581,1.581,0,1,1,1.581,0" stroke="black" stroke-width="2" opacity="0.3"/><path aria-label="x: 2.33668327332; y: 1.09169983864" role="graphics-symbol" aria-roledescription="point" transform="translate(220.1004981994629,33.032160145895816)" d="M1.581,0A1.581,1.581,0,1,1,-1.581,0A1.581,1.581,0,1,1,1.581,0" stroke="black" stroke-width="2" opacity="0.3"/><path aria-label="x: 2.36683392525; y: 1.07132196426" role="graphics-symbol" aria-roledescription="point" transform="translate(221.00501775741577,35.21550382886615)" d="M1.581,0A1.581,1.581,0,1,1,-1.581,0A1.581,1.581,0,1,1,1.581,0" stroke="black" stroke-width="2" opacity="0.3"/><path aria-label="x: 2.3969848156; y: 0.937705039978" role="graphics-symbol" aria-roledescription="point" transform="translate(221.90954446792603,49.53160285949707)" d="M1.581,0A1.581,1.581,0,1,1,-1.581,0A1.581,1.581,0,1,1,1.581,0" stroke="black" stroke-width="2" opacity="0.3"/><path aria-label="x: 2.42713546753; y: 0.731567263603" role="graphics-symbol" aria-roledescription="point" transform="translate(222.8140640258789,71.6177931853703)" d="M1.581,0A1.581,1.581,0,1,1,-1.581,0A1.581,1.581,0,1,1,1.581,0" stroke="black" stroke-width="2" opacity="0.3"/><path aria-label="x: 2.45728635788; y: 0.954239845276" role="graphics-symbol" aria-roledescription="point" transform="translate(223.71859073638916,47.76001657758441)" d="M1.581,0A1.581,1.581,0,1,1,-1.581,0A1.581,1.581,0,1,1,1.581,0" stroke="black" stroke-width="2" opacity="0.3"/><path aria-label="x: 2.48743700981; y: 0.869072556496" role="graphics-symbol" aria-roledescription="point" transform="translate(224.62311029434204,56.88508323260717)" d="M1.581,0A1.581,1.581,0,1,1,-1.581,0A1.581,1.581,0,1,1,1.581,0" stroke="black" stroke-width="2" opacity="0.3"/><path aria-label="x: 2.51758790016; y: 1.23072957993" role="graphics-symbol" aria-roledescription="point" transform="translate(225.5276370048523,18.136116436549578)" d="M1.581,0A1.581,1.581,0,1,1,-1.581,0A1.581,1.581,0,1,1,1.581,0" stroke="black" stroke-width="2" opacity="0.3"/><path aria-label="x: 2.54773855209; y: 1.16666924953" role="graphics-symbol" aria-roledescription="point" transform="translate(226.43215656280518,24.999723264149242)" d="M1.581,0A1.581,1.581,0,1,1,-1.581,0A1.581,1.581,0,1,1,1.581,0" stroke="black" stroke-width="2" opacity="0.3"/><path aria-label="x: 2.57788920403; y: 0.889270365238" role="graphics-symbol" aria-roledescription="point" transform="translate(227.33667612075806,54.72103229590826)" d="M1.581,0A1.581,1.581,0,1,1,-1.581,0A1.581,1.581,0,1,1,1.581,0" stroke="black" stroke-width="2" opacity="0.3"/><path aria-label="x: 2.60804009438; y: 1.04775249958" role="graphics-symbol" aria-roledescription="point" transform="translate(228.2412028312683,37.74080361638751)" d="M1.581,0A1.581,1.581,0,1,1,-1.581,0A1.581,1.581,0,1,1,1.581,0" stroke="black" stroke-width="2" opacity="0.3"/><path aria-label="x: 2.63819074631; y: 1.07742404938" role="graphics-symbol" aria-roledescription="point" transform="translate(229.1457223892212,34.561708995274124)" d="M1.581,0A1.581,1.581,0,1,1,-1.581,0A1.581,1.581,0,1,1,1.581,0" stroke="black" stroke-width="2" opacity="0.3"/><path aria-label="x: 2.66834163666; y: 0.967730343342" role="graphics-symbol" aria-roledescription="point" transform="translate(230.05024909973145,46.314606070518494)" d="M1.581,0A1.581,1.581,0,1,1,-1.581,0A1.581,1.581,0,1,1,1.581,0" stroke="black" stroke-width="2" opacity="0.3"/><path aria-label="x: 2.69849228859; y: 1.12334775925" role="graphics-symbol" aria-roledescription="point" transform="translate(230.95476865768433,29.64131150926862)" d="M1.581,0A1.581,1.581,0,1,1,-1.581,0A1.581,1.581,0,1,1,1.581,0" stroke="black" stroke-width="2" opacity="0.3"/><path aria-label="x: 2.72864317894; y: 1.01153719425" role="graphics-symbol" aria-roledescription="point" transform="translate(231.85929536819458,41.6210149015699)" d="M1.581,0A1.581,1.581,0,1,1,-1.581,0A1.581,1.581,0,1,1,1.581,0" stroke="black" stroke-width="2" opacity="0.3"/><path aria-label="x: 2.75879383087; y: 1.11513543129" role="graphics-symbol" aria-roledescription="point" transform="translate(232.76381492614746,30.52120379039217)" d="M1.581,0A1.581,1.581,0,1,1,-1.581,0A1.581,1.581,0,1,1,1.581,0" stroke="black" stroke-width="2" opacity="0.3"/><path aria-label="x: 2.7889444828; y: 1.03231561184" role="graphics-symbol" aria-roledescription="point" transform="translate(233.66833448410034,39.39475587436132)" d="M1.581,0A1.581,1.581,0,1,1,-1.581,0A1.581,1.581,0,1,1,1.581,0" stroke="black" stroke-width="2" opacity="0.3"/><path aria-label="x: 2.81909537315; y: 1.09415006638" role="graphics-symbol" aria-roledescription="point" transform="translate(234.5728611946106,32.76963574545723)" d="M1.581,0A1.581,1.581,0,1,1,-1.581,0A1.581,1.581,0,1,1,1.581,0" stroke="black" stroke-width="2" opacity="0.3"/><path aria-label="x: 2.84924602509; y: 1.19634342194" role="graphics-symbol" aria-roledescription="point" transform="translate(235.47738075256348,21.820347649710513)" d="M1.581,0A1.581,1.581,0,1,1,-1.581,0A1.581,1.581,0,1,1,1.581,0" stroke="black" stroke-width="2" opacity="0.3"/><path aria-label="x: 2.87939691544; y: 0.868111431599" role="graphics-symbol" aria-roledescription="point" transform="translate(236.38190746307373,56.9880609001432)" d="M1.581,0A1.581,1.581,0,1,1,-1.581,0A1.581,1.581,0,1,1,1.581,0" stroke="black" stroke-width="2" opacity="0.3"/><path aria-label="x: 2.90954756737; y: 1.04234075546" role="graphics-symbol" aria-roledescription="point" transform="translate(237.2864270210266,38.32063334328786)" d="M1.581,0A1.581,1.581,0,1,1,-1.581,0A1.581,1.581,0,1,1,1.581,0" stroke="black" stroke-width="2" opacity="0.3"/><path aria-label="x: 2.93969845772; y: 0.871581494808" role="graphics-symbol" aria-roledescription="point" transform="translate(238.19095373153687,56.61626841340747)" d="M1.581,0A1.581,1.581,0,1,1,-1.581,0A1.581,1.581,0,1,1,1.581,0" stroke="black" stroke-width="2" opacity="0.3"/><path aria-label="x: 2.96984910965; y: 0.890496373177" role="graphics-symbol" aria-roledescription="point" transform="translate(239.09547328948975,54.58967430250984)" d="M1.581,0A1.581,1.581,0,1,1,-1.581,0A1.581,1.581,0,1,1,1.581,0" stroke="black" stroke-width="2" opacity="0.3"/><path aria-label="x: 3; y: 0.837471604347" role="graphics-symbol" aria-roledescription="point" transform="translate(240,60.270899534225464)" d="M1.581,0A1.581,1.581,0,1,1,-1.581,0A1.581,1.581,0,1,1,1.581,0" stroke="black" stroke-width="2" opacity="0.3"/></g><g class="mark-line role-mark layer_1_marks" role="graphics-object" aria-roledescription="line mark container"><path aria-label="x: −5; y_true: −0.999909162521" role="graphics-symbol" aria-roledescription="line mark" d="M0,257.133L0.3,257.133L0.601,257.133L0.901,257.133L1.201,257.132L1.501,257.132L1.802,257.132L2.102,257.132L2.402,257.131L2.703,257.131L3.003,257.131L3.303,257.131L3.604,257.13L3.904,257.13L4.204,257.13L4.505,257.13L4.805,257.129L5.105,257.129L5.405,257.129L5.706,257.129L6.006,257.128L6.306,257.128L6.607,257.128L6.907,257.127L7.207,257.127L7.507,257.127L7.808,257.126L8.108,257.126L8.408,257.126L8.709,257.125L9.009,257.125L9.309,257.125L9.61,257.124L9.91,257.124L10.21,257.124L10.511,257.123L10.811,257.123L11.111,257.122L11.411,257.122L11.712,257.122L12.012,257.121L12.312,257.121L12.613,257.12L12.913,257.12L13.213,257.119L13.514,257.119L13.814,257.118L14.114,257.118L14.414,257.117L14.715,257.117L15.015,257.116L15.315,257.116L15.616,257.115L15.916,257.115L16.216,257.114L16.517,257.114L16.817,257.113L17.117,257.112L17.417,257.112L17.718,257.111L18.018,257.111L18.318,257.11L18.619,257.109L18.919,257.109L19.219,257.108L19.52,257.107L19.82,257.106L20.12,257.106L20.42,257.105L20.721,257.104L21.021,257.103L21.321,257.103L21.622,257.102L21.922,257.101L22.222,257.1L22.523,257.099L22.823,257.098L23.123,257.097L23.423,257.096L23.724,257.096L24.024,257.095L24.324,257.094L24.625,257.093L24.925,257.092L25.225,257.091L25.526,257.09L25.826,257.088L26.126,257.087L26.426,257.086L26.727,257.085L27.027,257.084L27.327,257.083L27.628,257.081L27.928,257.08L28.228,257.079L28.529,257.078L28.829,257.076L29.129,257.075L29.429,257.074L29.73,257.072L30.03,257.071L30.33,257.069L30.631,257.068L30.931,257.066L31.231,257.065L31.532,257.063L31.832,257.062L32.132,257.06L32.432,257.058L32.733,257.057L33.033,257.055L33.333,257.053L33.634,257.051L33.934,257.049L34.234,257.048L34.535,257.046L34.835,257.044L35.135,257.042L35.435,257.04L35.736,257.038L36.036,257.035L36.336,257.033L36.637,257.031L36.937,257.029L37.237,257.026L37.538,257.024L37.838,257.022L38.138,257.019L38.438,257.017L38.739,257.014L39.039,257.012L39.339,257.009L39.64,257.006L39.94,257.004L40.24,257.001L40.541,256.998L40.841,256.995L41.141,256.992L41.441,256.989L41.742,256.986L42.042,256.983L42.342,256.979L42.643,256.976L42.943,256.973L43.243,256.969L43.544,256.966L43.844,256.962L44.144,256.958L44.444,256.955L44.745,256.951L45.045,256.947L45.345,256.943L45.646,256.939L45.946,256.935L46.246,256.931L46.547,256.926L46.847,256.922L47.147,256.918L47.447,256.913L47.748,256.908L48.048,256.904L48.348,256.899L48.649,256.894L48.949,256.889L49.249,256.884L49.55,256.879L49.85,256.873L50.15,256.868L50.45,256.862L50.751,256.857L51.051,256.851L51.351,256.845L51.652,256.839L51.952,256.833L52.252,256.826L52.553,256.82L52.853,256.814L53.153,256.807L53.453,256.8L53.754,256.793L54.054,256.786L54.354,256.779L54.655,256.772L54.955,256.764L55.255,256.756L55.556,256.749L55.856,256.741L56.156,256.733L56.456,256.724L56.757,256.716L57.057,256.707L57.357,256.698L57.658,256.689L57.958,256.68L58.258,256.671L58.559,256.661L58.859,256.652L59.159,256.642L59.459,256.632L59.76,256.621L60.06,256.611L60.36,256.6L60.661,256.589L60.961,256.578L61.261,256.567L61.562,256.555L61.862,256.543L62.162,256.531L62.462,256.519L62.763,256.506L63.063,256.493L63.363,256.48L63.664,256.467L63.964,256.453L64.264,256.439L64.565,256.425L64.865,256.411L65.165,256.396L65.465,256.381L65.766,256.366L66.066,256.35L66.366,256.334L66.667,256.318L66.967,256.301L67.267,256.284L67.568,256.267L67.868,256.249L68.168,256.231L68.468,256.213L68.769,256.194L69.069,256.175L69.369,256.155L69.67,256.136L69.97,256.115L70.27,256.095L70.571,256.074L70.871,256.052L71.171,256.03L71.471,256.008L71.772,255.985L72.072,255.962L72.372,255.938L72.673,255.914L72.973,255.889L73.273,255.864L73.574,255.838L73.874,255.812L74.174,255.785L74.474,255.758L74.775,255.73L75.075,255.702L75.375,255.673L75.676,255.643L75.976,255.613L76.276,255.582L76.577,255.551L76.877,255.519L77.177,255.486L77.477,255.453L77.778,255.419L78.078,255.385L78.378,255.349L78.679,255.313L78.979,255.277L79.279,255.239L79.58,255.201L79.88,255.162L80.18,255.123L80.48,255.082L80.781,255.041L81.081,254.999L81.381,254.956L81.682,254.912L81.982,254.868L82.282,254.822L82.583,254.776L82.883,254.728L83.183,254.68L83.483,254.631L83.784,254.581L84.084,254.529L84.384,254.477L84.685,254.424L84.985,254.37L85.285,254.314L85.586,254.258L85.886,254.201L86.186,254.142L86.486,254.082L86.787,254.021L87.087,253.959L87.387,253.895L87.688,253.831L87.988,253.765L88.288,253.698L88.589,253.629L88.889,253.559L89.189,253.488L89.489,253.415L89.79,253.341L90.09,253.266L90.39,253.189L90.691,253.11L90.991,253.03L91.291,252.949L91.592,252.866L91.892,252.781L92.192,252.695L92.492,252.607L92.793,252.517L93.093,252.425L93.393,252.332L93.694,252.237L93.994,252.14L94.294,252.042L94.595,251.941L94.895,251.838L95.195,251.734L95.495,251.627L95.796,251.519L96.096,251.408L96.396,251.295L96.697,251.18L96.997,251.063L97.297,250.944L97.598,250.822L97.898,250.698L98.198,250.572L98.498,250.443L98.799,250.312L99.099,250.178L99.399,250.042L99.7,249.903L100,249.762L100.3,249.618L100.601,249.471L100.901,249.322L101.201,249.169L101.501,249.014L101.802,248.856L102.102,248.695L102.402,248.531L102.703,248.364L103.003,248.194L103.303,248.021L103.604,247.844L103.904,247.665L104.204,247.482L104.504,247.295L104.805,247.105L105.105,246.912L105.405,246.715L105.706,246.515L106.006,246.311L106.306,246.103L106.607,245.892L106.907,245.676L107.207,245.457L107.508,245.234L107.808,245.007L108.108,244.775L108.408,244.54L108.709,244.3L109.009,244.057L109.309,243.808L109.61,243.556L109.91,243.299L110.21,243.037L110.511,242.771L110.811,242.5L111.111,242.225L111.411,241.945L111.712,241.66L112.012,241.37L112.312,241.074L112.613,240.774L112.913,240.469L113.213,240.159L113.514,239.843L113.814,239.522L114.114,239.195L114.414,238.863L114.715,238.526L115.015,238.183L115.315,237.834L115.616,237.479L115.916,237.119L116.216,236.752L116.517,236.38L116.817,236.002L117.117,235.617L117.417,235.226L117.718,234.829L118.018,234.426L118.318,234.016L118.619,233.6L118.919,233.177L119.219,232.747L119.52,232.311L119.82,231.868L120.12,231.419L120.42,230.962L120.721,230.498L121.021,230.028L121.321,229.55L121.622,229.065L121.922,228.573L122.222,228.074L122.523,227.567L122.823,227.053L123.123,226.531L123.423,226.002L123.724,225.466L124.024,224.922L124.324,224.37L124.625,223.81L124.925,223.243L125.225,222.667L125.526,222.084L125.826,221.493L126.126,220.894L126.426,220.287L126.727,219.672L127.027,219.049L127.327,218.418L127.628,217.779L127.928,217.132L128.228,216.476L128.529,215.812L128.829,215.14L129.129,214.46L129.429,213.772L129.73,213.075L130.03,212.37L130.33,211.657L130.631,210.936L130.931,210.206L131.231,209.468L131.532,208.722L131.832,207.967L132.132,207.204L132.432,206.434L132.733,205.655L133.033,204.867L133.333,204.072L133.634,203.269L133.934,202.457L134.234,201.638L134.535,200.811L134.835,199.975L135.135,199.132L135.435,198.281L135.736,197.423L136.036,196.557L136.336,195.683L136.637,194.802L136.937,193.913L137.237,193.017L137.538,192.114L137.838,191.203L138.138,190.286L138.438,189.362L138.739,188.43L139.039,187.493L139.339,186.548L139.64,185.597L139.94,184.64L140.24,183.677L140.541,182.707L140.841,181.731L141.141,180.75L141.441,179.763L141.742,178.771L142.042,177.773L142.342,176.77L142.643,175.762L142.943,174.749L143.243,173.731L143.544,172.709L143.844,171.683L144.144,170.652L144.444,169.618L144.745,168.579L145.045,167.537L145.345,166.492L145.646,165.443L145.946,164.391L146.246,163.337L146.547,162.28L146.847,161.22L147.147,160.158L147.447,159.094L147.748,158.029L148.048,156.961L148.348,155.893L148.649,154.823L148.949,153.752L149.249,152.681L149.55,151.609L149.85,150.536L150.15,149.464L150.45,148.391L150.751,147.319L151.051,146.248L151.351,145.177L151.652,144.107L151.952,143.039L152.252,141.971L152.553,140.906L152.853,139.842L153.153,138.78L153.453,137.72L153.754,136.663L154.054,135.609L154.354,134.557L154.655,133.508L154.955,132.463L155.255,131.421L155.556,130.382L155.856,129.348L156.156,128.317L156.456,127.291L156.757,126.269L157.057,125.251L157.357,124.238L157.658,123.23L157.958,122.227L158.258,121.229L158.559,120.237L158.859,119.25L159.159,118.269L159.459,117.293L159.76,116.324L160.06,115.36L160.36,114.403L160.661,113.452L160.961,112.507L161.261,111.57L161.562,110.638L161.862,109.714L162.162,108.797L162.462,107.886L162.763,106.983L163.063,106.087L163.363,105.198L163.664,104.317L163.964,103.443L164.264,102.577L164.565,101.719L164.865,100.868L165.165,100.025L165.465,99.19L165.766,98.362L166.066,97.543L166.366,96.731L166.667,95.928L166.967,95.133L167.267,94.345L167.568,93.566L167.868,92.796L168.168,92.033L168.468,91.278L168.769,90.532L169.069,89.794L169.369,89.065L169.67,88.343L169.97,87.63L170.27,86.925L170.571,86.228L170.871,85.54L171.171,84.86L171.471,84.188L171.772,83.524L172.072,82.868L172.372,82.221L172.673,81.582L172.973,80.951L173.273,80.328L173.574,79.713L173.874,79.106L174.174,78.507L174.474,77.916L174.775,77.333L175.075,76.757L175.375,76.19L175.676,75.63L175.976,75.078L176.276,74.534L176.577,73.998L176.877,73.469L177.177,72.947L177.477,72.433L177.778,71.926L178.078,71.427L178.378,70.935L178.679,70.45L178.979,69.972L179.279,69.502L179.58,69.038L179.88,68.581L180.18,68.132L180.48,67.689L180.781,67.253L181.081,66.823L181.381,66.4L181.682,65.984L181.982,65.574L182.282,65.171L182.583,64.774L182.883,64.383L183.183,63.998L183.483,63.62L183.784,63.248L184.084,62.881L184.384,62.521L184.685,62.166L184.985,61.817L185.285,61.474L185.586,61.137L185.886,60.805L186.186,60.478L186.486,60.157L186.787,59.841L187.087,59.531L187.387,59.226L187.688,58.925L187.988,58.63L188.288,58.34L188.589,58.055L188.889,57.775L189.189,57.5L189.489,57.229L189.79,56.963L190.09,56.701L190.39,56.444L190.691,56.192L190.991,55.943L191.291,55.7L191.592,55.46L191.892,55.225L192.192,54.993L192.492,54.766L192.793,54.543L193.093,54.324L193.393,54.108L193.694,53.897L193.994,53.689L194.294,53.485L194.595,53.285L194.895,53.088L195.195,52.895L195.495,52.705L195.796,52.518L196.096,52.335L196.396,52.156L196.697,51.979L196.997,51.806L197.297,51.636L197.598,51.469L197.898,51.305L198.198,51.144L198.498,50.986L198.799,50.831L199.099,50.678L199.399,50.529L199.7,50.382L200,50.238L200.3,50.097L200.601,49.958L200.901,49.822L201.201,49.688L201.501,49.557L201.802,49.428L202.102,49.302L202.402,49.178L202.703,49.056L203.003,48.937L203.303,48.82L203.604,48.705L203.904,48.592L204.204,48.481L204.504,48.373L204.805,48.266L205.105,48.162L205.405,48.059L205.706,47.958L206.006,47.86L206.306,47.763L206.607,47.668L206.907,47.575L207.207,47.483L207.507,47.393L207.808,47.305L208.108,47.219L208.408,47.134L208.709,47.051L209.009,46.97L209.309,46.89L209.61,46.811L209.91,46.734L210.21,46.659L210.511,46.585L210.811,46.512L211.111,46.441L211.411,46.371L211.712,46.302L212.012,46.235L212.312,46.169L212.613,46.105L212.913,46.041L213.213,45.979L213.514,45.918L213.814,45.858L214.114,45.8L214.414,45.742L214.715,45.686L215.015,45.63L215.315,45.576L215.616,45.523L215.916,45.471L216.216,45.419L216.517,45.369L216.817,45.32L217.117,45.272L217.417,45.224L217.718,45.178L218.018,45.132L218.318,45.088L218.619,45.044L218.919,45.001L219.219,44.959L219.52,44.918L219.82,44.877L220.12,44.838L220.42,44.799L220.721,44.761L221.021,44.723L221.321,44.687L221.622,44.651L221.922,44.615L222.222,44.581L222.523,44.547L222.823,44.514L223.123,44.481L223.423,44.449L223.724,44.418L224.024,44.387L224.324,44.357L224.625,44.327L224.925,44.298L225.225,44.27L225.526,44.242L225.826,44.215L226.126,44.188L226.426,44.162L226.727,44.136L227.027,44.111L227.327,44.086L227.628,44.062L227.928,44.038L228.228,44.015L228.529,43.992L228.829,43.97L229.129,43.948L229.429,43.926L229.73,43.905L230.03,43.885L230.33,43.864L230.631,43.845L230.931,43.825L231.231,43.806L231.532,43.787L231.832,43.769L232.132,43.751L232.432,43.733L232.733,43.716L233.033,43.699L233.333,43.682L233.634,43.666L233.934,43.65L234.234,43.634L234.535,43.619L234.835,43.604L235.135,43.589L235.435,43.575L235.736,43.561L236.036,43.547L236.336,43.533L236.637,43.52L236.937,43.507L237.237,43.494L237.538,43.481L237.838,43.469L238.138,43.457L238.438,43.445L238.739,43.433L239.039,43.422L239.339,43.411L239.64,43.4L239.94,43.389L240.24,43.379L240.541,43.368L240.841,43.358L241.141,43.348L241.441,43.339L241.742,43.329L242.042,43.32L242.342,43.311L242.643,43.302L242.943,43.293L243.243,43.284L243.544,43.276L243.844,43.267L244.144,43.259L244.444,43.251L244.745,43.244L245.045,43.236L245.345,43.228L245.646,43.221L245.946,43.214L246.246,43.207L246.547,43.2L246.847,43.193L247.147,43.186L247.447,43.18L247.748,43.174L248.048,43.167L248.348,43.161L248.649,43.155L248.949,43.149L249.249,43.143L249.55,43.138L249.85,43.132L250.15,43.127L250.45,43.121L250.751,43.116L251.051,43.111L251.351,43.106L251.652,43.101L251.952,43.096L252.252,43.092L252.553,43.087L252.853,43.082L253.153,43.078L253.453,43.074L253.754,43.069L254.054,43.065L254.354,43.061L254.655,43.057L254.955,43.053L255.255,43.049L255.556,43.045L255.856,43.042L256.156,43.038L256.456,43.034L256.757,43.031L257.057,43.027L257.357,43.024L257.658,43.021L257.958,43.017L258.258,43.014L258.559,43.011L258.859,43.008L259.159,43.005L259.459,43.002L259.76,42.999L260.06,42.997L260.36,42.994L260.661,42.991L260.961,42.988L261.261,42.986L261.562,42.983L261.862,42.981L262.162,42.978L262.462,42.976L262.763,42.974L263.063,42.971L263.363,42.969L263.664,42.967L263.964,42.965L264.264,42.962L264.565,42.96L264.865,42.958L265.165,42.956L265.465,42.954L265.766,42.952L266.066,42.951L266.366,42.949L266.667,42.947L266.967,42.945L267.267,42.943L267.568,42.942L267.868,42.94L268.168,42.938L268.468,42.937L268.769,42.935L269.069,42.934L269.369,42.932L269.67,42.931L269.97,42.929L270.27,42.928L270.571,42.926L270.871,42.925L271.171,42.924L271.471,42.922L271.772,42.921L272.072,42.92L272.372,42.919L272.673,42.917L272.973,42.916L273.273,42.915L273.574,42.914L273.874,42.913L274.174,42.912L274.474,42.91L274.775,42.909L275.075,42.908L275.375,42.907L275.676,42.906L275.976,42.905L276.276,42.904L276.577,42.904L276.877,42.903L277.177,42.902L277.477,42.901L277.778,42.9L278.078,42.899L278.378,42.898L278.679,42.897L278.979,42.897L279.279,42.896L279.58,42.895L279.88,42.894L280.18,42.894L280.48,42.893L280.781,42.892L281.081,42.891L281.381,42.891L281.682,42.89L281.982,42.889L282.282,42.889L282.583,42.888L282.883,42.888L283.183,42.887L283.483,42.886L283.784,42.886L284.084,42.885L284.384,42.885L284.685,42.884L284.985,42.884L285.285,42.883L285.586,42.883L285.886,42.882L286.186,42.882L286.486,42.881L286.787,42.881L287.087,42.88L287.387,42.88L287.688,42.879L287.988,42.879L288.288,42.878L288.589,42.878L288.889,42.878L289.189,42.877L289.489,42.877L289.79,42.876L290.09,42.876L290.39,42.876L290.691,42.875L290.991,42.875L291.291,42.875L291.592,42.874L291.892,42.874L292.192,42.874L292.492,42.873L292.793,42.873L293.093,42.873L293.393,42.872L293.694,42.872L293.994,42.872L294.294,42.871L294.595,42.871L294.895,42.871L295.195,42.871L295.495,42.87L295.796,42.87L296.096,42.87L296.396,42.87L296.697,42.869L296.997,42.869L297.297,42.869L297.598,42.869L297.898,42.868L298.198,42.868L298.498,42.868L298.799,42.868L299.099,42.867L299.399,42.867L299.7,42.867L300,42.867" stroke="blue" stroke-width="2" stroke-dasharray="5,5"/></g><g class="mark-line role-mark layer_2_marks" role="graphics-object" aria-roledescription="line mark container"><path aria-label="x: −5; y_pred: −1.15813374519" role="graphics-symbol" aria-roledescription="line mark" d="M0,274.086L0.3,274.008L0.601,273.929L0.901,273.851L1.201,273.773L1.501,273.695L1.802,273.616L2.102,273.538L2.402,273.46L2.703,273.382L3.003,273.303L3.303,273.225L3.604,273.147L3.904,273.069L4.204,272.99L4.505,272.912L4.805,272.834L5.105,272.756L5.405,272.677L5.706,272.599L6.006,272.521L6.306,272.443L6.607,272.364L6.907,272.286L7.207,272.208L7.507,272.13L7.808,272.051L8.108,271.973L8.408,271.895L8.709,271.817L9.009,271.739L9.309,271.66L9.61,271.582L9.91,271.504L10.21,271.426L10.511,271.347L10.811,271.269L11.111,271.191L11.411,271.113L11.712,271.034L12.012,270.956L12.312,270.878L12.613,270.8L12.913,270.721L13.213,270.643L13.514,270.565L13.814,270.487L14.114,270.408L14.414,270.33L14.715,270.252L15.015,270.174L15.315,270.095L15.616,270.017L15.916,269.939L16.216,269.861L16.517,269.782L16.817,269.704L17.117,269.626L17.417,269.548L17.718,269.47L18.018,269.391L18.318,269.313L18.619,269.235L18.919,269.157L19.219,269.078L19.52,269L19.82,268.922L20.12,268.844L20.42,268.765L20.721,268.687L21.021,268.609L21.321,268.531L21.622,268.452L21.922,268.374L22.222,268.296L22.523,268.218L22.823,268.139L23.123,268.061L23.423,267.983L23.724,267.905L24.024,267.826L24.324,267.748L24.625,267.67L24.925,267.592L25.225,267.513L25.526,267.435L25.826,267.357L26.126,267.279L26.426,267.201L26.727,267.122L27.027,267.044L27.327,266.966L27.628,266.888L27.928,266.809L28.228,266.731L28.529,266.653L28.829,266.575L29.129,266.496L29.429,266.418L29.73,266.34L30.03,266.262L30.33,266.183L30.631,266.105L30.931,266.027L31.231,265.949L31.532,265.87L31.832,265.792L32.132,265.714L32.432,265.636L32.733,265.557L33.033,265.479L33.333,265.401L33.634,265.323L33.934,265.245L34.234,265.166L34.535,265.088L34.835,265.01L35.135,264.932L35.435,264.853L35.736,264.775L36.036,264.697L36.336,264.619L36.637,264.54L36.937,264.462L37.237,264.384L37.538,264.306L37.838,264.227L38.138,264.149L38.438,264.071L38.739,263.993L39.039,263.914L39.339,263.836L39.64,263.758L39.94,263.68L40.24,263.601L40.541,263.523L40.841,263.445L41.141,263.367L41.441,263.288L41.742,263.21L42.042,263.132L42.342,263.054L42.643,262.975L42.943,262.897L43.243,262.819L43.544,262.741L43.844,262.663L44.144,262.584L44.444,262.506L44.745,262.428L45.045,262.35L45.345,262.271L45.646,262.193L45.946,262.115L46.246,262.037L46.547,261.958L46.847,261.88L47.147,261.802L47.447,261.724L47.748,261.645L48.048,261.567L48.348,261.489L48.649,261.411L48.949,261.332L49.249,261.254L49.55,261.176L49.85,261.098L50.15,261.019L50.45,260.941L50.751,260.863L51.051,260.785L51.351,260.706L51.652,260.628L51.952,260.55L52.252,260.472L52.553,260.394L52.853,260.315L53.153,260.237L53.453,260.159L53.754,260.081L54.054,260.002L54.354,259.924L54.655,259.846L54.955,259.768L55.255,259.689L55.556,259.611L55.856,259.533L56.156,259.455L56.456,259.376L56.757,259.298L57.057,259.22L57.357,259.142L57.658,259.063L57.958,258.985L58.258,258.907L58.559,258.829L58.859,258.75L59.159,258.672L59.459,258.594L59.76,258.516L60.06,258.437L60.36,258.359L60.661,258.281L60.961,258.203L61.261,258.125L61.562,258.046L61.862,257.968L62.162,257.89L62.462,257.812L62.763,257.733L63.063,257.655L63.363,257.577L63.664,257.499L63.964,257.42L64.264,257.342L64.565,257.264L64.865,257.186L65.165,257.107L65.465,257.029L65.766,256.951L66.066,256.873L66.366,256.794L66.667,256.716L66.967,256.638L67.267,256.56L67.568,256.481L67.868,256.403L68.168,256.325L68.468,256.247L68.769,256.168L69.069,256.09L69.369,256.012L69.67,255.934L69.97,255.856L70.27,255.777L70.571,255.699L70.871,255.621L71.171,255.543L71.471,255.464L71.772,255.386L72.072,255.308L72.372,255.23L72.673,255.151L72.973,255.073L73.273,254.995L73.574,254.917L73.874,254.838L74.174,254.76L74.474,254.682L74.775,254.604L75.075,254.525L75.375,254.447L75.676,254.369L75.976,254.291L76.276,254.212L76.577,254.134L76.877,254.056L77.177,253.978L77.477,253.899L77.778,253.821L78.078,253.743L78.378,253.665L78.679,253.586L78.979,253.508L79.279,253.43L79.58,253.352L79.88,253.274L80.18,253.195L80.48,253.117L80.781,253.039L81.081,252.961L81.381,252.882L81.682,252.804L81.982,252.726L82.282,252.648L82.583,252.569L82.883,252.491L83.183,252.413L83.483,252.335L83.784,252.256L84.084,252.178L84.384,252.1L84.685,252.022L84.985,251.943L85.285,251.865L85.586,251.787L85.886,251.709L86.186,251.63L86.486,251.552L86.787,251.474L87.087,251.396L87.387,251.318L87.688,251.239L87.988,251.161L88.288,251.083L88.589,251.005L88.889,250.926L89.189,250.848L89.489,250.77L89.79,250.673L90.09,250.556L90.39,250.439L90.691,250.323L90.991,250.206L91.291,250.089L91.592,249.972L91.892,249.856L92.192,249.739L92.492,249.622L92.793,249.505L93.093,249.389L93.393,249.272L93.694,249.155L93.994,249.038L94.294,248.922L94.595,248.805L94.895,248.688L95.195,248.571L95.495,248.455L95.796,248.338L96.096,248.221L96.396,248.104L96.697,247.988L96.997,247.871L97.297,247.754L97.598,247.638L97.898,247.521L98.198,247.404L98.498,247.287L98.799,247.171L99.099,247.054L99.399,246.937L99.7,246.82L100,246.704L100.3,246.587L100.601,246.47L100.901,246.353L101.201,246.237L101.501,246.12L101.802,246.003L102.102,245.886L102.402,245.77L102.703,245.653L103.003,245.536L103.303,245.419L103.604,245.303L103.904,245.186L104.204,245.069L104.504,244.952L104.805,244.836L105.105,244.719L105.405,244.602L105.706,244.485L106.006,244.369L106.306,244.252L106.607,244.135L106.907,244.018L107.207,243.902L107.508,243.785L107.808,243.668L108.108,243.551L108.408,243.435L108.709,243.318L109.009,243.201L109.309,243.085L109.61,242.968L109.91,242.851L110.21,242.734L110.511,242.618L110.811,242.501L111.111,242.384L111.411,242.267L111.712,242.151L112.012,242.034L112.312,241.917L112.613,241.8L112.913,241.684L113.213,241.567L113.514,241.45L113.814,241.333L114.114,241.217L114.414,241.1L114.715,240.983L115.015,240.866L115.315,240.75L115.616,240.633L115.916,240.516L116.216,240.399L116.517,240.289L116.817,240.195L117.117,240.1L117.417,240.006L117.718,239.911L118.018,239.649L118.318,238.921L118.619,238.193L118.919,237.465L119.219,236.737L119.52,236.01L119.82,235.282L120.12,234.554L120.42,233.826L120.721,233.098L121.021,232.37L121.321,231.643L121.622,230.915L121.922,230.191L122.222,229.476L122.523,228.76L122.823,228.045L123.123,227.33L123.423,226.614L123.724,225.899L124.024,225.183L124.324,224.468L124.625,223.753L124.925,223.037L125.225,222.322L125.526,221.606L125.826,220.891L126.126,220.176L126.426,219.46L126.727,218.745L127.027,218.029L127.327,217.314L127.628,216.599L127.928,215.883L128.228,215.168L128.529,214.452L128.829,213.737L129.129,213.022L129.429,212.306L129.73,211.591L130.03,210.875L130.33,210.16L130.631,209.445L130.931,208.729L131.231,208.014L131.532,207.298L131.832,206.583L132.132,205.868L132.432,205.152L132.733,204.437L133.033,203.721L133.333,203.006L133.634,202.291L133.934,201.575L134.234,200.86L134.535,200.144L134.835,199.429L135.135,198.714L135.435,197.998L135.736,196.329L136.036,194.253L136.336,192.176L136.637,190.1L136.937,188.023L137.237,185.947L137.538,183.87L137.838,181.794L138.138,179.717L138.438,178.365L138.739,177.388L139.039,176.412L139.339,175.436L139.64,174.46L139.94,173.484L140.24,172.508L140.541,171.532L140.841,170.556L141.141,169.557L141.441,168.509L141.742,167.461L142.042,166.412L142.342,165.364L142.643,164.316L142.943,163.268L143.243,162.22L143.544,161.172L143.844,160.123L144.144,159.201L144.444,158.544L144.745,157.887L145.045,157.23L145.345,156.573L145.646,155.916L145.946,155.132L146.246,154.285L146.547,153.437L146.847,152.59L147.147,151.743L147.447,150.896L147.748,150.049L148.048,149.201L148.348,148.354L148.649,147.507L148.949,146.66L149.249,145.812L149.55,144.965L149.85,144.118L150.15,143.271L150.45,142.424L150.751,141.576L151.051,140.729L151.351,139.882L151.652,139.035L151.952,138.187L152.252,137.34L152.553,136.56L152.853,135.783L153.153,135.005L153.453,134.228L153.754,133.45L154.054,132.673L154.354,131.895L154.655,131.118L154.955,130.341L155.255,129.563L155.556,128.786L155.856,128.008L156.156,127.231L156.456,126.453L156.757,125.676L157.057,124.898L157.357,124.121L157.658,123.344L157.958,122.566L158.258,121.789L158.559,121.011L158.859,120.234L159.159,119.456L159.459,118.679L159.76,117.901L160.06,117.124L160.36,116.347L160.661,115.569L160.961,114.792L161.261,114.014L161.562,113.237L161.862,112.459L162.162,111.682L162.462,110.973L162.763,110.423L163.063,109.873L163.363,109.322L163.664,108.772L163.964,108.222L164.264,107.671L164.565,107.121L164.865,106.571L165.165,106.02L165.465,105.47L165.766,104.92L166.066,104.37L166.366,103.819L166.667,103.269L166.967,102.719L167.267,102.168L167.568,101.618L167.868,101.068L168.168,100.517L168.468,99.967L168.769,99.417L169.069,98.867L169.369,98.316L169.67,97.766L169.97,97.216L170.27,96.665L170.571,96.115L170.871,95.565L171.171,95.014L171.471,94.464L171.772,93.914L172.072,93.363L172.372,92.813L172.673,92.263L172.973,91.713L173.273,91.162L173.574,90.612L173.874,90.062L174.174,89.511L174.474,88.961L174.775,88.411L175.075,87.86L175.375,87.31L175.676,86.76L175.976,86.21L176.276,85.659L176.577,85.109L176.877,84.559L177.177,84.008L177.477,83.458L177.778,82.908L178.078,82.357L178.378,81.807L178.679,81.257L178.979,80.706L179.279,80.156L179.58,79.606L179.88,79.056L180.18,78.505L180.48,77.955L180.781,77.405L181.081,76.854L181.381,76.304L181.682,75.754L181.982,75.203L182.282,74.653L182.583,74.103L182.883,73.553L183.183,73.002L183.483,72.452L183.784,71.902L184.084,71.351L184.384,70.801L184.685,70.251L184.985,69.7L185.285,69.15L185.586,68.6L185.886,68.049L186.186,67.499L186.486,66.949L186.787,66.399L187.087,65.848L187.387,65.298L187.688,64.748L187.988,64.197L188.288,63.647L188.589,63.097L188.889,62.546L189.189,61.996L189.489,61.446L189.79,60.896L190.09,60.345L190.39,59.795L190.691,59.245L190.991,58.694L191.291,58.144L191.592,57.594L191.892,57.043L192.192,56.493L192.492,55.943L192.793,55.393L193.093,54.842L193.393,54.292L193.694,53.742L193.994,53.191L194.294,52.641L194.595,52.091L194.895,51.54L195.195,50.99L195.495,50.442L195.796,49.895L196.096,49.349L196.396,48.802L196.697,48.256L196.997,47.709L197.297,47.163L197.598,46.616L197.898,46.07L198.198,45.523L198.498,44.977L198.799,44.43L199.099,43.884L199.399,43.337L199.7,42.791L200,42.32L200.3,42.196L200.601,42.072L200.901,41.947L201.201,41.823L201.501,41.699L201.802,41.575L202.102,41.45L202.402,41.326L202.703,41.202L203.003,41.077L203.303,40.953L203.604,40.829L203.904,40.705L204.204,40.58L204.504,40.456L204.805,40.332L205.105,40.207L205.405,40.083L205.706,39.959L206.006,39.835L206.306,39.71L206.607,39.586L206.907,39.462L207.207,39.337L207.507,39.213L207.808,39.089L208.108,38.965L208.408,38.84L208.709,38.716L209.009,38.592L209.309,38.468L209.61,38.343L209.91,38.219L210.21,38.095L210.511,37.97L210.811,37.846L211.111,37.722L211.411,37.598L211.712,37.473L212.012,37.349L212.312,37.225L212.613,37.1L212.913,36.976L213.213,36.852L213.514,36.728L213.814,36.603L214.114,36.479L214.414,36.355L214.715,36.231L215.015,36.106L215.315,35.982L215.616,35.858L215.916,35.733L216.216,35.609L216.517,35.485L216.817,35.361L217.117,35.236L217.417,35.112L217.718,34.988L218.018,34.863L218.318,34.739L218.619,34.615L218.919,34.491L219.219,34.366L219.52,34.549L219.82,34.936L220.12,35.323L220.42,35.71L220.721,36.097L221.021,36.484L221.321,36.871L221.622,37.258L221.922,37.645L222.222,38.032L222.523,38.419L222.823,38.806L223.123,39.192L223.423,39.579L223.724,39.966L224.024,40.353L224.324,40.74L224.625,41.127L224.925,41.514L225.225,41.901L225.526,42.288L225.826,42.675L226.126,43.062L226.426,43.449L226.727,43.835L227.027,44.222L227.327,44.609L227.628,44.996L227.928,45.383L228.228,45.77L228.529,46.157L228.829,46.544L229.129,46.931L229.429,47.318L229.73,47.705L230.03,48.092L230.33,48.479L230.631,48.865L230.931,49.252L231.231,49.639L231.532,50.026L231.832,50.413L232.132,50.8L232.432,51.187L232.733,51.574L233.033,51.961L233.333,52.348L233.634,52.735L233.934,53.122L234.234,53.509L234.535,53.895L234.835,54.282L235.135,54.669L235.435,55.056L235.736,55.448L236.036,55.84L236.336,56.233L236.637,56.626L236.937,57.018L237.237,57.411L237.538,57.803L237.838,58.196L238.138,58.588L238.438,58.981L238.739,59.373L239.039,59.766L239.339,60.158L239.64,60.551L239.94,60.944L240.24,61.336L240.541,61.729L240.841,62.121L241.141,62.514L241.441,62.906L241.742,63.299L242.042,63.691L242.342,64.084L242.643,64.476L242.943,64.869L243.243,65.262L243.544,65.654L243.844,66.047L244.144,66.439L244.444,66.832L244.745,67.224L245.045,67.617L245.345,68.009L245.646,68.402L245.946,68.795L246.246,69.187L246.547,69.58L246.847,69.972L247.147,70.365L247.447,70.757L247.748,71.15L248.048,71.542L248.348,71.935L248.649,72.327L248.949,72.72L249.249,73.113L249.55,73.505L249.85,73.898L250.15,74.29L250.45,74.683L250.751,75.075L251.051,75.468L251.351,75.86L251.652,76.253L251.952,76.646L252.252,77.038L252.553,77.431L252.853,77.823L253.153,78.216L253.453,78.608L253.754,79.001L254.054,79.393L254.354,79.786L254.655,80.178L254.955,80.571L255.255,80.964L255.556,81.356L255.856,81.749L256.156,82.141L256.456,82.534L256.757,82.926L257.057,83.319L257.357,83.711L257.658,84.104L257.958,84.496L258.258,84.889L258.559,85.282L258.859,85.674L259.159,86.067L259.459,86.459L259.76,86.852L260.06,87.244L260.36,87.637L260.661,88.029L260.961,88.422L261.261,88.815L261.562,89.207L261.862,89.6L262.162,89.992L262.462,90.385L262.763,90.777L263.063,91.17L263.363,91.562L263.664,91.955L263.964,92.347L264.264,92.74L264.565,93.133L264.865,93.525L265.165,93.918L265.465,94.31L265.766,94.703L266.066,95.095L266.366,95.488L266.667,95.88L266.967,96.273L267.267,96.665L267.568,97.058L267.868,97.451L268.168,97.843L268.468,98.236L268.769,98.628L269.069,99.021L269.369,99.413L269.67,99.806L269.97,100.198L270.27,100.591L270.571,100.984L270.871,101.376L271.171,101.769L271.471,102.161L271.772,102.554L272.072,102.946L272.372,103.339L272.673,103.731L272.973,104.124L273.273,104.516L273.574,104.909L273.874,105.302L274.174,105.694L274.474,106.087L274.775,106.479L275.075,106.872L275.375,107.264L275.676,107.657L275.976,108.049L276.276,108.442L276.577,108.835L276.877,109.227L277.177,109.62L277.477,110.012L277.778,110.405L278.078,110.797L278.378,111.19L278.679,111.582L278.979,111.975L279.279,112.367L279.58,112.76L279.88,113.153L280.18,113.545L280.48,113.938L280.781,114.33L281.081,114.723L281.381,115.115L281.682,115.508L281.982,115.9L282.282,116.293L282.583,116.685L282.883,117.078L283.183,117.471L283.483,117.863L283.784,118.256L284.084,118.648L284.384,119.041L284.685,119.433L284.985,119.826L285.285,120.218L285.586,120.611L285.886,121.003L286.186,121.396L286.486,121.789L286.787,122.181L287.087,122.574L287.387,122.966L287.688,123.359L287.988,123.751L288.288,124.144L288.589,124.536L288.889,124.929L289.189,125.322L289.489,125.714L289.79,126.107L290.09,126.499L290.39,126.892L290.691,127.284L290.991,127.677L291.291,128.069L291.592,128.462L291.892,128.854L292.192,129.247L292.492,129.64L292.793,130.032L293.093,130.425L293.393,130.817L293.694,131.21L293.994,131.602L294.294,131.995L294.595,132.387L294.895,132.78L295.195,133.173L295.495,133.565L295.796,133.958L296.096,134.35L296.396,134.743L296.697,135.135L296.997,135.528L297.297,135.92L297.598,136.313L297.898,136.705L298.198,137.098L298.498,137.491L298.799,137.883L299.099,138.276L299.399,138.668L299.7,139.061L300,139.453" stroke="red" stroke-width="2"/></g></g><path class="foreground" aria-hidden="true" d="" display="none"/></g></g></g></svg>